<?xml version="1.0" encoding="utf-8"?>
<!-- Generator: Adobe Illustrator 26.0.1, SVG Export Plug-In . SVG Version: 6.00 Build 0)  -->
<svg version="1.1" id="Capa_1" xmlns="http://www.w3.org/2000/svg" xmlns:xlink="http://www.w3.org/1999/xlink" x="0px" y="0px"
	 viewBox="0 0 50 50" style="enable-background:new 0 0 50 50;" xml:space="preserve">
<style type="text/css">
	.st0{fill:#36A9E1;}
	.st1{fill:#FFFFFF;}
</style>
<path class="st0" d="M26.15,3.86c0.19,0.09,0.39,0.05,0.58,0.07c2.28,0.19,4.47,0.72,6.58,1.61c0.6,0.25,1.18,0.55,1.76,0.85
	c0.72,0.37,1.38,0.82,2.06,1.26c0.64,0.42,1.2,0.92,1.79,1.4c0.74,0.61,1.37,1.32,2.02,2.02c0.72,0.78,1.29,1.66,1.88,2.54
	c0.84,1.25,1.42,2.63,1.95,4.03c1,2.64,1.28,5.38,1.11,8.18c-0.11,1.68-0.41,3.33-0.97,4.92c-0.51,1.42-1.08,2.81-1.9,4.08
	c-0.58,0.9-1.15,1.8-1.87,2.6c-0.6,0.66-1.17,1.34-1.85,1.92c-0.63,0.54-1.24,1.1-1.93,1.56c-0.61,0.41-1.21,0.83-1.86,1.19
	c-1.81,1-3.71,1.76-5.73,2.22c-2.07,0.47-4.17,0.63-6.29,0.48c-1.68-0.12-3.32-0.42-4.93-0.94c-1.38-0.44-2.7-1.01-3.97-1.71
	c-0.62-0.34-1.19-0.73-1.78-1.12c-0.73-0.48-1.37-1.06-2.04-1.62c-0.67-0.57-1.24-1.23-1.83-1.88c-0.77-0.83-1.37-1.78-1.98-2.73
	c-0.83-1.29-1.38-2.69-1.9-4.12c-0.59-1.62-0.85-3.3-0.99-5.01c0-0.04,0.01-0.09-0.04-0.1c0-0.79,0-1.59,0-2.38
	c0.04-0.01,0.04-0.05,0.04-0.09c0.13-1.74,0.4-3.45,1-5.11c0.51-1.41,1.06-2.8,1.88-4.06c0.6-0.93,1.18-1.86,1.93-2.68
	c0.61-0.67,1.2-1.37,1.9-1.96c0.62-0.52,1.22-1.07,1.9-1.53c0.65-0.44,1.3-0.88,1.99-1.26c1.2-0.66,2.45-1.2,3.76-1.62
	c1.56-0.5,3.15-0.81,4.78-0.95c0.19-0.02,0.38,0.02,0.56-0.07C24.56,3.86,25.36,3.86,26.15,3.86z M24.96,43.01
	c2.36,0,4.51-0.38,6.71-1.16c1.35-0.48,2.61-1.13,3.82-1.89c0.65-0.41,1.24-0.89,1.85-1.35c0.71-0.55,1.31-1.21,1.93-1.84
	c0.71-0.73,1.28-1.57,1.85-2.41c0.8-1.16,1.36-2.45,1.86-3.75c0.66-1.74,0.98-3.55,1.05-5.41c0.09-2.55-0.23-5.04-1.21-7.43
	c-0.52-1.27-1.08-2.5-1.88-3.63c-0.62-0.86-1.22-1.72-1.98-2.47c-0.6-0.59-1.18-1.2-1.85-1.71c-0.65-0.5-1.3-1.01-2.01-1.42
	c-0.59-0.34-1.17-0.68-1.79-0.98c-1.23-0.58-2.5-1.03-3.82-1.35c-1.25-0.3-2.52-0.47-3.8-0.52c-1.45-0.05-2.89,0.06-4.33,0.32
	c-1.79,0.33-3.5,0.93-5.13,1.73c-0.65,0.32-1.26,0.71-1.87,1.09c-0.68,0.42-1.29,0.94-1.92,1.44c-0.69,0.55-1.27,1.2-1.88,1.84
	c-0.73,0.77-1.32,1.66-1.9,2.55c-0.82,1.24-1.38,2.61-1.87,4c-0.54,1.55-0.81,3.17-0.87,4.81c-0.09,2.38,0.17,4.71,1.02,6.96
	c0.51,1.36,1.07,2.69,1.9,3.89c0.6,0.87,1.18,1.75,1.93,2.5c0.61,0.62,1.2,1.26,1.89,1.79c0.63,0.49,1.26,0.98,1.94,1.41
	c1.19,0.74,2.44,1.35,3.75,1.83C20.49,42.64,22.7,43.01,24.96,43.01z"/>
<path class="st0" d="M29.51,25.42c1.26,0.51,2.42,1.17,3.46,2.03c0.89,0.74,1.63,1.6,2.29,2.55c1,1.43,1.55,3.01,1.82,4.71
	c0.11,0.68-0.24,1.23-0.83,1.37c-0.64,0.15-1.32-0.33-1.36-0.98c-0.06-1.14-0.4-2.2-0.91-3.21c-0.57-1.14-1.37-2.13-2.35-2.94
	c-1.1-0.92-2.35-1.58-3.74-1.96c-1.2-0.33-2.43-0.44-3.68-0.36c-1.39,0.09-2.7,0.44-3.94,1.05c-0.6,0.29-1.14,0.66-1.67,1.06
	c-0.88,0.65-1.55,1.48-2.17,2.38c-0.73,1.06-1.13,2.25-1.37,3.5c-0.03,0.16-0.01,0.32-0.01,0.48c-0.01,0.68-0.47,1.08-1.11,1.11
	c-0.55,0.03-1.09-0.52-1.09-1.1c-0.01-0.67,0.16-1.31,0.33-1.95c0.25-0.94,0.61-1.84,1.12-2.66c0.56-0.89,1.17-1.75,1.95-2.46
	c0.55-0.5,1.11-1,1.74-1.39c0.74-0.45,1.48-0.89,2.3-1.17c0.05-0.02,0.09-0.04,0.13-0.05c-2.56-1.81-3.92-4.24-3.82-7.41
	c0.06-1.7,0.56-3.27,1.61-4.61c1.92-2.44,4.47-3.5,7.54-3.25c2.4,0.2,4.36,1.3,5.85,3.18C34.28,16.67,34.07,22.59,29.51,25.42z
	 M31.36,18.33c0-3.52-2.87-6.24-6.34-6.27c-3.46-0.02-6.42,2.68-6.43,6.24c-0.01,3.51,2.89,6.25,6.36,6.27
	C28.4,24.58,31.35,21.9,31.36,18.33z"/>
<path class="st1" d="M31.36,18.33c-0.01,3.57-2.96,6.26-6.41,6.24c-3.47-0.02-6.37-2.75-6.36-6.27c0.01-3.56,2.96-6.26,6.43-6.24
	C28.5,12.08,31.37,14.81,31.36,18.33z"/>
</svg>
