<?xml version="1.0" encoding="utf-8"?>
<!-- Generator: Adobe Illustrator 26.0.1, SVG Export Plug-In . SVG Version: 6.00 Build 0)  -->
<svg version="1.1" id="Capa_1" xmlns="http://www.w3.org/2000/svg" xmlns:xlink="http://www.w3.org/1999/xlink" x="0px" y="0px"
	 viewBox="0 0 248 256" style="enable-background:new 0 0 248 256;" xml:space="preserve">
<style type="text/css">
	.st0{fill:#6AB535;}
	.st1{fill:#949494;}
	.st2{fill:#969696;}
	.st3{fill:#959594;}
	.st4{fill:#8F8F8E;}
	.st5{fill:#8F8F8F;}
	.st6{fill:#A1A0A0;}
	.st7{fill:#A2A2A1;}
	.st8{fill:#FFFFFF;}
	.st9{fill:#858585;}
	.st10{fill:#7BBB4B;}
</style>
<g>
	<path class="st0" d="M247.98,123.95c0,2.61,0,5.23,0,7.84c-0.29,1.03-0.05,2.08-0.13,3.12c0,9.6-1.75,18.93-4.26,28.14
		c-2.24,8.19-5.22,16.11-9.07,23.69c-3.38,6.66-7.27,13-11.7,19.03c-3.3,4.5-6.89,8.74-10.74,12.74
		c-3.59,3.72-7.37,7.25-11.45,10.48c-4.31,3.41-8.85,6.42-13.45,9.41c-4.88,3.17-10.15,5.46-15.37,7.93
		c-6.84,3.24-14.04,5.23-21.36,6.92c-3.37,0.78-6.82,1.16-10.2,1.83c-3.17,0.63-6.33,0.74-9.53,0.77c-0.89,0.07-1.79-0.15-2.66,0.13
		c-2.53,0-5.06,0-7.59,0c-1.03-0.29-2.08-0.05-3.12-0.13c-2.48,0.03-5,0.1-7.43-0.35c-5.71-1.07-11.48-1.82-17.09-3.36
		c-4.43-1.22-8.89-2.4-13.1-4.24c-5.67-2.47-11.43-4.81-16.72-8.05c-6.75-4.14-13.27-8.63-19.24-13.88
		c-6.28-5.52-11.99-11.58-17.11-18.17c-4.09-5.26-7.72-10.84-10.93-16.68c-2.73-4.94-5.12-10.07-7.13-15.34
		c-3.64-9.51-6.26-19.3-7.64-29.41c-0.52-3.8-0.8-7.61-0.79-11.45c-0.06-1.04,0.14-2.1-0.13-3.13c0-2.61,0-5.23,0-7.84
		c0.29-0.95,0.05-1.92,0.13-2.88c-0.06-6.64,0.92-13.16,2.21-19.66c1.43-7.17,3.49-14.15,6.12-20.96
		c3.75-9.7,8.56-18.85,14.57-27.37c1.9-2.69,3.96-5.24,5.97-7.84c3.18-4.11,6.74-7.87,10.51-11.42c4.42-4.15,9.03-8.07,14.01-11.58
		c5.22-3.68,10.73-6.79,16.36-9.77c6.6-3.5,13.63-5.76,20.69-8.04c4.64-1.5,9.35-2.48,14.13-3.26c4.16-0.68,8.35-1.08,12.57-1.02
		c0.96-0.08,1.94,0.16,2.9-0.13c2.53,0,5.06,0,7.59,0c0.95,0.29,1.92,0.05,2.88,0.13c7.98-0.06,15.82,1.11,23.46,3.26
		c7.49,2.12,14.99,4.38,21.95,7.96c4.9,2.52,9.92,4.9,14.42,8.11c3.36,2.4,6.91,4.54,10.02,7.28c4.39,3.86,8.98,7.52,12.76,12.04
		c1.16,1.39,2.57,2.54,3.72,3.96c3.2,3.96,6.4,7.92,9.24,12.16c4.39,6.57,8.21,13.45,11.32,20.7c4.74,11.01,7.95,22.46,9.54,34.35
		c0.49,3.68,0.75,7.36,0.74,11.07C247.92,122.02,247.69,123,247.98,123.95z"/>
	<path class="st1" d="M0.24,135.11l-0.11,0l-0.11-0.04c0-1.1,0-2.19,0-3.29C0.45,132.88,0.29,134,0.24,135.11z"/>
	<path class="st2" d="M247.98,135.08c-0.07,0.03-0.14,0.04-0.22,0.03c-0.05-1.11-0.21-2.24,0.22-3.32
		C247.98,132.89,247.98,133.99,247.98,135.08z"/>
	<path class="st3" d="M117.17,255.98c0.01-0.08,0-0.15-0.03-0.22c1.12-0.06,2.23-0.17,3.32,0.22
		C119.36,255.98,118.27,255.98,117.17,255.98z"/>
	<path class="st4" d="M117.14,0.24c0.04-0.07,0.05-0.14,0.03-0.22c1.01,0,2.02,0,3.04,0C119.21,0.45,118.17,0.3,117.14,0.24z"/>
	<path class="st5" d="M130.83,0.02c-0.02,0.08-0.01,0.15,0.03,0.22c-1.03,0.05-2.07,0.21-3.07-0.22
		C128.81,0.02,129.82,0.02,130.83,0.02z"/>
	<path class="st1" d="M0.02,120.92c0.07-0.04,0.14-0.05,0.22-0.03c0.05,1.03,0.2,2.07-0.22,3.07
		C0.02,122.94,0.02,121.93,0.02,120.92z"/>
	<path class="st6" d="M247.76,120.89c0.08-0.04,0.15-0.03,0.21,0.03c0,1.01,0,2.02,0,3.03
		C247.59,122.95,247.71,121.92,247.76,120.89z"/>
	<path class="st7" d="M130.86,255.76c-0.01,0.07-0.02,0.14-0.03,0.21c-0.93,0-1.86,0-2.78,0
		C128.96,255.58,129.92,255.71,130.86,255.76z"/>
	<path class="st8" d="M137.18,12.38c10.09,1.16,19.9,3.51,29.21,7.55c4.93,2.14,9.89,4.35,14.43,7.3c4.25,2.76,8.57,5.45,12.48,8.69
		c2.94,2.44,5.82,4.96,8.54,7.63c2.72,2.68,5.34,5.48,7.78,8.42c4.1,4.95,7.84,10.19,11.07,15.75c4.57,7.86,8.25,16.13,10.92,24.83
		c4.12,13.41,5.82,27.14,5.16,41.14c-0.5,10.64-2.33,21.05-5.63,31.21c-1.85,5.68-4.07,11.19-6.73,16.54
		c-2.77,5.58-6,10.87-9.6,15.95c-2.05,2.89-4.37,5.54-6.58,8.29c-2.32,2.91-5.1,5.35-7.66,8.01c-3.02,3.14-6.55,5.63-9.89,8.38
		c-3.85,3.16-8.2,5.51-12.4,8.11c-5.71,3.53-11.94,5.81-18.18,8.14c-13.38,5-27.26,6.45-41.41,5.93c-9.72-0.35-19.3-1.91-28.51-5.03
		c-6.49-2.2-12.97-4.59-18.91-8.07c-4.29-2.52-8.73-4.86-12.63-7.98c-3.3-2.65-6.79-5.08-9.83-8.05c-2.71-2.64-5.45-5.26-7.95-8.09
		c-4.46-5.04-8.5-10.41-12.04-16.13c-3.14-5.07-5.91-10.35-8.22-15.85c-4.38-10.4-7.31-21.21-8.61-32.42
		c-1.92-16.55-0.7-32.87,4.1-48.87c1.56-5.19,3.44-10.25,5.68-15.19c2.72-5.98,5.94-11.66,9.59-17.12c1.9-2.84,4.06-5.46,6.1-8.18
		c2.18-2.91,4.81-5.39,7.22-8.08c2.71-3.02,5.92-5.47,8.91-8.17c3.42-3.09,7.34-5.43,11.07-8.06c4.83-3.4,10.2-5.74,15.49-8.25
		c9.59-4.56,19.8-6.68,30.19-8.33c8.52-1.35,17.01-1.09,25.53-0.44C136.23,12.3,136.8,12.03,137.18,12.38z"/>
	<path class="st9" d="M137.18,12.38c-0.5,0.02-1.05,0.2-1.32-0.44C136.36,11.89,136.92,11.7,137.18,12.38z"/>
	<path class="st10" d="M97.12,134.7c-1.71-1.41-3.4-2.77-5.06-4.17c-4.16-3.51-7.51-7.74-10.23-12.39
		c-5.7-9.78-8.18-20.35-7.25-31.69c0.48-5.92,1.81-11.6,4.13-17.07c2.51-5.91,6-11.11,10.45-15.76c3.39-3.54,7.27-6.33,11.54-8.62
		c14.82-7.95,29.88-7.86,44.92-0.88c4.22,1.96,8.15,4.68,11.52,8c4.7,4.63,8.66,9.84,11.39,15.86c4.73,10.4,6.14,21.26,4.19,32.54
		c-0.99,5.71-2.85,11.11-5.59,16.24c-1.52,2.84-3.42,5.37-5.34,7.93c-2.48,3.31-5.59,5.91-8.88,8.33c-0.7,0.51-1.18,1.28-2.28,1.62
		c2.68,1.17,5.12,2.22,7.48,3.45c5.66,2.95,10.7,6.79,15.34,11.13c2.57,2.4,5.03,4.96,7.16,7.78c3.83,5.07,7.18,10.45,9.68,16.3
		c2.65,6.21,4.51,12.65,5.43,19.35c0.54,3.94-1.36,7.48-4.58,8.43c-4.12,1.22-8.19-1.67-8.42-6.08c-0.37-7-2.44-13.52-5.4-19.8
		c-3-6.33-7.09-11.85-12.1-16.77c-3.21-3.15-6.82-5.67-10.6-8.03c-10.87-6.79-22.81-8.8-35.39-8.04
		c-8.22,0.49-16.05,2.56-23.27,6.48c-4.3,2.33-8.46,5.01-11.97,8.47c-2.45,2.41-4.93,4.81-6.99,7.59
		c-5.77,7.82-9.72,16.44-11.47,26.04c-0.27,1.51-0.22,3.02-0.28,4.53c-0.13,3.08-1.96,5.47-4.77,6.28
		c-2.53,0.73-5.32-0.28-6.97-2.66c-1.28-1.84-1.56-3.96-1.28-6.15c1.21-9.35,4.01-18.16,8.62-26.42c1.54-2.76,3.36-5.31,5.13-7.92
		c2.07-3.06,4.69-5.59,7.17-8.27c2.91-3.15,6.41-5.52,9.79-8.08c4.19-3.17,8.88-5.34,13.7-7.3
		C96.81,134.91,96.93,134.81,97.12,134.7z"/>
	<path class="st8" d="M86.15,89.26c0.09-6.42,1.92-13.33,5.8-19.73c1.88-3.1,4.25-5.7,6.77-8.25c4.01-4.04,8.94-6.37,14.2-8.29
		c6.51-2.38,13.11-2.49,19.68-0.81c5.75,1.48,11.16,3.97,15.61,8.02c2.59,2.37,5.1,4.89,7,7.89c4.62,7.26,6.95,15.14,6.58,23.78
		c-0.25,5.89-1.71,11.43-4.39,16.69c-1.51,2.96-3.5,5.52-5.58,8.06c-2.97,3.62-6.71,6.17-10.77,8.36
		c-10.68,5.76-21.6,5.69-32.49,0.92c-4.24-1.86-8.14-4.53-11.34-8C90.03,110.11,86.2,100.94,86.15,89.26z"/>
</g>
</svg>
