<?xml version="1.0" encoding="utf-8"?>
<!-- Generator: Adobe Illustrator 26.0.1, SVG Export Plug-In . SVG Version: 6.00 Build 0)  -->
<svg version="1.1" id="Capa_1" xmlns="http://www.w3.org/2000/svg" xmlns:xlink="http://www.w3.org/1999/xlink" x="0px" y="0px"
	 viewBox="0 0 350 75" style="enable-background:new 0 0 350 75;" xml:space="preserve">
<style type="text/css">
	.st0{fill:#312783;}
</style>
<path class="st0" d="M142.36,37.94c-0.05-2.95,0.34-5.71,1.05-8.42c0.66-2.5,1.64-4.88,2.89-7.15c1.01-1.83,2.2-3.53,3.55-5.13
	c1.05-1.24,2.21-2.36,3.44-3.42c1.28-1.1,2.68-2.04,4.09-2.94c0.95-0.61,1.99-1.05,3.01-1.53c2.26-1.08,4.66-1.7,7.09-2.21
	c2.43-0.51,4.88-0.5,7.33-0.42c2.2,0.08,4.34,0.58,6.45,1.17c1.46,0.41,2.87,0.94,4.24,1.6c0.92,0.45,1.84,0.88,2.7,1.42
	c1.2,0.75,2.4,1.52,3.49,2.43c1.06,0.87,2.08,1.79,3.02,2.79c1.62,1.71,3.01,3.59,4.21,5.62c0.7,1.18,1.31,2.41,1.84,3.68
	c1.04,2.49,1.79,5.06,2.15,7.74c0.16,1.18,0.25,2.36,0.3,3.55c0.14,2.98-0.21,5.91-0.88,8.81c-0.45,1.93-1.13,3.78-1.97,5.57
	c-0.55,1.16-1.11,2.31-1.8,3.39c-0.65,1.03-1.33,2.04-2.11,2.98c-0.22,0.26-0.4,0.55-0.63,0.8c-0.22,0.25-0.3,0.23-0.51-0.03
	c-0.25-0.31-0.46-0.66-0.72-0.96c-1.23-1.43-2.72-2.53-4.34-3.5c-1.55-0.92-3.21-1.56-4.9-2.16c-2.43-0.87-4.94-1.32-7.5-1.61
	c-0.86-0.1-1.72-0.15-2.58-0.19c-0.71-0.04-1.42-0.08-2.13-0.07c-2.53,0.03-5.05,0.27-7.55,0.7c-2.71,0.47-5.31,1.29-7.82,2.39
	c-2.46,1.08-4.72,2.49-6.62,4.42c-0.28,0.29-0.49,0.63-0.82,0.87c-0.42,0.3-0.42,0.32-0.73-0.06c-0.9-1.08-1.73-2.21-2.48-3.4
	c-1.15-1.84-2.07-3.79-2.85-5.81c-0.93-2.42-1.46-4.93-1.76-7.5C142.41,40.18,142.33,38.99,142.36,37.94z M173.02,42.91
	c1.88,0.06,3.82-0.48,5.6-1.51c2.12-1.21,3.72-2.94,4.82-5.12c0.86-1.69,1.33-3.5,1.33-5.39c0.01-2.36-0.61-4.57-1.85-6.6
	c-1.36-2.22-3.24-3.85-5.63-4.83c-3.16-1.29-6.32-1.2-9.43,0.26c-2.53,1.19-4.36,3.08-5.66,5.53c-0.34,0.64-0.53,1.35-0.77,2.03
	c-0.34,0.95-0.48,1.95-0.53,2.95c-0.09,1.88,0.27,3.69,1.02,5.41c1.02,2.33,2.62,4.18,4.76,5.53
	C168.54,42.37,170.6,42.95,173.02,42.91z"/>
</svg>
