<?xml version="1.0" encoding="utf-8"?>
<!-- Generator: Adobe Illustrator 26.0.1, SVG Export Plug-In . SVG Version: 6.00 Build 0)  -->
<svg version="1.1" id="Capa_1" xmlns="http://www.w3.org/2000/svg" xmlns:xlink="http://www.w3.org/1999/xlink" x="0px" y="0px"
	 viewBox="0 0 1366 768" style="enable-background:new 0 0 1366 768;" xml:space="preserve">
<style type="text/css">
	.st0{fill:#06619B;}
	.st1{fill:#0186B6;}
	.st2{fill:#E56CA6;}
	.st3{fill:#E5B403;}
	.st4{fill:#CD9812;}
	.st5{fill:#02AECB;}
	.st6{fill:#D01F78;}
	.st7{fill:#02B0E9;}
	.st8{fill:#A31C5F;}
	.st9{fill:#F4D302;}
	.st10{fill:#84204F;}
	.st11{fill:#0F5F32;}
	.st12{fill:#159141;}
	.st13{fill:#65C9F1;}
	.st14{fill:#D80E79;}
</style>
<g>
	<path class="st0" d="M400.05,387.9c-6.88-1.91-13.14-5.34-19.68-8.07c-3.68-1.53-7.32-3.18-10.95-4.82
		c-4.37-1.97-10.28-2.9-12.66-6.29c-2.71-3.86-0.62-9.96-0.47-15.07c0.49-15.96,1.19-31.91,0.99-47.98
		c-3.53,17.78-7.06,35.56-10.59,53.34c-7.07,5.01-12.82,11.51-19.28,17.22c-3.16,2.79-6.88,5.3-8.53,9.53
		c-0.71,0.11-1.41,0.22-2.12,0.33c3.44-7.62,6.87-15.25,10.31-22.87c10.12-18.76,18.65-38.3,28.25-57.31
		c0.44-0.88,0.63-1.88,0.94-2.83c1.12-1.13,1.77-2.47,1.84-4.06c0.21-0.06,0.42-0.11,0.63-0.16c0.7,0.69,1.28,1.58,2.11,2.04
		c6.95,3.88,13.83,7.93,20.98,11.41c3.77,1.84,5.46,3.95,5.25,8.32c-0.38,8.13-0.15,16.29-0.07,24.44c0.02,1.54-0.88,3.63,1.03,4.5
		c1.69,0.77,3.02-0.83,4.46-1.59c9.2-4.86,17.6-11.19,27.41-14.93C413.29,351.34,406.67,369.62,400.05,387.9z"/>
	<path class="st1" d="M419.91,333.07c-9.81,3.74-18.21,10.07-27.41,14.93c-1.44,0.76-2.77,2.36-4.46,1.59
		c-1.91-0.87-1.02-2.96-1.03-4.5c-0.08-8.15-0.31-16.31,0.07-24.44c0.2-4.37-1.48-6.48-5.25-8.32c-7.15-3.48-14.03-7.53-20.98-11.41
		c-0.83-0.46-1.41-1.35-2.11-2.04c2.98-12.17,5.95-24.33,8.93-36.5c0.12-0.15,0.17-0.31,0.15-0.5c3.01-11.27,6.02-22.55,9.03-33.82
		c0.33-1.23,0.16-2.67,1.43-3.51c0.1-0.07,0.31-0.05,0.42,0.01c0.14,0.07,0.22,0.24,0.33,0.36c0.2,1.13,0.22,2.32,0.63,3.37
		c10.54,27.15,21.02,54.33,31.78,81.4c2.6,6.54,4.02,13.63,8.42,19.4c0.09,1.27,0.17,2.53,0.26,3.8L419.91,333.07z"/>
	<path class="st2" d="M224.01,246.06c12.46-3.51,25.24-5.6,37.88-8.31c18.96-4.06,37.97-7.95,56.95-11.93
		c0.8-0.17,1.59-0.61,2.18,0.35c2.45,9.17,4.28,18.47,5.82,27.83c-0.28,0.03-0.56,0.09-0.84,0.17c-0.35,0.28-0.7,0.55-1.04,0.83
		l0.03-0.05c-3.9,0.35-7.15,2.45-10.61,3.97c-19.84,8.71-39.67,17.47-59.5,26.22c0.05-10.27,0.07-20.54,0.18-30.8
		c0.03-2.83-0.93-4.36-3.99-4.32c-6.27,0.08-12.44-1.35-18.76-1.24C229.5,248.85,225.96,249.37,224.01,246.06z"/>
	<path class="st3" d="M156.92,372.29c-0.75-0.61-0.98-1.39-0.74-2.32c4.29-4.82,8.58-9.65,12.89-14.46
		c8.95-9.99,17.93-19.97,26.86-29.98c1.09-1.23,2.08-2.57,1.65-4.46c-1.18-5.26-0.22-10.59-0.55-15.88
		c-0.19-3.15,0.5-4.52,4.26-3.68c4.48,1,9.17,1.05,13.76,1.51c0.11,0.25,0.12,0.5,0.03,0.76c-0.24,27.4,0.39,54.82-1.05,82.21
		l-0.02,0.02c-1.45-0.32-2.91-0.59-4.33-0.98c-16.13-4.37-32.25-8.76-48.39-13.11C159.84,371.52,158.19,370.08,156.92,372.29z"/>
	<path class="st4" d="M215.05,303.01c-4.6-0.46-9.29-0.51-13.76-1.51c-3.77-0.84-4.45,0.53-4.26,3.68
		c0.32,5.29-0.64,10.63,0.55,15.88c0.43,1.89-0.56,3.24-1.65,4.46c-8.93,10.01-17.91,19.99-26.86,29.98
		c-4.31,4.81-8.59,9.64-12.89,14.46c1.63-10.69,4.84-21.03,7.26-31.54c2.63-11.47,5.72-22.83,8.32-34.31
		c0.88-3.87,2.46-7.08,5-10.09c12.76-15.14,25.39-30.39,38.06-45.6C214.89,266.62,214.97,284.82,215.05,303.01z"/>
	<path class="st5" d="M419.85,329.08c-4.39-5.77-5.82-12.87-8.42-19.41c-10.77-27.06-21.24-54.25-31.78-81.4
		c-0.41-1.05-0.43-2.24-0.63-3.37c16.15,9.56,32.29,19.12,48.44,28.67c0.89,0.53,1.65,1.11,1.82,2.21c-0.4,1.43-1.01,2.84-1.17,4.3
		c-2.49,22.97-4.93,45.95-7.38,68.93C420.44,329.02,420.15,329.04,419.85,329.08z"/>
	<path class="st1" d="M400.05,387.9c6.62-18.28,13.24-36.56,19.86-54.84c0,0,0.2-0.19,0.2-0.19c1.21,0.54,2.5,0.93,3.61,1.63
		c12.16,7.73,24.21,15.64,36.48,23.2c5.19,3.2,9.83,7.35,15.72,9.38c-0.07,1.33-1.17,1.47-2.09,1.72
		c-24.26,6.4-48.52,12.78-72.78,19.15C400.73,388.04,400.38,387.93,400.05,387.9z"/>
	<path class="st6" d="M215.05,303.01c-0.08-18.19-0.16-36.39-0.24-54.58c3.07-0.79,6.13-1.58,9.2-2.37
		c1.95,3.31,5.49,2.78,8.29,2.73c6.32-0.12,12.49,1.32,18.76,1.24c3.07-0.04,4.02,1.49,3.99,4.32c-0.11,10.27-0.13,20.54-0.18,30.8
		c-2.3,1.66-4.89,2.75-7.44,3.98c-10.44,5.03-21.47,8.83-31.42,14.89c-0.31-0.09-0.62-0.18-0.94-0.26
		C215.17,303.51,215.16,303.26,215.05,303.01z"/>
	<path class="st7" d="M475.91,367.09c-5.89-2.03-10.53-6.19-15.72-9.38c-12.27-7.56-24.31-15.47-36.48-23.2
		c-1.1-0.7-2.4-1.09-3.61-1.63c-0.08-1.27-0.17-2.53-0.25-3.8c0.29-0.04,0.58-0.06,0.88-0.06c2.41-0.04,2.34-2.32,2.99-3.66
		c6.54-13.5,14.25-26.4,20.23-40.17c1.47,0.27,1.51,1.65,1.89,2.64c9.91,25.77,19.78,51.56,29.64,77.35
		C475.73,365.77,475.78,366.45,475.91,367.09z"/>
	<path class="st8" d="M326.84,254.01c-1.54-9.36-3.36-18.66-5.82-27.83c4.91,1.68,8.13,5.69,12.04,8.74
		c-0.04,1.97,0.23,3.86,0.64,5.82c0.99,4.79,3.44,9.25,3.29,14.3c-2.73-0.27-5.45-0.55-9.33-0.94
		c10.51,15.5,20.48,30.21,30.45,44.93c-0.08,1.6-0.72,2.94-1.84,4.06c-5.04,4.04-8.9,9.2-13.25,13.9
		c-7.06,7.62-14.03,15.33-21.04,22.99c-0.08-8.44,0.84-16.84,1.33-25.24c0.38-6.59,0.43-13.2,0.89-19.79
		C325.15,281.32,325.96,267.66,326.84,254.01z"/>
	<path class="st9" d="M156.92,372.29c1.27-2.21,2.92-0.77,4.37-0.37c16.13,4.35,32.26,8.74,48.39,13.11
		c1.43,0.39,2.89,0.66,4.33,0.98c-0.01,0.56-0.02,1.12-0.03,1.67c-2.14,14.7-4.26,29.4-6.43,44.09c-0.51,3.43-1.18,6.83-1.77,10.24
		c-0.56-0.61-1.2-1.16-1.66-1.83c-12.58-18.16-25.09-36.39-37.77-54.48c-2.33-3.32-3.99-7.23-7.6-9.56c0,0,0.1,0.02,0.11,0.02
		c0.2-0.99-0.03-1.75-1.07-2.1c0,0,0.15,0.14,0.14,0.14c-0.27-0.42-0.53-0.84-0.8-1.26C156.89,372.77,156.82,372.56,156.92,372.29z"
		/>
	<path class="st10" d="M321.98,339.99c7.01-7.67,13.99-15.37,21.04-22.99c4.35-4.7,8.21-9.86,13.25-13.9
		c-0.31,0.94-0.5,1.95-0.94,2.83c-9.6,19.01-18.13,38.55-28.25,57.31c-26.54-1.6-53.09-3.2-79.63-4.77
		c-0.78-0.05-1.58,0.24-2.38,0.37c0,0-0.01,0.12-0.01,0.12c0.14-0.3,0.28-0.6,0.42-0.9c1.29,0.01,2.68,0.37,3.52-1.07
		c9.78-1.87,19.56-3.71,29.01-6.95C292.83,347.39,307.41,343.72,321.98,339.99z"/>
	<path class="st11" d="M263.07,465.76c-10.88-7.95-21.79-15.85-31.07-25.73c4.73,0.17,9.05-1.73,13.56-2.69
		c2.38-0.51,2.55-2.13,2.53-4.1c-0.09-8.46-0.1-16.92-0.15-25.39c0.24-0.96,1.12-1.17,1.86-1.43c16.4-5.68,32.82-11.33,49.23-16.99
		c-2.87,6.43-8.83,10.19-13.23,15.3c-3.41,3.96-7.48,7.4-9.82,12.22c-2.5-0.2-3.77,1.86-5.42,3.08
		c-6.66,4.91-13.16,10.03-19.83,14.92c-2.06,1.51-2.08,2.37-0.12,3.98c5.88,4.81,11.63,9.8,17.42,14.72
		c0.24,4.32-3.83,7.2-3.85,11.43c0,0-0.04,0.02-0.04,0.02C263.78,465.33,263.42,465.55,263.07,465.76z"/>
	<path class="st12" d="M275.97,416.96c2.34-4.82,6.41-8.26,9.82-12.22c4.4-5.11,10.35-8.87,13.23-15.3
		c1.98-1.27,2.53,0.01,3.13,1.61c7.79,21.03,15.61,42.04,23.42,63.06c0.39,1.04,1.13,2.21-0.56,2.88c0,0-0.26-0.27-0.26-0.27
		c0.22-0.91-0.07-1.71-0.78-2.21c-6.61-4.68-12.49-10.35-19.48-14.53c-7.55-6.98-16.13-12.66-24.07-19.14
		C278.9,419.59,277.45,418.25,275.97,416.96z"/>
	<path class="st12" d="M261.04,496.09c-19.04-5.45-38.08-10.9-57.11-16.36c-0.83-0.24-1.42-0.8-1.67-1.66
		c0.92-1.5,0.58-3.2,0.74-4.82c1.03-9.98,2.05-19.96,3.07-29.94c10.31,9.66,20.62,19.33,30.93,28.99c1.64,3.79,5.05,5.94,7.91,8.61
		C250.31,485.94,255.67,491.02,261.04,496.09z"/>
	<path class="st4" d="M206.07,443.3c-1.02,9.98-2.04,19.96-3.07,29.94c-0.17,1.62,0.18,3.32-0.74,4.82
		c-7.86-18.09-15.75-36.17-23.59-54.27c-6.19-14.31-12.35-28.63-18.47-42.96c-0.64-1.49-1.66-2.91-1.45-4.68
		c3.6,2.33,5.27,6.25,7.59,9.56c12.69,18.09,25.19,36.31,37.77,54.48c0.46,0.67,1.1,1.22,1.66,1.83
		C205.88,442.44,205.97,442.87,206.07,443.3z"/>
	<path class="st13" d="M443.97,285.18c-5.98,13.77-13.69,26.68-20.23,40.17c-0.65,1.35-0.58,3.62-2.99,3.66
		c2.45-22.98,4.88-45.96,7.38-68.93c0.16-1.46,0.77-2.87,1.17-4.3C434.57,265.39,440.46,274.69,443.97,285.18z"/>
	<path class="st12" d="M265.98,467.3c9.26-1.73,18.53-3.44,27.78-5.21c0.93-0.18,1.81-0.66,2.72-1.01
		c9.59-0.39,18.79-3.3,28.27-4.38c0,0,0.26,0.27,0.26,0.27c-12.18,7.69-24.36,15.4-36.56,23.07c-4.79,3.01-9.62,5.94-14.44,8.91
		c-0.6-1.52-1.29-3.02-1.8-4.58C270.32,478.62,266.49,473.57,265.98,467.3z"/>
	<path class="st11" d="M265.98,467.3c0.51,6.26,4.34,11.32,6.24,17.08c0.51,1.56,1.19,3.05,1.8,4.58
		c-4.24,2.53-7.64,6.59-12.97,7.12c-5.37-5.06-10.73-10.15-16.13-15.18c-2.86-2.67-6.27-4.82-7.91-8.61
		C246.66,470.63,256.32,468.97,265.98,467.3z"/>
	<path class="st12" d="M264.17,465.09c0.02-4.24,4.09-7.11,3.85-11.43c2.76,0.01,5.17-1.27,7.48-2.46c2.44-1.25,6.67-0.55,7.05-3.98
		c0.34-3.09-7.44-8.11-11.08-7.94c-3.75,0.18-7.5,0.38-11.52-0.23c6.57-3.33,13.14-6.65,19.69-10c1.17-0.6,2.09-0.59,3.11,0.37
		c4.96,4.68,9.94,9.32,14.97,13.93c1.29,1.18,1.52,1.94-0.24,2.91C286.32,452.42,275.69,459.55,264.17,465.09z"/>
	<path class="st13" d="M344.54,382.94c8.43,3.52,15.45,9.35,23.27,14.27c-12.68,1.36-25.16,3.2-37.81,2.82
		c4.35-5.69,8.7-11.39,13.05-17.08C343.54,382.94,344.04,382.94,344.54,382.94z"/>
	<path class="st9" d="M242.78,382.66c7.8,4.68,15.59,9.36,23.39,14.04c-12.5,1.74-24.79,3.33-37.22,3.26
		c0.88-1.36,1.78-2.71,2.64-4.09c2.82-4.52,7.31-7.82,9.39-12.88C241.59,382.87,242.18,382.76,242.78,382.66z"/>
	<path class="st4" d="M242.78,382.66c-0.6,0.11-1.2,0.22-1.79,0.33c-8.5-0.13-16.62,2.81-25.08,3.01
		c8.98-9.81,19.19-18.29,29.15-27.04c0,0,0.01-0.12,0.01-0.12C244.31,366.77,243.55,374.71,242.78,382.66z"/>
	<path class="st1" d="M344.54,382.94c-0.5,0-1,0.01-1.49,0.01c-1.8,0.04-3.62-0.1-5.39,0.14c-6.26,0.83-12.51,1.78-18.76,2.69
		c1.65-4.23,5.37-6.74,8.53-9.53c6.46-5.7,12.21-12.2,19.28-17.22C346.51,367.04,344.33,374.88,344.54,382.94z"/>
	<path class="st6" d="M336.98,255.04c0.15-5.04-2.3-9.5-3.29-14.3c-0.4-1.96-0.68-3.85-0.64-5.82
		c11.58,8.98,23.17,17.97,34.75,26.95c0.02,0.19-0.03,0.35-0.15,0.5C357.44,259.93,347.21,257.48,336.98,255.04z"/>
	<path class="st11" d="M324.74,456.71c-9.48,1.08-18.68,3.99-28.27,4.38c2.67-7.04,5.34-14.08,8.01-21.12
		c6.99,4.18,12.86,9.85,19.48,14.53C324.68,455.01,324.96,455.81,324.74,456.71z"/>
	<path class="st12" d="M247.93,407.85c0.04,8.46,0.06,16.92,0.15,25.39c0.02,1.97-0.15,3.59-2.53,4.1
		c-4.51,0.96-8.82,2.86-13.56,2.69C236.76,429.03,242.12,418.33,247.93,407.85z"/>
	<path class="st3" d="M215.91,385.99c8.46-0.2,16.59-3.13,25.08-3.01c-2.08,5.06-6.58,8.36-9.39,12.88
		c-0.86,1.38-1.76,2.73-2.64,4.09c-4.54-1.87-6.83-6.28-10.42-9.2c-1.41-1.15-2.04-3.54-4.55-3.08c0.01-0.56,0.02-1.12,0.03-1.68
		c0,0,0.02-0.02,0.02-0.02C214.66,385.98,215.28,385.99,215.91,385.99z"/>
	<path class="st7" d="M318.89,385.77c6.25-0.91,12.5-1.86,18.76-2.69c1.77-0.23,3.59-0.1,5.39-0.14
		c-4.35,5.69-8.7,11.39-13.05,17.08c-4.78-4.29-9.83-8.32-13.22-13.93C317.48,385.99,318.19,385.88,318.89,385.77z"/>
	<path class="st4" d="M157.78,374.06c1.04,0.35,1.27,1.12,1.07,2.1C157.77,375.83,157.77,374.95,157.78,374.06z"/>
	<path class="st4" d="M157.12,372.94c0.27,0.42,0.53,0.84,0.8,1.26C157.22,374.06,157.12,373.53,157.12,372.94z"/>
	<path class="st12" d="M263.07,465.76c0.35-0.22,0.71-0.43,1.06-0.65C264.05,465.78,263.66,465.93,263.07,465.76z"/>
	<path class="st10" d="M336.98,255.04c10.23,2.44,20.45,4.88,30.68,7.33c-2.97,12.17-5.95,24.34-8.93,36.5
		c-0.21,0.05-0.42,0.1-0.63,0.16c-9.97-14.71-19.95-29.43-30.45-44.93C331.53,254.5,334.26,254.77,336.98,255.04z"/>
	<path class="st8" d="M249,356.98c-0.85,1.44-2.24,1.08-3.52,1.07c-9.82-18.01-19.63-36.01-29.45-54.02
		c9.95-6.06,20.97-9.87,31.42-14.89c2.55-1.23,5.14-2.32,7.44-3.98c19.83-8.74,39.65-17.51,59.49-26.22
		c3.46-1.52,6.71-3.62,10.61-3.97c-0.24,0.44-0.42,0.91-0.72,1.3c-15.4,19.95-30.81,39.88-46.22,59.82
		c-10.21,13.01-20.44,26.01-30.62,39.06C245.26,357.93,248.31,356.51,249,356.98z"/>
	<path class="st14" d="M278.04,316.1c15.41-19.94,30.82-39.88,46.22-59.82c0.3-0.39,0.48-0.86,0.72-1.3c0,0-0.03,0.05-0.03,0.05
		c0.35-0.28,0.7-0.55,1.04-0.83c0.27-0.09,0.55-0.14,0.84-0.17c-0.87,13.65-1.69,27.3-2.64,40.95c-0.46,6.59-0.51,13.2-0.89,19.79
		c-0.49,8.4-1.41,16.8-1.33,25.24c-14.57,3.73-29.15,7.4-43.96,10.04C279.71,338.72,279.46,327.41,278.04,316.1z"/>
	<path class="st8" d="M326,254.19c-0.35,0.28-0.7,0.55-1.04,0.83C325.3,254.74,325.65,254.46,326,254.19z"/>
	<path class="st9" d="M216.03,304.03c9.82,18.01,19.63,36.01,29.45,54.02c-0.14,0.3-0.28,0.6-0.42,0.9
		c-9.96,8.75-20.17,17.23-29.15,27.04c-0.63,0-1.25,0-1.87-0.01c1.44-27.39,0.82-54.8,1.05-82.21
		C215.4,303.85,215.72,303.94,216.03,304.03z"/>
	<path class="st6" d="M278.04,316.1c1.42,11.31,1.67,22.62-0.03,33.93c-9.45,3.25-19.24,5.08-29.01,6.95
		c-0.69-0.47-3.74,0.95-1.58-1.83C257.6,342.11,267.83,329.11,278.04,316.1z"/>
</g>
</svg>
