<?xml version="1.0" encoding="utf-8"?>
<!-- Generator: Adobe Illustrator 26.0.1, SVG Export Plug-In . SVG Version: 6.00 Build 0)  -->
<svg version="1.1" id="Capa_1" xmlns="http://www.w3.org/2000/svg" xmlns:xlink="http://www.w3.org/1999/xlink" x="0px" y="0px"
	 viewBox="0 0 248 256" style="enable-background:new 0 0 248 256;" xml:space="preserve">
<style type="text/css">
	.st0{fill:#6DB63E;}
	.st1{fill:#E3E3E2;}
	.st2{fill:#FFFFFF;}
</style>
<path class="st0" d="M126.66,14.31c22.63,0.71,43.53,7.08,61.69,20.58c24,17.83,39.37,41.54,44.99,70.96
	c5.2,27.2,1.32,53.16-11.98,77.72c-4.74,8.76-10.83,16.33-17.35,23.74c-9.88,11.23-22.2,18.87-35.57,25.19
	c-27.94,13.22-56.42,13.03-84.69,2.13c-13.5-5.2-26.16-12.84-36.3-23.48C13.83,175.85,4.03,134.91,19.56,88.56
	c6.48-19.35,18.26-35.23,33.84-48.57c19.62-16.8,42.47-24.52,67.93-25.68C123.11,13.53,124.88,13.53,126.66,14.31z"/>
<path class="st1" d="M126.66,14.31c-1.77,0-3.55,0-5.32,0C123.11,12.4,124.89,12.4,126.66,14.31z"/>
<path class="st2" d="M124.09,231.79c-19.56-0.03-37.58-5.32-54.21-15.55c-2.28-1.4-2.94-2.97-2.92-5.52
	c0.18-20.57,8.25-36.78,24.86-49.5c16.25-12.45,43.33-13.99,61.16-2.34c19.18,12.54,28.65,30.56,28.08,53.62
	c-0.05,1.96-1.23,2.61-2.51,3.42C162.33,226.3,143.57,231.76,124.09,231.79z"/>
<path class="st2" d="M94.31,110.31c-0.51-14.82,13.03-30.55,29.6-30.59c16.62-0.04,29.71,15.56,29.9,30.41
	c0.2,15.44-13.71,30.93-29.72,30.99C108.02,141.17,93.61,125.65,94.31,110.31z"/>
</svg>
