<?xml version="1.0" encoding="utf-8"?>
<!-- Generator: Adobe Illustrator 26.0.1, SVG Export Plug-In . SVG Version: 6.00 Build 0)  -->
<svg version="1.1" id="Capa_1" xmlns="http://www.w3.org/2000/svg" xmlns:xlink="http://www.w3.org/1999/xlink" x="0px" y="0px"
	 viewBox="0 0 350 75" style="enable-background:new 0 0 350 75;" xml:space="preserve">
<style type="text/css">
	.st0{fill:#D1D4D7;}
	.st1{fill:#46406E;}
	.st2{fill:#7384B7;}
	.st3{fill:#82368C;}
</style>
<g>
	<g>
		<path class="st0" d="M40.26,64.84c0.11-0.72,0.45-1.34,1.13-1.82c0.1-0.07,0.2-0.15,0.2-0.26c-0.03-0.64,0.49-1.06,0.84-1.55
			c0.19-0.27,0.04-0.43-0.17-0.59c-0.57-0.42-1.15-0.83-1.72-1.24c-1.48-1.08-2.96-2.18-4.45-3.26c-0.83-0.6-1.4-1.38-2.06-2.1
			C33,52.92,32,51.79,30.99,50.68c-0.18-0.2-0.33-0.42-0.54-0.59c-0.27-0.23-0.16-0.34,0.11-0.47c1.16-0.56,2.31-1.12,3.47-1.69
			c0.71-0.35,1.41-0.69,2.11-1.04c0.13-0.06,0.34-0.09,0.35-0.23c0.01-0.15-0.21-0.17-0.34-0.23c-1.63-0.77-3.26-1.54-4.9-2.3
			c-0.2-0.09-0.3-0.18-0.28-0.39c0.06-0.88,0.11-1.76,0.1-2.63c-0.01-0.67,0.2-1.28,0.49-1.89c0.32-0.67,0.29-0.65-0.51-0.9
			c-0.73-0.23-1.44-0.48-2.2-0.62c-0.1-0.02-0.19-0.05-0.18-0.15c0.01-0.15,0.16-0.15,0.27-0.17c1.1-0.2,2.21-0.4,3.31-0.6
			c1.29-0.23,2.58-0.45,3.87-0.68c0.22-0.04,0.35-0.14,0.43-0.32c0.28-0.58,0.5-1.18,0.91-1.71c0.05-0.07,0.06-0.15,0.19-0.13
			c0.67,0.1,1.35,0.18,2.01,0.3c0.21,0.04,0.37,0.12,0.55-0.04c0.19-0.18,0.1-0.35-0.01-0.51c-0.47-0.69-0.92-1.39-1.42-2.07
			c-0.23-0.3-0.23-0.46,0.19-0.62c0.47-0.18,0.91-0.41,1.37-0.62c0.53-0.25,0.53-0.25,0.17-0.69c-0.5-0.61-1-1.22-1.5-1.83
			c0.45-0.23,0.93-0.16,1.35-0.28c0.61-0.18,1.25-0.26,1.85-0.44c0.71-0.22,1.45-0.28,2.17-0.45c0.42-0.1,0.78-0.23,1.09-0.5
			c0.91-0.79,1.85-1.56,2.77-2.34c0.21-0.18,0.35-0.25,0.57,0.01c0.67,0.81,1.36,1.6,2.06,2.38c0.19,0.21,0.27,0.43,0.26,0.7
			c-0.06,1.37-0.17,2.74-0.13,4.11c0.02,0.79,0.06,1.58,0.16,2.38c0.1,0.82,0.08,1.65,0.11,2.47c0.02,0.51,0.05,1.01,0.03,1.52
			c-0.03,0.56,0.29,1.02,0.51,1.51c0.29,0.63,0.66,1.23,1.01,1.84c0.42,0.73,0.74,1.53,1.31,2.19c0.13,0.15,0.12,0.32,0.16,0.49
			c0.03,0.15,0.13,0.28,0.32,0.31c0.19,0.03,0.22-0.12,0.27-0.23c0.44-0.81,0.92-1.59,1.32-2.41c0.22-0.46,0.46-0.94,0.82-1.35
			c0.23-0.26,0.28-0.55,0.44-0.82c0.06-0.11,0.06-0.25,0.16-0.33c0.45-0.35,0.34-0.81,0.36-1.24c0.1-1.98,0.25-3.96,0.27-5.95
			c0.02-1.52,0.03-3.04-0.11-4.55c-0.02-0.21,0.04-0.38,0.19-0.55c0.72-0.82,1.44-1.65,2.14-2.48c0.18-0.21,0.29-0.22,0.5-0.04
			c0.99,0.84,1.99,1.66,2.97,2.5c0.26,0.23,0.58,0.29,0.92,0.36c1.67,0.35,3.35,0.7,5.02,1.06c0.12,0.02,0.23,0.07,0.39,0.12
			c-0.54,0.66-1.04,1.3-1.58,1.91c-0.26,0.29-0.22,0.44,0.17,0.59c0.47,0.18,0.9,0.44,1.37,0.61c0.44,0.16,0.44,0.35,0.2,0.66
			c-0.75,1.01-1.44,2.05-2.01,3.13c-0.57,1.08-1.09,2.18-1.63,3.27c-0.03,0.07-0.07,0.18-0.04,0.23c0.07,0.09,0.2,0.04,0.3,0.01
			c0.24-0.06,0.48-0.13,0.72-0.18c0.78-0.18,0.97-0.37,0.98-1.08c0.01-0.69,0-1.39,0-2.08c0-0.35,0.33-0.53,0.72-0.63
			c0.59-0.16,1.25-0.03,1.79-0.38c0.31-0.2,0.57-0.15,0.71,0.23c0.2,0.54,0.49,1.07,0.71,1.61c0.1,0.24,0.27,0.32,0.54,0.37
			c2.59,0.44,5.19,0.9,7.82,1.36c-0.91,0.27-1.78,0.51-2.64,0.78c-0.18,0.06-0.36,0.09-0.55,0.09c-0.41-0.01-0.49,0.17-0.36,0.46
			c0.04,0.09,0.07,0.18,0.12,0.26c0.52,0.86,0.58,1.78,0.58,2.72c0,0.6,0,1.2,0.06,1.8c0.04,0.34-0.12,0.5-0.44,0.65
			c-1.6,0.74-3.19,1.49-4.78,2.23c-0.11,0.05-0.28,0.07-0.28,0.18c-0.01,0.14,0.18,0.16,0.29,0.22c1.87,0.92,3.74,1.84,5.62,2.75
			c0.31,0.15,0.35,0.24,0.11,0.49c-1.29,1.39-2.58,2.79-3.81,4.22c-0.93,1.08-2.04,2.01-3.24,2.87c-1.61,1.16-3.22,2.33-4.82,3.5
			c-0.4,0.29-0.04,0.6,0.11,0.8c0.62,0.84,1.08,1.75,1.74,2.57c0.16,0.19,0.25,0.42,0.37,0.63c-0.11,0.01-0.14,0.09-0.19,0.16
			c-0.78,0.99-1.56,1.98-2.34,2.97c-0.33,0.42-0.64,0.84-0.99,1.25c-0.38,0.46-0.39,0.45-0.78,0.1l0,0
			c-0.38-0.63-0.91-1.18-1.38-1.79c-0.77,0.7-1.49,1.39-2.25,2.03c-0.31,0.26-0.47,0.63-0.82,0.85c-0.41,0.25-0.71,0.57-1.06,0.87
			c-0.42,0.36-0.72,0.82-1.27,1.08l0.01,0c-0.39-0.7-0.9-1.34-1.37-2.04c-0.32,0.44-0.47,0.88-0.67,1.3
			c-0.39,0.85-0.89,1.66-1.18,2.54c-0.1,0.02-0.13,0.15-0.26,0.12c-0.1-0.19-0.19-0.38-0.29-0.56c0,0,0,0.01,0,0.01
			c-0.53-1.12-1.07-2.25-1.63-3.44c-0.49,0.73-1.01,1.37-1.4,2.07c0,0,0.01,0,0.01,0c-0.06,0-0.12,0-0.18,0
			c-0.05-0.05-0.1-0.1-0.15-0.14c-1.69-1.55-3.37-3.11-5.07-4.67c-0.56,0.69-1.07,1.32-1.58,1.97c-0.13,0.17-0.19,0.23-0.37,0.01
			c-0.2-0.23-0.28-0.56-0.64-0.68c0,0,0.01,0.01,0.01,0.01c-0.09-0.36-0.35-0.64-0.67-0.88c0,0,0,0,0,0
			c0.04-0.11-0.06-0.17-0.11-0.24C41.72,66.65,40.99,65.74,40.26,64.84z M67.02,48.99c-0.12-0.44-0.23-0.88-0.36-1.38
			c-0.51,0.53-0.97,1-1.43,1.47c-0.38,1.09-0.76,2.18-1.13,3.27c-0.03,0.09-0.14,0.22,0.05,0.27c0.13,0.03,0.18-0.08,0.24-0.15
			C65.26,51.31,66.14,50.15,67.02,48.99z M42.19,49.01c0.22,0.3,0.43,0.61,0.66,0.91c0.67,0.88,1.35,1.76,2.02,2.63
			c0.06,0.07,0.1,0.19,0.23,0.17c0.14-0.02,0.08-0.13,0.06-0.2c-0.42-1.14-0.72-2.3-1.2-3.42c-0.46-0.48-0.91-0.96-1.43-1.49
			C42.41,48.12,42.3,48.56,42.19,49.01z M58.54,54.34c0.23-0.42,0.46-0.83,0.68-1.25c0.11-0.21-0.01-0.22-0.22-0.18
			c-0.59,0.12-1.18,0.24-1.77,0.36c0.01-0.04-0.01-0.09,0.02-0.12c0.8-0.76,1.44-1.63,2.19-2.43c0.1-0.11,0.15-0.22,0.17-0.36
			c0.07-0.8,0.16-1.61,0.25-2.41c0.02-0.16-0.02-0.27-0.15-0.39c-0.49-0.46-0.98-0.93-1.45-1.41c-0.24-0.24-0.51-0.32-0.88-0.34
			c-1.91-0.09-3.82-0.07-5.73,0.01c-0.26,0.01-0.44,0.07-0.6,0.24c-0.5,0.51-1.02,1.01-1.54,1.51c-0.13,0.12-0.18,0.23-0.16,0.39
			c0.07,0.68,0.13,1.35,0.19,2.03c0.03,0.36,0.13,0.68,0.42,0.98c0.71,0.76,1.36,1.55,2.04,2.34c-0.57-0.12-1.15-0.25-1.72-0.37
			c-0.19-0.04-0.38-0.05-0.26,0.19c0.21,0.41,0.33,0.85,0.66,1.22c-0.67,0.32-1.5,0.35-2.15,0.78c1.03,0.34,2.04,0.69,3.06,1.02
			c0.12,0.04,0.28,0.03,0.42,0.03c1.64-0.05,3.29-0.09,4.93,0c0.42,0.02,0.81-0.03,1.18-0.19c0.47-0.2,0.98-0.32,1.46-0.48
			c0.38-0.13,0.76-0.26,1.19-0.41C59.96,54.82,59.25,54.58,58.54,54.34z M68.34,30.11c-0.99-0.44-2.01-0.82-3.13-0.89
			c-1.44-0.09-2.19,0.03-2.74,1.34c-0.27,0.65-0.7,0.98-1.53,0.84c-0.06-0.01-0.13,0.01-0.19,0.01c-0.31-0.04-0.34,0.13-0.31,0.31
			c0.19,0.86,0.39,1.72,0.6,2.6c0.93-0.55,1.96-0.87,2.92-1.3c0.19-0.08,0.37-0.11,0.58-0.12c0.83-0.05,1.59-0.27,2.18-0.8
			C67.36,31.5,67.88,30.84,68.34,30.11z M48.19,34.24c0.17-0.86,0.33-1.71,0.53-2.55c0.06-0.26-0.05-0.32-0.29-0.28
			c-0.98,0.15-1.51-0.23-1.78-1.01c-0.35-0.98-1.26-1.23-2.34-1.2c-1.15,0.03-2.19,0.4-3.21,0.81c-0.21,0.08-0.21,0.16-0.11,0.32
			c0.33,0.49,0.72,0.96,1.13,1.41c0.54,0.61,1.24,1.04,2.14,1.1c0.78,0.06,1.42,0.36,2.09,0.63C46.94,33.71,47.55,33.97,48.19,34.24
			z M64.11,56.23c0.29,0.03,0.38,0,0.33-0.32c-0.11-0.71-0.41-1.38-0.58-2.07c-0.09-0.37-0.27-0.4-0.61-0.24
			c-0.79,0.38-1.48,0.88-2.23,1.32c-0.28,0.17-0.04,0.24,0.1,0.29c0.58,0.23,1.16,0.47,1.76,0.65
			C63.29,55.98,63.65,56.24,64.11,56.23z M44.89,56.24c0.04-0.01,0.09-0.01,0.13-0.03c0.88-0.42,1.87-0.65,2.76-1.04
			c0.2-0.09,0.19-0.18,0.06-0.31c-0.11-0.1-0.23-0.18-0.37-0.24c-0.56-0.27-1.04-0.63-1.48-1.02c-0.15-0.13-0.29-0.27-0.5-0.23
			c-0.22,0.05-0.25,0.25-0.29,0.42c-0.07,0.3-0.04,0.6-0.16,0.9c-0.18,0.43-0.28,0.89-0.41,1.34C44.6,56.2,44.72,56.25,44.89,56.24z
			 M40.82,34.73c-0.04,0.01-0.07,0.01-0.11,0.02c-0.01,0.06-0.04,0.12-0.04,0.19c-0.06,0.73,0.05,1.46-0.08,2.19
			c-0.03,0.2-0.11,0.62,0.24,0.75c0.53,0.2,1.11,0.3,1.77,0.47C41.98,37.07,41.4,35.9,40.82,34.73z M58.02,38.62
			c0,0.01-0.01,0.02-0.01,0.04c0,0.01,0.01,0.01,0.02,0.02c0-0.01,0.01-0.02,0.01-0.03C58.04,38.64,58.03,38.63,58.02,38.62z"/>
		<path class="st1" d="M67.83,15.63c-0.95,1.05-1.91,2.09-2.86,3.14c-0.82,0.91-1.64,1.82-2.46,2.73c-0.53,0.58-1.09,1.16-1.63,1.74
			c-0.08,0.09-0.14,0.19-0.29,0.09c-0.54-0.36-1.05-0.75-1.08-1.4c-0.01-0.13-0.04-0.26-0.11-0.38c-0.45-0.73-0.89-1.45-1.33-2.18
			c-0.12-0.21-0.37-0.3-0.49-0.55c-0.49-1.06-1.09-2.08-1.73-3.08c-0.35-0.55-0.67-1.11-1.01-1.67c-0.06-0.1-0.11-0.25-0.28-0.24
			c-0.13,0.01-0.17,0.15-0.22,0.24c-1.01,1.68-2.02,3.36-3.02,5.04c-0.18,0.31-0.21,0.67-0.47,0.97c-0.12,0.14-0.23,0.26-0.39,0.38
			c-0.35,0.27-0.56,0.66-0.73,1.03c-0.27,0.58-0.52,1.17-0.93,1.7c-0.17,0.22-0.41,0.2-0.6-0.01c-1.16-1.31-2.3-2.64-3.51-3.92
			c-1.13-1.2-2.22-2.42-3.33-3.63c0.61-1.41,1.22-2.82,1.83-4.23c0.03-0.08,0.15-0.12,0.04-0.24c-0.5-0.53-0.97-1.07-1.46-1.61
			c-1.23-1.21-2.42-2.44-3.7-3.61c-0.76-0.7-1.64-1.31-2.48-1.95c-0.36-0.28-0.76-0.52-1.08-0.82c-0.23-0.22-0.34-0.15-0.57-0.02
			c-1.17,0.69-2.11,1.57-3.04,2.47c-0.28,0.28-0.59,0.54-0.89,0.82c-0.14-0.14-0.04-0.25-0.01-0.35c0.24-0.81,0.5-1.62,0.71-2.44
			c0.09-0.35,0.31-0.62,0.61-0.83c0.99-0.68,1.91-1.42,2.86-2.13c0.22-0.17,0.41-0.2,0.67-0.09c0.35,0.15,0.72,0.27,1.08,0.39
			c0.18,0.06,0.33,0.15,0.43,0.29c1.48,2.07,3.58,3.68,5.5,5.43c1.5,1.36,2.98,2.73,4.45,4.1c0.23,0.21,0.42,0.3,0.77,0.21
			c0.85-0.22,1.72-0.4,2.58-0.6c0.21-0.05,0.34-0.04,0.46,0.14c0.56,0.84,1.23,1.63,1.73,2.5c0.04,0.06,0.07,0.13,0.16,0.12
			c0.1-0.02,0.13-0.11,0.16-0.18c0.29-0.55,0.5-1.12,0.72-1.69c0.13-0.34,0.27-0.68,0.42-1.05c0.31,0.6,0.44,1.21,0.68,1.79
			c0.09,0.21,0.15,0.43,0.24,0.65c0.07,0.15,0.09,0.37,0.35,0.38c0.26,0,0.3-0.22,0.36-0.37c0.3-0.82,0.59-1.64,0.9-2.52
			c0.42,1.06,0.79,2.08,1.29,3.1c0.54-0.77,1.08-1.53,1.62-2.29c0.4-0.57,0.48-0.6,1.22-0.45c0.76,0.15,1.47,0.43,2.24,0.53
			c0.25,0.03,0.39,0.01,0.57-0.15c2.71-2.47,5.42-4.95,8.15-7.4c0.72-0.65,1.2-1.42,1.82-2.12c0.11-0.13,0.21-0.27,0.39-0.33
			c0.44-0.16,0.89-0.31,1.32-0.49c0.33-0.13,0.54,0.07,0.7,0.2c0.9,0.76,1.89,1.44,2.82,2.16c0.22,0.17,0.38,0.35,0.45,0.59
			c0.28,0.91,0.56,1.83,0.83,2.74c0.01,0.05-0.01,0.1-0.02,0.25c-0.35-0.32-0.65-0.58-0.94-0.86c-0.95-0.92-1.92-1.82-3.11-2.53
			c-0.2-0.12-0.34-0.15-0.53,0c-1.07,0.84-2.16,1.66-3.2,2.52c-1.14,0.94-2.09,2.01-3.14,3.02c-0.3,0.29-0.58,0.59-0.87,0.89
			c-0.51,0.38-0.81,0.9-1.22,1.35c-0.24,0.27-0.27,0.5-0.14,0.8C66.69,13,67.26,14.31,67.83,15.63z"/>
		<path class="st0" d="M41.78,9.55c0.48,0.54,0.96,1.08,1.46,1.61c0.11,0.12-0.01,0.16-0.04,0.24c-0.61,1.41-1.22,2.82-1.83,4.23
			c-1.21,1-2.43,2-3.64,3c-0.09,0.07-0.15,0.23-0.33,0.14c-0.79-2.07-1.57-4.14-2.36-6.2c-0.11,1.44-0.11,2.86-0.11,4.28
			c0,0.14,0.01,0.25,0.16,0.35c0.77,0.54,1.53,1.09,2.29,1.64c-0.71,0.62-1.6,1.03-2.39,1.56c-0.32,0.21-0.64,0.41-0.96,0.62
			c-2.18-0.12-4.36-0.15-6.53-0.2c0.17-0.43,0.65-0.64,0.95-0.98c0.15-0.16,0.26-0.31,0.28-0.5c0.35-0.15,0.7-0.4,0.78-0.67
			c0.06-0.22-0.46-0.25-0.68-0.43c-0.06-0.04-0.12-0.08-0.19-0.12c-0.26-0.16-0.52-0.32-0.79-0.49c0.25-0.22,0.62-0.18,0.87-0.36
			c0.19-0.03,0.19-0.13,0.15-0.26c-0.09-0.29-0.16-0.59-0.23-0.89c0.04-0.15-0.02-0.29-0.06-0.43c-0.27-0.79-0.3-1.57-0.22-2.4
			c0.23-2.25,0.83-4.43,1.59-6.7c0.21,0.46,0.39,0.84,0.57,1.23c0.56,1.25,1.12,2.51,1.68,3.76c0.03,0.06,0.08,0.11,0.12,0.16
			c0.01,0.21,0.23,0.19,0.38,0.22c0.42,0.09,0.87,0.13,1.27,0.27c0.75,0.25,1.26,0.1,1.74-0.45c0.64-0.71,1.38-1.36,2.07-2.03
			c0,0,0.01-0.01,0.01-0.01c0.1-0.01,0.13-0.04,0.09-0.12C39.16,9.58,40.47,9.57,41.78,9.55z"/>
		<path class="st0" d="M67.83,15.63c-0.57-1.31-1.14-2.63-1.72-3.94c-0.13-0.3-0.11-0.53,0.14-0.8c0.41-0.45,0.7-0.97,1.22-1.35
			c1.09,0.01,2.17,0.02,3.26,0.03c0.18,0,0.37-0.02,0.54,0.07c0.03,0,0.06,0.01,0.09,0.01c0,0-0.01-0.01-0.01-0.01
			c0.01,0.18,0.2,0.26,0.32,0.37c0.76,0.72,1.54,1.42,2.28,2.15c0.19,0.19,0.34,0.24,0.59,0.19c0.68-0.14,1.37-0.28,2.05-0.41
			c0.3,0.04,0.35-0.16,0.43-0.33c0.69-1.55,1.38-3.1,2.08-4.65c0.06-0.14,0.09-0.28,0.23-0.38c0,0,0,0.01,0,0.01
			c0,0.03,0.01,0.05,0.04,0.06c0.17,0.62,0.28,1.26,0.51,1.86c0.72,1.87,0.87,3.81,1.09,5.74c0.08,0.67-0.27,1.3-0.43,1.94
			c-0.08,0.31-0.29,0.65-0.21,0.92c0.1,0.33,0.65,0.25,0.97,0.42c-0.06,0.29-0.39,0.35-0.61,0.49c-0.13,0.09-0.27,0.16-0.41,0.25
			c-0.07,0.04-0.19,0.06-0.17,0.16c0,0-0.01,0-0.01,0c-0.47,0.08-0.5,0.14-0.23,0.41c0.15,0.14,0.25,0.33,0.48,0.41
			c0.44,0.59,1.01,1.08,1.56,1.58c-2.22,0.01-4.43,0.08-6.65,0.17c-1.15-0.59-2.16-1.35-3.28-1.98c-0.07-0.04-0.1-0.13-0.16-0.2
			c0.7-0.5,1.4-1.01,2.12-1.5c0.24-0.16,0.34-0.33,0.33-0.6c-0.02-1.21-0.02-2.42-0.03-3.62c0-0.17,0-0.34,0-0.51
			c-0.03,0-0.06,0-0.1-0.01c-0.78,2.07-1.56,4.13-2.34,6.2c-0.08,0.02-0.15,0.07-0.25-0.02C70.32,17.7,69.07,16.67,67.83,15.63z"/>
		<path class="st0" d="M26.66,41.56c0.46,0.77,0.46,1.65,0.79,2.45c0.18,0.44,0.25,0.9,0.4,1.35c0.1,0.31,0.08,0.59-0.1,0.88
			c-1.02,1.7-2.03,3.41-3.05,5.12c-0.17,0.28-0.34,0.56-0.59,0.82c0.13-0.53,0.26-1.07,0.39-1.6c0.55-2.23,1.1-4.47,1.64-6.7
			c0.04-0.15,0.03-0.32,0.04-0.47C26.34,42.79,26.5,42.18,26.66,41.56z"/>
		<path class="st0" d="M82.83,42.77c0.05,0.68,0.28,1.33,0.44,1.99c0.58,2.43,1.19,4.86,1.78,7.29c0.02,0.06,0.01,0.13,0.03,0.31
			c-0.56-0.92-1.06-1.74-1.55-2.56c-0.68-1.14-1.34-2.28-2.03-3.42c-0.18-0.3-0.27-0.58-0.17-0.92c0.36-1.22,0.67-2.45,1.1-3.66
			c0.02-0.06,0.07-0.11,0.11-0.17C82.65,42.01,82.74,42.39,82.83,42.77z"/>
		<path class="st0" d="M32.15,58.64c1.21-0.04,2.39-0.26,3.57-0.45c0.64-0.1,1.29-0.34,2.06-0.15c-2.42,1.52-4.79,3.01-7.28,4.57
			c0.21-0.86,0.77-1.51,0.87-2.28C31.66,59.77,31.97,59.23,32.15,58.64z"/>
		<path class="st1" d="M75.26,20.98c2.21-0.09,4.43-0.16,6.65-0.17c-0.26,0.25-0.61,0.4-0.93,0.57c-0.19,0.1-0.3,0.16-0.2,0.36
			c0.12,0.25-0.06,0.41-0.24,0.6c-0.32,0.32-0.8,0.52-0.99,0.95c-0.09,0.21-0.36,0.31-0.62,0.31c-0.39,0-0.78-0.03-1.17-0.06
			c-0.28-0.02-0.45-0.24-0.6-0.38c-0.63-0.61-1.21-1.26-1.8-1.9C75.3,21.18,75.29,21.07,75.26,20.98z"/>
		<path class="st0" d="M71.22,57.89c0.34-0.14,0.55,0.07,0.78,0.13c0.24,0.07,0.48,0.1,0.73,0.12c0.9,0.05,1.78,0.2,2.64,0.42
			c0.2,0.05,0.4,0.05,0.6,0.05c1.1-0.02,0.88,0.09,1.23,0.87c0.21,0.47,0.34,0.97,0.7,1.41c0.31,0.38,0.44,0.86,0.64,1.3
			c0.03,0.06,0.01,0.14-0.06,0.18c-0.13,0.07-0.2-0.02-0.28-0.08c-0.72-0.45-1.43-0.91-2.15-1.35c-1.21-0.74-2.36-1.53-3.6-2.23
			C72.02,58.48,71.64,58.18,71.22,57.89z"/>
		<path class="st1" d="M27.48,20.8c2.18,0.05,4.36,0.07,6.53,0.2c-0.37,0.41-0.71,0.84-1.16,1.19c-0.26,0.21-0.46,0.46-0.61,0.75
			c-0.27,0.52-1.18,0.8-1.79,0.57c-0.09-0.04-0.17-0.12-0.22-0.19c-0.22-0.32-0.51-0.58-0.82-0.81c-0.58-0.44-0.95-1.08-1.71-1.37
			C27.56,21.08,27.48,20.95,27.48,20.8z"/>
		<path class="st0" d="M82.64,38.53c0.56,0.59,1.28,1.04,1.91,1.56c0.73,0.61,1.49,1.19,2.28,1.82c-0.31,0.04-0.55-0.07-0.79,0
			c-1-0.13-1.99-0.28-2.99-0.39c-0.19-0.02-0.4-0.19-0.61-0.02c-0.2-0.06-0.4-0.13-0.75-0.24c0.78,0.03,0.65-0.28,0.54-0.63
			c-0.31-1.01-0.6-2.02-0.89-3.03C81.84,37.84,82.17,38.26,82.64,38.53z"/>
		<path class="st0" d="M27.02,41.44c-0.13,0-0.26,0-0.39-0.01c-0.97,0.13-1.95,0.27-2.92,0.4c-0.42-0.08-0.82,0.12-1.32,0.05
			c0.82-0.65,1.62-1.27,2.4-1.9c0.53-0.42,1.05-0.86,1.57-1.29c0.5-0.38,0.99-0.76,1.49-1.15c0.03,0.28-0.07,0.54-0.17,0.79
			c-0.35,0.88-0.53,1.8-0.85,2.68C26.76,41.21,26.94,41.3,27.02,41.44L27.02,41.44z"/>
		<path class="st1" d="M71.81,18.76c0.78-2.07,1.56-4.13,2.34-6.2c0.03,0,0.06,0,0.1,0.01c0,0.17,0,0.34,0,0.51
			c0.01,1.21,0,2.42,0.03,3.62c0.01,0.27-0.09,0.44-0.33,0.6c-0.72,0.49-1.41,1-2.12,1.5C71.83,18.79,71.82,18.78,71.81,18.76z"/>
		<path class="st1" d="M37.37,18.82c-0.76-0.55-1.52-1.1-2.29-1.64c-0.14-0.1-0.16-0.21-0.16-0.35c0-1.42,0-2.84,0.11-4.28
			c0.79,2.07,1.57,4.14,2.36,6.2C37.38,18.78,37.37,18.8,37.37,18.82z"/>
		<path class="st1" d="M70.78,66.29c0.03-0.24,0.22-0.41,0.35-0.6c0.62-0.92,1.26-1.83,1.88-2.75c0.14-0.21,0.29-0.29,0.59-0.28
			c1.41,0.05,2.82,0.06,4.23,0.09c0.2,0,0.4,0.03,0.61,0.05c0.09,0.01,0.21,0.02,0.16,0.14c-0.03,0.09-0.12,0.13-0.22,0.09
			c-0.23-0.1-0.37-0.16-0.5,0.15c-0.06,0.14-0.49,0.23-0.8,0.23c-0.69,0-1.38,0.02-2.07,0.01c-1.14-0.01-1.94,0.49-2.5,1.25
			c-0.42,0.56-0.94,1.05-1.43,1.55C71,66.29,70.92,66.35,70.78,66.29L70.78,66.29z"/>
		<path class="st1" d="M57.99,72.2c0.55-0.25,0.85-0.72,1.27-1.08c0.35-0.3,0.66-0.62,1.06-0.87c0.36-0.22,0.51-0.58,0.82-0.85
			c0.76-0.65,1.48-1.33,2.25-2.03c0.46,0.62,1,1.16,1.38,1.79c-0.69-0.38-1.41-0.48-2.19-0.18c-0.32,0.12-0.51,0.35-0.74,0.53
			c-0.54,0.44-1.12,0.91-1.5,1.43c-0.36,0.5-0.83,0.81-1.35,1.12C58.71,72.24,58.37,72.43,57.99,72.2z"/>
		<path class="st1" d="M64.77,69.16c0.38,0.36,0.39,0.36,0.78-0.1c0.34-0.41,0.66-0.83,0.99-1.25c0.78-0.99,1.56-1.98,2.34-2.97
			c0.05-0.07,0.09-0.14,0.19-0.16c0.25,0.55,0.67,1.03,0.88,1.6c0,0-0.01,0.01-0.01,0.01c-0.2,0.19-0.49,0.14-0.74,0.2
			c-0.91,0.21-1.32,0.86-1.85,1.43C67,68.31,66.83,68.87,66.13,69c-0.09,0.02-0.13,0.22-0.18,0.34c-0.14,0.35-0.52,0.25-0.78,0.26
			C64.9,69.62,64.73,69.42,64.77,69.16z"/>
		<path class="st1" d="M76.58,11.93c-0.68,0.14-1.37,0.27-2.05,0.41c-0.25,0.05-0.4,0-0.59-0.19c-0.73-0.74-1.52-1.43-2.28-2.15
			c-0.12-0.11-0.31-0.19-0.32-0.37c1.76,0.7,3.52,1.41,5.28,2.11C76.98,11.89,76.61,11.87,76.58,11.93z"/>
		<path class="st1" d="M37.75,9.73c-0.7,0.67-1.44,1.32-2.07,2.03c-0.49,0.54-1,0.7-1.74,0.45c-0.4-0.14-0.85-0.17-1.27-0.27
			c-0.15-0.03-0.37-0.01-0.38-0.22c0.19,0.1,0.35,0,0.52-0.06c1.56-0.62,3.13-1.25,4.69-1.87C37.58,9.75,37.65,9.68,37.75,9.73z"/>
		<path class="st1" d="M28.05,51.99c-0.69,0.01-1.34,0.25-2.02,0.31c-0.21,0.02-0.37-0.08-0.46-0.23c-0.09-0.15,0.08-0.22,0.2-0.27
			c1.36-0.62,2.72-1.24,4.09-1.86c0.02-0.01,0.05,0.01,0.14,0.02c-0.52,0.61-1.03,1.21-1.55,1.81
			C28.35,51.89,28.2,51.94,28.05,51.99c0.01-0.07,0.02-0.13-0.06-0.17c-0.01,0-0.03,0.01-0.03,0.02
			C27.95,51.9,27.97,51.96,28.05,51.99z"/>
		<path class="st1" d="M43.22,68.68c0.36,0.12,0.45,0.45,0.64,0.68c0.19,0.22,0.24,0.16,0.37-0.01c0.51-0.64,1.03-1.28,1.58-1.97
			c1.7,1.56,3.38,3.12,5.07,4.67c-0.19,0.05-0.33,0-0.46-0.13c-0.85-0.87-1.81-1.65-2.71-2.49c-0.35-0.33-0.7-0.51-1.16-0.56
			c-0.46-0.05-0.9-0.03-1.38,0.12c-0.39,0.12-0.69,0.17-0.83,0.55c-0.07,0.18-0.72,0.09-0.79-0.15
			C43.48,69.14,43.2,68.96,43.22,68.68z"/>
		<path class="st1" d="M37.09,64.38c-0.49-0.19-0.74-0.64-1.27-0.8c-0.27-0.08-0.52-0.16-0.81-0.16c-0.74,0-1.47-0.02-2.21-0.01
			c-0.29,0-0.55-0.06-0.81-0.17c-0.04-0.02-0.09-0.03-0.13-0.04c0.34-0.43-0.3-0.15-0.3-0.37c0.18-0.09,0.42-0.09,0.66-0.1
			c1.16-0.03,2.32-0.05,3.48-0.08c0.13,0,0.26-0.02,0.33,0.09C36.38,63.29,36.83,63.79,37.09,64.38
			C37.09,64.37,37.09,64.38,37.09,64.38z"/>
		<path class="st1" d="M54.78,74.01c0.29-0.88,0.79-1.69,1.18-2.54c0.2-0.42,0.35-0.87,0.67-1.3c0.47,0.7,0.97,1.34,1.37,2.04
			c-0.88-0.29-1.38-0.04-2.12,0.46C55.31,73.05,55.27,73.64,54.78,74.01z"/>
		<path class="st1" d="M79.31,49.91c1.43,0.66,2.86,1.33,4.36,2.02c-0.31,0.1-0.5,0.11-0.73,0.03c-0.36-0.13-0.76-0.19-1.14-0.29
			c-0.44-0.12-0.72,0.07-0.72,0.52c-0.63-0.75-1.25-1.48-1.86-2.21C79.25,49.96,79.28,49.94,79.31,49.91z"/>
		<path class="st1" d="M40.26,64.84c0.73,0.91,1.46,1.81,2.18,2.72c0.06,0.07,0.16,0.14,0.11,0.24c-0.22-0.02-0.38-0.08-0.42-0.3
			c-0.06-0.29-0.4-0.39-0.62-0.57c-0.18-0.15-0.45-0.22-0.56-0.46c-0.05-0.11-0.17-0.08-0.28-0.06c-0.39,0.06-0.77,0.02-1.16-0.06
			c-0.15-0.03-0.33-0.09-0.24-0.22c0.3-0.43,0.43-0.94,0.89-1.29C40.19,64.83,40.23,64.84,40.26,64.84z"/>
		<path class="st1" d="M51.2,72.2c0.39-0.7,0.91-1.34,1.4-2.07c0.57,1.19,1.1,2.31,1.63,3.44c-0.24-0.08-0.33-0.26-0.39-0.45
			c-0.12-0.39-0.37-0.74-0.74-0.98c-0.36-0.23-0.83-0.09-1.24-0.06C51.63,72.08,51.42,72.15,51.2,72.2z"/>
		<path class="st1" d="M27.85,37.54c-0.5,0.38-0.99,0.76-1.49,1.15c0.05-0.35-0.18-0.55-0.52-0.67c-0.46-0.17-0.85-0.4-0.97-0.84
			c-0.03-0.12-0.21-0.11-0.28-0.26C25.71,37.08,26.81,37.19,27.85,37.54z"/>
		<path class="st1" d="M82.45,41.49c0.21-0.17,0.42,0,0.61,0.02c1,0.11,1.99,0.26,2.99,0.39c-0.46,0.11-0.98,0.02-1.41,0.24
			c-0.36,0.18-0.8,0.27-1.06,0.6c-0.35,0.44-0.36,0.44-0.75,0.03c-0.09-0.38-0.19-0.76-0.28-1.14
			C82.52,41.58,82.48,41.54,82.45,41.49z"/>
		<path class="st1" d="M81.3,17.51c-0.32-0.17-0.87-0.09-0.97-0.42c-0.08-0.27,0.13-0.61,0.21-0.92c0.16-0.64,0.51-1.27,0.43-1.94
			c-0.22-1.93-0.37-3.87-1.09-5.74c-0.23-0.6-0.35-1.24-0.51-1.86c0.09-0.02,0.19,0.02,0.19,0.08c0.02,0.48,0.35,0.89,0.44,1.35
			c0.07,0.38,0.14,0.76,0.28,1.12c0.34,0.88,0.46,1.77,0.56,2.69c0.06,0.53,0.1,1.08,0.24,1.61c0.26,0.99-0.13,1.92-0.37,2.85
			c-0.15,0.58-0.15,0.68,0.48,0.96C81.23,17.31,81.57,17.32,81.3,17.51z"/>
		<path class="st1" d="M82.64,38.53c-0.47-0.27-0.8-0.69-1.3-0.94c0,0,0,0.01,0,0.01c0,0,0.02-0.03,0.02-0.03s-0.02-0.03-0.02-0.03
			c0.01-0.02,0.03-0.06,0.04-0.06c1.02-0.12,1.99-0.4,3-0.6C84.26,37.34,83.21,38.31,82.64,38.53z"/>
		<path class="st1" d="M79.45,56.65c-0.12-0.44-0.23-0.85-0.35-1.26c-0.02-0.08-0.04-0.18,0.09-0.19c0.86-0.07,1.72-0.21,2.61-0.15
			c-0.26,0.53-0.88,0.56-1.32,0.81C80.12,56.07,79.83,56.36,79.45,56.65z"/>
		<path class="st1" d="M77.94,60.6c-0.27-0.56-0.53-1.13-0.8-1.69c-0.1-0.2-0.02-0.26,0.22-0.22c0.57,0.09,1.14,0.18,1.72,0.27
			c0.18,0.03,0.25,0.07,0.11,0.23c-0.15,0.16-0.32,0.28-0.51,0.4C78.28,59.84,78.07,60.19,77.94,60.6z"/>
		<path class="st1" d="M81.54,34.25c0.77,0,1.53,0,2.3,0c0.2,0,0.38,0.02,0.46,0.21c0.07,0.16,0,0.27-0.15,0.38
			c-0.3,0.22-0.08,0.34,0.15,0.43c0.08,0.03,0.2,0.05,0.17,0.15c-0.03,0.1-0.14,0.09-0.23,0.05c-0.91-0.37-1.82-0.75-2.73-1.13
			C81.52,34.31,81.53,34.28,81.54,34.25z"/>
		<path class="st1" d="M32.15,58.64c-0.18,0.59-0.49,1.14-0.77,1.69c-0.07-0.47-0.57-0.64-0.91-0.92c-0.11-0.1-0.35-0.15-0.29-0.33
			c0.06-0.16,0.29-0.15,0.44-0.18C31.13,58.79,31.64,58.72,32.15,58.64z"/>
		<path class="st1" d="M29.57,26.1c-0.08-0.01-0.3-0.04-0.52-0.03c-0.48,0.02-0.52-0.34-0.71-0.56c-0.09-0.1,0.01-0.2,0.16-0.23
			c0.2-0.04,0.41-0.06,0.6,0.03c0.44,0.2,0.9,0.37,1.4,0.44c0.07,0.01,0.15,0.04,0.15,0.13c0,0.11-0.07,0.16-0.19,0.19
			C30.21,26.12,29.96,26.08,29.57,26.1z"/>
		<path class="st1" d="M27.62,55.1c0.76,0.07,1.51-0.01,2.25,0.08c0.22,0.03,0.26,0.1,0.19,0.26c-0.03,0.07-0.04,0.16-0.06,0.23
			c-0.1,0.41-0.24,0.48-0.66,0.28C28.76,55.69,28.19,55.39,27.62,55.1z"/>
		<path class="st1" d="M78.4,26.03c0.65-0.28,1.18-0.56,1.76-0.75c0.18-0.06,0.38-0.11,0.52,0.04c0.15,0.16,0.22,0.36,0.13,0.56
			c-0.07,0.17-0.28,0.2-0.47,0.21C79.74,26.11,79.13,26.13,78.4,26.03z"/>
		<path class="st1" d="M25.59,35.2c-0.01-0.28,0.2-0.49-0.05-0.75c-0.15-0.15,0.15-0.18,0.28-0.19c0.6-0.02,1.2-0.05,1.87,0.03
			c-0.34,0.23-0.65,0.4-1.03,0.5C26.31,34.88,25.98,35.04,25.59,35.2z"/>
		<path class="st1" d="M23.7,41.83c0.97-0.13,1.95-0.27,2.92-0.4c0.01,0.04,0.02,0.09,0.03,0.13c-0.16,0.61-0.32,1.23-0.48,1.84
			c-0.11-0.37,0.11-0.78-0.17-1.13c-0.01-0.02,0.05-0.1,0.1-0.12c0.21-0.07,0.23-0.24,0.17-0.36c-0.05-0.12-0.27-0.08-0.37-0.05
			C25.18,41.95,24.43,41.78,23.7,41.83z"/>
		<path class="st1" d="M27.91,31.63c-0.07-0.21,0.15-0.5-0.11-0.62c-0.24-0.11-0.32,0.24-0.54,0.3c-0.11,0.03-0.21,0.12-0.32,0.17
			c-0.13,0.05-0.25,0.28-0.37,0.14c-0.11-0.13-0.07-0.4,0.13-0.49c0.32-0.16,0.68-0.27,1.03-0.38c0.16-0.05,0.22,0.06,0.22,0.18
			C27.97,31.16,28,31.4,27.91,31.63z"/>
		<path class="st1" d="M82.55,31.61c-0.53-0.1-0.77-0.56-1.26-0.72c-0.03-0.01-0.06-0.07-0.05-0.1c0.01-0.06,0.09-0.08,0.15-0.06
			c0.32,0.09,0.67,0.15,0.96,0.29C82.58,31.14,82.4,31.43,82.55,31.61L82.55,31.61z"/>
		<path class="st1" d="M28.62,18.1c0.06,0.04,0.13,0.07,0.19,0.12c0.22,0.17,0.75,0.2,0.68,0.43c-0.08,0.28-0.43,0.52-0.78,0.67
			c-0.01-0.09,0-0.18,0.07-0.26c0.27-0.29,0.39-0.57-0.13-0.78C28.59,18.26,28.59,18.17,28.62,18.1z"/>
		<path class="st1" d="M80.96,27.95c0.15,0.02,0.21,0.09,0.13,0.16c-0.18,0.15,0.25,0.45-0.13,0.47c-0.16,0.01-0.5-0.19-0.49-0.38
			C80.46,28.03,80.82,28.06,80.96,27.95z"/>
		<path class="st1" d="M80.34,19.23c-0.22-0.08-0.33-0.26-0.48-0.41c-0.28-0.27-0.24-0.33,0.23-0.41
			C80.1,18.7,80.42,18.92,80.34,19.23z"/>
		<path class="st1" d="M42.56,67.8c0.32,0.24,0.57,0.52,0.67,0.88C42.87,68.46,42.56,68.21,42.56,67.8z"/>
		<path class="st1" d="M28.61,16.09c0.08,0.3,0.14,0.6,0.23,0.89c0.04,0.14,0.05,0.23-0.15,0.26
			C28.76,16.86,28.52,16.49,28.61,16.09z"/>
		<path class="st1" d="M54.22,73.56c0.1,0.19,0.19,0.38,0.29,0.56C54.22,74.01,54.2,73.79,54.22,73.56z"/>
		<path class="st1" d="M82.56,31.61c0.12,0,0.25,0,0.27,0.14c0,0.03-0.05,0.08-0.06,0.08C82.64,31.8,82.57,31.73,82.56,31.61
			C82.55,31.61,82.56,31.61,82.56,31.61z"/>
		<path class="st1" d="M37.37,64.69c-0.26,0-0.25-0.17-0.29-0.31c0,0,0,0,0,0C37.25,64.44,37.26,64.59,37.37,64.69L37.37,64.69z"/>
		<path class="st1" d="M37.56,64.99c0.04,0.05,0.07,0.09,0.09,0.13c0.01,0.01-0.02,0.04-0.03,0.05c-0.04-0.04-0.08-0.07-0.11-0.11
			C37.51,65.05,37.53,65.02,37.56,64.99z"/>
		<path class="st1" d="M80.1,18.41c-0.01-0.11,0.1-0.12,0.17-0.16c0.06,0.03,0.1,0.06,0.06,0.12C80.27,18.44,80.19,18.47,80.1,18.41
			z"/>
		<path class="st1" d="M51.03,72.19c0.06,0,0.12,0,0.18,0c-0.02,0.05-0.03,0.12-0.11,0.1C51.06,72.28,51.05,72.23,51.03,72.19z"/>
		<path class="st1" d="M70.79,66.29c-0.03,0.04-0.07,0.07-0.1,0.11c-0.01-0.02-0.03-0.03-0.04-0.05
			C70.69,66.33,70.74,66.31,70.79,66.29C70.78,66.29,70.79,66.29,70.79,66.29z"/>
		<path class="st1" d="M70.04,66.37c0.01,0.02,0.02,0.04,0.03,0.06C70.06,66.41,70.05,66.39,70.04,66.37
			C70.04,66.37,70.04,66.37,70.04,66.37z"/>
		<path class="st1" d="M37.37,64.69c0,0.02,0.01,0.04,0.01,0.06C37.38,64.73,37.38,64.71,37.37,64.69
			C37.37,64.69,37.37,64.69,37.37,64.69z"/>
		<path class="st1" d="M37.85,9.59c0.05,0.08,0.01,0.12-0.09,0.12C37.74,9.65,37.8,9.62,37.85,9.59z"/>
		<path class="st1" d="M71.36,9.64c-0.03,0-0.06-0.01-0.09-0.01C71.3,9.6,71.33,9.59,71.36,9.64z"/>
		<path class="st0" d="M81.35,37.54c0,0,0.02,0.03,0.02,0.03s-0.02,0.03-0.02,0.03c-0.01-0.01-0.02-0.03-0.03-0.05
			C81.32,37.56,81.34,37.55,81.35,37.54z"/>
		<path class="st1" d="M79.32,6.57C79.32,6.57,79.33,6.56,79.32,6.57C79.33,6.56,79.32,6.57,79.32,6.57z"/>
		<path class="st0" d="M27.01,41.44C27.01,41.44,27.02,41.44,27.01,41.44C27.02,41.44,27.01,41.44,27.01,41.44z"/>
		<path class="st1" d="M70.04,66.37c-0.03-0.03-0.06-0.05-0.1-0.08c0,0,0.01-0.01,0.01-0.01C69.98,66.32,70.01,66.35,70.04,66.37
			C70.04,66.37,70.04,66.37,70.04,66.37z"/>
		<path class="st1" d="M51.99,53.3c-0.68-0.78-1.33-1.58-2.04-2.34c-0.28-0.3-0.38-0.62-0.42-0.98c-0.06-0.68-0.12-1.35-0.19-2.03
			c-0.02-0.16,0.03-0.27,0.16-0.39c0.52-0.49,1.04-1,1.54-1.51c0.16-0.17,0.34-0.23,0.6-0.24c1.91-0.07,3.82-0.09,5.73-0.01
			c0.38,0.02,0.65,0.1,0.88,0.34c0.47,0.48,0.96,0.95,1.45,1.41c0.13,0.12,0.17,0.24,0.15,0.39c-0.09,0.8-0.17,1.61-0.25,2.41
			c-0.01,0.14-0.06,0.25-0.17,0.36c-0.75,0.8-1.39,1.66-2.19,2.43c-0.03,0.02-0.01,0.08-0.02,0.12c0,0,0-0.01,0-0.01
			c-0.02,0.02-0.04,0.04-0.07,0.06c-0.74,0.25-1.54,0.35-2.39,0.56c1.31,0.16,2.54,0.31,3.76,0.46c0.71,0.24,1.43,0.47,2.21,0.73
			c-0.43,0.15-0.81,0.28-1.19,0.41c-0.48,0.17-0.99,0.28-1.46,0.48c-0.37,0.16-0.76,0.21-1.18,0.19c-1.64-0.09-3.29-0.05-4.93,0
			c-0.14,0-0.29,0.01-0.42-0.03c-1.02-0.33-2.03-0.68-3.06-1.02c0.65-0.43,1.48-0.45,2.15-0.78c1.22-0.15,2.44-0.29,3.76-0.45
			C53.55,53.66,52.73,53.59,51.99,53.3z"/>
		<path class="st1" d="M68.34,30.11c-0.46,0.73-0.98,1.39-1.62,1.97c-0.59,0.54-1.34,0.75-2.18,0.8c-0.21,0.01-0.4,0.04-0.58,0.12
			c-0.96,0.43-1.99,0.75-2.92,1.3c-0.2-0.88-0.41-1.74-0.6-2.6c-0.04-0.18,0-0.35,0.31-0.31c0.06,0.01,0.13-0.02,0.19-0.01
			c0.83,0.14,1.25-0.18,1.53-0.84c0.55-1.31,1.3-1.43,2.74-1.34C66.33,29.29,67.35,29.67,68.34,30.11z M63.41,30.98
			c0.17,0.53,0.68,0.87,1.28,0.86c0.61-0.01,1.11-0.37,1.2-0.87c0.13-0.36,0.04-0.68-0.24-0.97c-0.4-0.4-0.94-0.5-1.52-0.3
			C63.55,29.91,63.32,30.3,63.41,30.98z"/>
		<path class="st1" d="M48.19,34.24c-0.64-0.27-1.25-0.52-1.85-0.77c-0.67-0.27-1.31-0.58-2.09-0.63c-0.9-0.07-1.59-0.49-2.14-1.1
			c-0.4-0.45-0.79-0.92-1.13-1.41c-0.11-0.16-0.11-0.24,0.11-0.32c1.02-0.41,2.06-0.77,3.21-0.81c1.09-0.03,2,0.22,2.34,1.2
			c0.27,0.78,0.8,1.16,1.78,1.01c0.24-0.04,0.35,0.01,0.29,0.28C48.52,32.52,48.36,33.37,48.19,34.24z M43.25,30.97
			c0.25,0.56,0.71,0.87,1.28,0.87c0.59,0,1.04-0.3,1.28-0.84c0-0.09,0.01-0.19,0.01-0.28c0.02-0.52-0.28-0.89-0.87-1.06
			c-0.54-0.16-1.13,0-1.46,0.39C43.25,30.33,43.24,30.65,43.25,30.97z"/>
		<path class="st2" d="M64.11,56.23c-0.46,0.01-0.82-0.24-1.23-0.37c-0.6-0.18-1.18-0.42-1.76-0.65c-0.15-0.06-0.39-0.13-0.1-0.29
			c0.75-0.44,1.43-0.94,2.23-1.32c0.34-0.16,0.52-0.13,0.61,0.24c0.17,0.69,0.47,1.36,0.58,2.07C64.5,56.22,64.41,56.25,64.11,56.23
			z"/>
		<path class="st2" d="M44.89,56.24c-0.18,0-0.3-0.04-0.25-0.21c0.13-0.45,0.22-0.91,0.41-1.34c0.13-0.3,0.1-0.6,0.16-0.9
			c0.04-0.17,0.07-0.37,0.29-0.42c0.21-0.05,0.34,0.09,0.5,0.23c0.44,0.39,0.92,0.75,1.48,1.02c0.14,0.07,0.26,0.15,0.37,0.24
			c0.14,0.13,0.14,0.22-0.06,0.31c-0.9,0.39-1.88,0.62-2.76,1.04C44.98,56.23,44.93,56.23,44.89,56.24z"/>
		<path class="st2" d="M43.97,49.1c0.48,1.12,0.78,2.29,1.2,3.42c0.02,0.07,0.08,0.17-0.06,0.2c-0.13,0.02-0.17-0.09-0.23-0.17
			c-0.68-0.88-1.35-1.75-2.02-2.63c-0.23-0.3-0.44-0.61-0.66-0.91C42.79,49.01,43.38,49.03,43.97,49.1z"/>
		<path class="st2" d="M67.02,48.99c-0.88,1.16-1.76,2.32-2.63,3.48c-0.06,0.08-0.11,0.19-0.24,0.15c-0.19-0.05-0.08-0.18-0.05-0.27
			c0.37-1.09,0.75-2.18,1.13-3.27C65.82,49.05,66.42,49.02,67.02,48.99z"/>
		<path class="st2" d="M40.82,34.73c0.58,1.17,1.16,2.34,1.78,3.61c-0.66-0.17-1.24-0.27-1.77-0.47c-0.35-0.13-0.27-0.55-0.24-0.75
			c0.12-0.73,0.01-1.46,0.08-2.19c0.01-0.06,0.03-0.12,0.04-0.19C40.75,34.74,40.78,34.74,40.82,34.73z"/>
		<path class="st2" d="M58.54,54.34c-1.22-0.15-2.44-0.3-3.76-0.46c0.85-0.21,1.65-0.3,2.39-0.56c0.02-0.02,0.04-0.04,0.07-0.06
			c0,0,0,0.01,0,0.01c0.59-0.12,1.18-0.24,1.77-0.36c0.2-0.04,0.33-0.03,0.22,0.18C59,53.51,58.77,53.93,58.54,54.34z"/>
		<path class="st2" d="M51.99,53.3c0.74,0.3,1.55,0.37,2.43,0.59c-1.31,0.16-2.54,0.3-3.76,0.45c-0.33-0.36-0.44-0.81-0.66-1.22
			c-0.13-0.24,0.07-0.23,0.26-0.19C50.84,53.05,51.42,53.17,51.99,53.3z"/>
		<path class="st1" d="M67.02,48.99c-0.6,0.03-1.19,0.06-1.79,0.09c0.46-0.47,0.92-0.94,1.43-1.47
			C66.79,48.11,66.9,48.55,67.02,48.99z"/>
		<path class="st1" d="M43.97,49.1c-0.59-0.07-1.18-0.09-1.78-0.09c0.11-0.45,0.22-0.89,0.35-1.4
			C43.05,48.14,43.51,48.62,43.97,49.1z"/>
		<path class="st2" d="M58.02,38.62c0.01,0.01,0.02,0.01,0.02,0.02c0,0.01,0,0.02-0.01,0.03c-0.01-0.01-0.02-0.01-0.02-0.02
			C58.01,38.65,58.02,38.64,58.02,38.62z"/>
		<path class="st2" d="M28.05,51.99c-0.08-0.03-0.1-0.09-0.1-0.16c0-0.01,0.03-0.02,0.03-0.02C28.07,51.85,28.06,51.92,28.05,51.99
			C28.06,51.98,28.05,51.99,28.05,51.99z"/>
		<path class="st0" d="M57.24,53.26c-0.02,0.02-0.04,0.04-0.07,0.06C57.2,53.31,57.22,53.29,57.24,53.26z"/>
		<path class="st0" d="M65.9,30.97c-0.1,0.5-0.59,0.86-1.2,0.87c-0.6,0.01-1.12-0.33-1.28-0.86c0.18-0.22,0.28-0.5,0.65-0.56
			c-0.01,0.26,0.12,0.44,0.44,0.38c0.32-0.06,0.35-0.27,0.23-0.5C65.32,30.27,65.65,30.56,65.9,30.97z"/>
		<path class="st2" d="M65.9,30.97c-0.25-0.4-0.58-0.7-1.16-0.68c-0.29-0.22-0.53-0.21-0.67,0.13c-0.37,0.06-0.47,0.34-0.65,0.56
			c-0.09-0.68,0.14-1.07,0.73-1.28c0.58-0.2,1.13-0.1,1.52,0.3C65.94,30.28,66.03,30.61,65.9,30.97z"/>
		<path class="st0" d="M45.81,31c-0.24,0.54-0.69,0.83-1.28,0.84c-0.57,0-1.03-0.31-1.28-0.87c0.3-0.36,0.62-0.69,1.19-0.71
			c-0.05,0.21-0.1,0.43,0.2,0.53c0.24,0.08,0.41-0.02,0.5-0.22c0.09-0.16,0.21-0.11,0.31-0.01C45.57,30.7,45.69,30.85,45.81,31z"/>
		<path class="st2" d="M45.81,31c-0.12-0.15-0.23-0.3-0.36-0.44c-0.1-0.1-0.21-0.15-0.31,0.01c-0.08-0.44-0.2-0.5-0.69-0.31
			c-0.58,0.02-0.9,0.35-1.19,0.71c-0.01-0.32,0-0.64,0.23-0.91c0.33-0.39,0.92-0.55,1.46-0.39c0.59,0.17,0.89,0.54,0.87,1.06
			C45.81,30.81,45.81,30.9,45.81,31z"/>
		<path class="st1" d="M64.06,30.42c0.15-0.34,0.38-0.35,0.67-0.13c0.11,0.23,0.08,0.45-0.23,0.5
			C64.18,30.85,64.05,30.67,64.06,30.42z"/>
		<path class="st1" d="M44.44,30.26c0.49-0.19,0.62-0.13,0.69,0.31c-0.09,0.2-0.26,0.3-0.5,0.22
			C44.34,30.68,44.39,30.47,44.44,30.26z"/>
	</g>
	<g>
		<g>
			<path class="st3" d="M107.07,58.33c-1.5,0.77-3.03,1.16-4.61,1.16c-0.07,0-0.13,0-0.2,0s-0.14,0-0.2,0
				c-1.48-0.06-2.94-0.48-4.37-1.27c-1.43-0.79-2.71-1.91-3.83-3.36c-1.17-1.54-2.05-3.28-2.65-5.22c-0.6-1.94-0.89-3.92-0.89-5.96
				c0-2.01,0.3-3.98,0.89-5.92c0.6-1.94,1.48-3.66,2.65-5.17c1.19-1.54,2.54-2.7,4.03-3.47c1.5-0.77,3.03-1.16,4.61-1.16
				c0.07,0,0.14,0,0.2,0s0.14,0,0.2,0c1.48,0.06,2.94,0.48,4.37,1.27c1.43,0.79,2.7,1.91,3.83,3.36l-8.64,11.13l8.64,11.13
				C109.91,56.4,108.57,57.56,107.07,58.33z"/>
			<path class="st3" d="M113.47,59.48l14.04-31.52l14.07,31.52H113.47z"/>
			<path class="st3" d="M160.42,58.33c-1.5,0.77-3.03,1.16-4.61,1.16c-0.07,0-0.13,0-0.2,0s-0.14,0-0.2,0
				c-1.48-0.06-2.94-0.48-4.37-1.27c-1.43-0.79-2.71-1.91-3.83-3.36c-1.17-1.54-2.05-3.28-2.65-5.22c-0.6-1.94-0.89-3.92-0.89-5.96
				c0-2.01,0.3-3.98,0.89-5.92c0.6-1.94,1.48-3.66,2.65-5.17c1.19-1.54,2.54-2.7,4.03-3.47c1.5-0.77,3.03-1.16,4.61-1.16
				c0.07,0,0.14,0,0.2,0s0.14,0,0.2,0c1.48,0.06,2.94,0.48,4.37,1.27c1.43,0.79,2.7,1.91,3.83,3.36l-8.64,11.13l8.64,11.13
				C163.26,56.4,161.92,57.56,160.42,58.33z"/>
			<path class="st3" d="M177.68,50.66l-11.07,8.82V27.96l11.07,8.82l11.07-8.82v31.52L177.68,50.66z"/>
			<path class="st3" d="M191.21,59.48l14.04-31.52l14.07,31.52H191.21z"/>
			<path class="st3" d="M221.31,59.44V27.92H234c3.08,0,5.39,1.23,6.92,3.69c1.53,2.46,2.29,5.19,2.29,8.19c0,0.03,0,0.05,0,0.07
				s0,0.04,0,0.07c-0.05,2.97-0.83,5.7-2.36,8.19c-1.53,2.49-3.8,3.75-6.82,3.78l8.47,7.55H221.31z"/>
			<path class="st3" d="M245.4,59.44V27.92h12.69c3.08,0,5.39,1.23,6.92,3.69c1.53,2.46,2.29,5.19,2.29,8.19c0,0.03,0,0.05,0,0.07
				s0,0.04,0,0.07c-0.04,2.97-0.83,5.7-2.36,8.19c-1.53,2.49-3.8,3.75-6.82,3.78l8.47,7.55H245.4z"/>
			<path class="st3" d="M269.59,59.48V27.96h25.75l-10.43,11l7.86,5.2l-7.22,4.93l9.79,10.39H269.59z"/>
			<path class="st3" d="M297.7,59.44V27.92h12.69c3.08,0,5.39,1.23,6.92,3.69c1.53,2.46,2.29,5.19,2.29,8.19c0,0.03,0,0.05,0,0.07
				s0,0.04,0,0.07c-0.04,2.97-0.83,5.7-2.36,8.19c-1.53,2.49-3.8,3.75-6.82,3.78l8.47,7.55H297.7z"/>
			<path class="st3" d="M338.82,58.28c-1.5,0.77-3.03,1.16-4.61,1.16c-0.07,0-0.13,0-0.2,0s-0.14,0-0.2,0
				c-1.48-0.06-2.94-0.48-4.37-1.27c-1.43-0.79-2.71-1.91-3.83-3.36c-1.17-1.54-2.05-3.28-2.65-5.22c-0.6-1.94-0.89-3.92-0.89-5.96
				c0-0.09,0-0.17,0-0.26s0-0.17,0-0.26c0.04-1.92,0.37-3.81,0.96-5.65c0.6-1.85,1.46-3.5,2.58-4.96c1.19-1.54,2.54-2.69,4.03-3.45
				c1.5-0.76,3.03-1.14,4.61-1.14c0.07,0,0.13,0,0.2,0s0.13,0,0.2,0c1.48,0.06,2.94,0.47,4.37,1.24c1.43,0.77,2.7,1.88,3.83,3.34
				c1.19,1.54,2.09,3.28,2.68,5.22c0.6,1.94,0.89,3.92,0.89,5.96c0,0.09,0,0.17,0,0.26c0,0.09,0,0.17,0,0.26
				c-0.04,1.92-0.37,3.81-0.98,5.65c-0.61,1.85-1.47,3.5-2.6,4.96C341.66,56.35,340.31,57.51,338.82,58.28z"/>
		</g>
	</g>
</g>
</svg>
