<?xml version="1.0" encoding="utf-8"?>
<!-- Generator: Adobe Illustrator 26.0.1, SVG Export Plug-In . SVG Version: 6.00 Build 0)  -->
<svg version="1.1" id="Capa_1" xmlns="http://www.w3.org/2000/svg" xmlns:xlink="http://www.w3.org/1999/xlink" x="0px" y="0px"
	 viewBox="0 0 350 75" style="enable-background:new 0 0 350 75;" xml:space="preserve">
<style type="text/css">
	.st0{fill:#0687B8;}
	.st1{fill:#0767A6;}
	.st2{fill:#E6B50C;}
	.st3{fill:#CF9917;}
	.st4{fill:#0AB0CD;}
	.st5{fill:#EB75AB;}
	.st6{fill:#D93B8B;}
	.st7{fill:#AA1D64;}
	.st8{fill:#21AFE6;}
	.st9{fill:#F5D403;}
	.st10{fill:#862150;}
	.st11{fill:#146032;}
	.st12{fill:#1C9444;}
	.st13{fill:#7CCDF3;}
	.st14{fill:#CD1675;}
	.st15{fill:#312783;}
</style>
<g>
	<path class="st0" d="M91.78,38.78c0.09,0.36-0.22,0.35-0.4,0.4c-5.54,1.47-11.09,2.93-16.64,4.39c-0.14,0.04-0.3,0.02-0.46,0.03
		c0.46-1.29,0.93-2.58,1.37-3.88c0.97-2.85,2.23-5.6,3.04-8.51c0.02-0.05,0.05-0.11,0.07-0.16c-0.05,0.02-0.11,0.04-0.16,0.07
		c-1.28,0.42-2.34,1.28-3.54,1.85c-0.71,0.34-1.06,0.31-1.03-0.6c0.04-1.11,0.01-2.22,0.01-3.32c0-0.43,0.01-0.84-0.46-1.08
		c-2.98-1.53-5.96-3.08-8.93-4.62c-0.01-0.14-0.02-0.29-0.03-0.43c0.92-2.7,1.58-5.48,2.19-8.26c0.02-0.04,0.03-0.07,0.04-0.11
		c0.7-2.62,1.39-5.25,2.11-7.87c0.07-0.25-0.12-0.77,0.48-0.67c-0.05,0.4,0.13,0.74,0.27,1.1c2.08,5.34,4.1,10.7,6.24,16.01
		c1.03,2.54,1.82,5.18,3.13,7.61c0.1,0.11,0.19,0.25,0.31,0.33c3.12,1.99,6.22,4,9.36,5.94C89.74,37.61,90.6,38.48,91.78,38.78z"/>
	<path class="st1" d="M64.65,23.34c2.98,1.54,5.95,3.09,8.93,4.62c0.47,0.24,0.46,0.65,0.46,1.08c0,1.11,0.03,2.22-0.01,3.32
		c-0.03,0.91,0.32,0.94,1.03,0.6c1.21-0.57,2.26-1.43,3.54-1.85c0.03,0.03,0.06,0.07,0.1,0.1c-0.81,2.91-2.07,5.66-3.04,8.51
		c-0.44,1.3-0.91,2.59-1.37,3.88c-2.51-0.81-4.85-2.04-7.27-3.07c-2.94-1.25-2.94-1.29-2.85-4.48c0.06-2.18,0.15-4.36,0.22-6.54
		c0.26-1.96,0.27-3.92,0.13-5.88C64.56,23.53,64.6,23.43,64.65,23.34z"/>
	<path class="st2" d="M18.11,39.68c0-0.08-0.01-0.16-0.01-0.24c2.92-3.27,5.84-6.53,8.73-9.83c0.33-0.38,0.82-0.8,0.64-1.4
		c-0.35-1.21-0.09-2.44-0.19-3.65c-0.08-0.94,0.31-1.06,1.17-0.91c1.08,0.19,2.17,0.43,3.28,0.34c0.05,0.01,0.09,0.03,0.13,0.05
		c-0.02,0.07-0.03,0.15-0.03,0.22c-0.26,0.3-0.16,0.66-0.16,0.99c-0.02,5.96,0.08,11.92-0.24,17.88l0,0
		c-2.05-0.54-4.1-1.11-6.16-1.62C22.87,40.93,20.56,40.01,18.11,39.68z"/>
	<path class="st3" d="M31.73,24c-1.11,0.09-2.2-0.16-3.28-0.34c-0.86-0.15-1.25-0.03-1.17,0.91c0.1,1.21-0.16,2.44,0.19,3.65
		c0.17,0.6-0.31,1.02-0.64,1.4c-2.89,3.29-5.82,6.55-8.73,9.83c0.46-2.79,1.28-5.49,1.91-8.24c0.55-2.38,1.17-4.74,1.72-7.11
		c0.17-0.73,0.45-1.35,0.94-1.92c3-3.57,5.98-7.16,8.96-10.74C31.66,15.61,31.69,19.81,31.73,24z"/>
	<path class="st4" d="M79.06,30.72c-1.3-2.43-2.1-5.07-3.13-7.61C73.8,17.8,71.78,12.43,69.7,7.1c-0.14-0.36-0.31-0.7-0.27-1.1
		c3.7,2.19,7.4,4.37,11.1,6.56c0.23,0.14,0.45,0.3,0.44,0.61c-0.09,0.64-0.19,1.28-0.26,1.92c-0.27,2.41-0.52,4.83-0.78,7.24
		c-0.28,2.64-0.78,5.25-0.84,7.92C79.09,30.4,79.08,30.56,79.06,30.72z"/>
	<path class="st5" d="M41.76,9.17c4.71-1.01,9.41-2.02,14.12-3.04c0.16-0.03,0.3,0,0.4,0.15c-0.17,0.16-0.07,0.34-0.04,0.53
		c0.38,1.97,0.75,3.94,1.13,5.91c-0.06,0.01-0.12,0.02-0.18,0.04c-2.2,0.88-4.36,1.85-6.48,2.9c-2.05,0.87-4.1,1.73-6.15,2.6
		c0-1.77,0-3.53,0-5.3c0-0.49,0.01-0.89-0.68-0.94c-0.82-0.06-2,0.01-2.35-0.47C41.18,11.08,41.65,9.99,41.76,9.17z"/>
	<path class="st6" d="M41.76,9.17c-0.11,0.82-0.58,1.91-0.23,2.39c0.35,0.48,1.53,0.41,2.35,0.47c0.69,0.05,0.68,0.45,0.68,0.94
		c-0.01,1.77,0,3.53,0,5.3c-0.26,0.15-0.51,0.33-0.78,0.45c-2.96,1.32-5.92,2.63-8.88,3.94c-0.05-0.06-0.14-0.12-0.14-0.17
		c0.29-3.31,0.04-6.63,0.13-9.95c0.02-0.68-0.18-1.03-0.9-0.93c-0.74,0.09-1.43-0.15-2.15-0.27c1.97-0.62,4.01-0.91,6.02-1.35
		C39.16,9.7,40.46,9.44,41.76,9.17z"/>
	<path class="st7" d="M57.37,12.72c-0.38-1.97-0.75-3.94-1.13-5.91c-0.04-0.18-0.13-0.36,0.04-0.53c1.54,1.23,3.08,2.45,4.62,3.68
		c-0.25,0.18-0.76,0.03-0.52,0.74c0.27,0.8,0.71,1.61,0.5,2.52c-1.03,0.06-1.99-0.45-3.24-0.46c0.76,1.14,1.41,2.15,2.09,3.14
		c1.61,2.35,3.12,4.76,4.89,7c0.01,0.14,0.02,0.29,0.03,0.43c-0.04,0.09-0.08,0.19-0.12,0.28c-0.04,0.11-0.07,0.23-0.11,0.34
		c-0.07,0.01-0.14,0.03-0.2,0.06c-0.25,0.06-0.32,0.24-0.3,0.47l0.02,0c-1.1,0.58-1.74,1.63-2.55,2.5c-1.72,1.83-3.4,3.69-5.09,5.54
		c0.09-1.8,0.06-3.61,0.29-5.39c0.2-1.53,0.16-3.06,0.27-4.58C57.1,19.29,57.21,16,57.37,12.72z"/>
	<path class="st8" d="M79.06,30.69c0.01-0.16,0.03-0.32,0.04-0.48c1.29-2.04,2.23-4.27,3.36-6.4c0.7-1.31,1.34-2.66,2.01-3.98
		c0.89,1.27,1.21,2.77,1.76,4.18c1.81,4.7,3.57,9.43,5.34,14.15c0.08,0.21,0.11,0.44,0.16,0.66c-1.18-0.3-2.04-1.17-3.03-1.79
		c-3.14-1.96-6.23-3.99-9.33-6C79.24,30.94,79.16,30.8,79.06,30.69z"/>
	<path class="st9" d="M18.11,39.68c2.46,0.33,4.77,1.25,7.16,1.84c2.06,0.51,4.11,1.08,6.16,1.62c0,0.13,0,0.26,0,0.39
		c-0.34,3.49-1.02,6.93-1.52,10.39c-0.1,0.72-0.25,1.42-0.38,2.13c-2.05-2.61-3.8-5.42-5.72-8.12c-1.79-2.51-3.42-5.13-5.33-7.56
		c0,0,0.03,0.03,0.03,0.03c-0.07-0.09-0.14-0.18-0.21-0.27C18.24,39.98,18.17,39.83,18.11,39.68z"/>
	<path class="st10" d="M56.29,32.53c1.7-1.85,3.38-3.71,5.09-5.54c0.81-0.87,1.45-1.92,2.55-2.5c-1.98,4.55-4.22,8.98-6.47,13.4
		c-6.15-0.38-12.3-0.76-18.45-1.13c-0.14-0.01-0.29,0.07-0.43,0.11c0,0,0,0.03,0,0.03c0.03-0.07,0.07-0.13,0.1-0.2
		c0.25,0.06,0.46,0.01,0.59-0.24c4.5-0.84,8.92-1.99,13.36-3.05C53.85,33.13,55.07,32.83,56.29,32.53z"/>
	<path class="st11" d="M39.25,48.1c2.77-1.24,5.71-2.03,8.55-3.09c1.14-0.42,2.3-0.77,3.45-1.15c-1.76,2.27-3.95,4.15-5.77,6.37
		c-1.86,1.4-3.7,2.81-5.58,4.17c-0.59,0.43-0.4,0.63,0.04,0.98c1.33,1.08,2.63,2.2,3.94,3.31c-0.11,1.06-0.8,1.89-1.18,2.84
		c-2.5-1.76-4.8-3.78-7.14-5.74c-0.03-0.03,0-0.13,0-0.19c1.09,0.05,2.09-0.42,3.15-0.57c0.52-0.07,0.59-0.48,0.58-0.95
		C39.25,52.09,39.26,50.09,39.25,48.1z"/>
	<path class="st12" d="M45.48,50.23c1.82-2.22,4.01-4.1,5.77-6.37c0.5-0.11,0.44,0.34,0.53,0.58c1.81,4.83,3.61,9.67,5.41,14.5
		c0.04,0.1,0.01,0.22,0.01,0.33c-1.64-1.23-3.15-2.64-4.93-3.69C50.11,53.65,47.73,52.01,45.48,50.23z"/>
	<path class="st12" d="M42.5,68.55c-3.54-0.8-6.98-2.01-10.48-2.97c-0.89-0.24-1.76-0.52-2.65-0.78c-0.29-0.08-0.62-0.11-0.69-0.5
		c0.28-0.41,0.16-0.89,0.2-1.33c0.23-2.23,0.45-4.46,0.68-6.69c2.33,2.23,4.66,4.47,6.98,6.7C38.37,65.03,40.46,66.75,42.5,68.55z"
		/>
	<path class="st3" d="M29.57,56.29c-0.23,2.23-0.45,4.46-0.68,6.69c-0.05,0.45,0.07,0.92-0.2,1.33c-2.07-4.77-4.15-9.53-6.22-14.3
		c-1.22-2.81-2.42-5.62-3.62-8.44c-0.16-0.38-0.43-0.73-0.37-1.19c1.91,2.43,3.54,5.05,5.33,7.56c1.92,2.7,3.67,5.51,5.72,8.12
		C29.55,56.13,29.56,56.21,29.57,56.29z"/>
	<path class="st12" d="M57.01,59.48c-3.95,2.62-7.97,5.12-12.03,7.57c-0.57-0.36-0.86-0.9-1.08-1.53c-0.41-1.16-0.99-2.27-1.2-3.5
		c2.54-0.48,5.09-0.96,7.63-1.44C52.56,60.23,54.75,59.67,57.01,59.48z"/>
	<path class="st1" d="M57.46,37.9c2.26-4.42,4.49-8.85,6.47-13.4c0,0-0.02,0-0.02,0c0.24-0.07,0.24-0.29,0.3-0.47
		c0.06-0.03,0.13-0.05,0.2-0.06c-0.09,0.69-0.18,1.38-0.27,2.07c-0.71,3.62-1.43,7.24-2.14,10.86c-1.56,1.05-2.78,2.48-4.18,3.72
		c-0.86,0.77-1.85,1.46-2.47,2.48c-0.1-0.01-0.19-0.02-0.29-0.03C55.87,41.35,56.66,39.63,57.46,37.9z"/>
	<path class="st13" d="M84.42,19.82c-0.66,1.33-1.3,2.68-1.99,4c-1.12,2.13-2.04,4.37-3.32,6.42c0.06-2.66,0.55-5.28,0.84-7.92
		c0.26-2.41,0.51-4.83,0.78-7.24c0.07-0.64,0.17-1.28,0.26-1.92C82.24,15.32,83.53,17.47,84.42,19.82z"/>
	<path class="st14" d="M31.84,11.33c0.71,0.12,1.41,0.36,2.15,0.27c0.72-0.09,0.92,0.26,0.9,0.93c-0.1,3.32,0.15,6.64-0.13,9.95
		c0,0.05,0.09,0.11,0.14,0.17c-0.96,0.57-1.98,1.02-3.03,1.4C31.82,24.02,31.77,24,31.73,24c-0.04-4.19-0.07-8.38-0.11-12.58
		C31.69,11.39,31.77,11.36,31.84,11.33z"/>
	<path class="st12" d="M42.69,61.53c0.38-0.95,1.07-1.78,1.18-2.84c0.6,0.03,1.12-0.26,1.62-0.51c0.59-0.29,1.63-0.16,1.68-0.97
		c0.05-0.79-1.68-1.79-2.58-1.77c-0.86,0.02-1.71,0.01-2.79,0.01c1.7-0.86,3.22-1.62,4.73-2.41c0.33-0.17,0.55-0.11,0.8,0.14
		c1.11,1.05,2.24,2.09,3.37,3.13c0.3,0.28,0.48,0.46-0.03,0.74C47.99,58.51,45.45,60.21,42.69,61.53z"/>
	<path class="st11" d="M42.7,62.02c0.21,1.23,0.79,2.34,1.2,3.5c0.22,0.63,0.51,1.17,1.08,1.53c-0.81,0.53-1.56,1.15-2.48,1.5
		c-2.04-1.79-4.13-3.52-5.94-5.56C38.6,62.67,40.65,62.34,42.7,62.02z"/>
	<path class="st9" d="M38.01,42.21c1.83,1.15,3.65,2.3,5.75,3.62c-3.18,0.2-6.03,0.57-8.91,0.54c0.02-0.38,0.32-0.58,0.51-0.86
		c0.73-1.05,1.75-1.87,2.27-3.07C37.76,42.36,37.88,42.29,38.01,42.21z"/>
	<path class="st13" d="M61.4,41.77c0.21,0.58,0.69,0.86,1.18,1.16c1.48,0.9,2.95,1.82,4.71,2.91c-3.21,0.25-6.06,0.57-8.93,0.57
		c0.57-1.57,2.02-2.53,2.78-3.97C61.38,42.27,61.35,42,61.4,41.77z"/>
	<path class="st0" d="M61.4,41.77c-0.05,0.23-0.01,0.5-0.25,0.66c-1.96-0.06-3.84,0.61-5.78,0.68c0.62-1.02,1.61-1.71,2.47-2.48
		c1.39-1.24,2.62-2.67,4.18-3.72C61.95,38.54,61.69,40.16,61.4,41.77z"/>
	<path class="st3" d="M38.01,42.21c-0.13,0.07-0.25,0.15-0.38,0.22c-1.1-0.07-2.17,0.24-3.25,0.35c-0.82,0.08-1.64,0.54-2.49,0.13
		c2.23-2,4.46-4,6.69-6c0,0,0-0.03,0-0.03C38.39,38.66,38.2,40.43,38.01,42.21z"/>
	<path class="st11" d="M57.01,59.48c-2.25,0.2-4.45,0.75-6.68,1.11c0.64-1.67,1.28-3.34,1.93-5c1.78,1.05,3.29,2.46,4.93,3.69
		C57.22,59.43,57.13,59.46,57.01,59.48z"/>
	<path class="st12" d="M39.25,48.1c0.01,1.99,0,3.98,0.03,5.98c0.01,0.47-0.06,0.88-0.58,0.95c-1.06,0.15-2.06,0.62-3.15,0.57
		C36.66,53.04,37.92,50.55,39.25,48.1z"/>
	<path class="st2" d="M31.89,42.91c0.85,0.41,1.67-0.05,2.49-0.13c1.08-0.1,2.15-0.41,3.25-0.35c-0.52,1.2-1.54,2.03-2.27,3.07
		c-0.19,0.28-0.49,0.48-0.51,0.86c-1.04-0.4-1.53-1.43-2.35-2.08c-0.34-0.27-0.5-0.8-1.07-0.76c0-0.13,0-0.26,0-0.39c0,0,0,0,0,0
		C31.58,43.06,31.74,42.99,31.89,42.91z"/>
	<path class="st14" d="M60.88,13.22c0.2-0.91-0.24-1.73-0.5-2.52c-0.24-0.72,0.27-0.56,0.52-0.74c1.98,1.53,3.96,3.05,5.94,4.58
		c-0.01,0.04-0.02,0.08-0.04,0.11C64.83,14.16,62.81,13.87,60.88,13.22z"/>
	<path class="st8" d="M55.36,43.11c1.95-0.07,3.82-0.74,5.78-0.68c-0.76,1.44-2.21,2.4-2.78,3.97c-1.38-0.83-2.48-1.94-3.29-3.32
		C55.17,43.09,55.27,43.1,55.36,43.11z"/>
	<path class="st13" d="M64.15,26.04c0.09-0.69,0.18-1.38,0.27-2.07c0.04-0.12,0.07-0.23,0.11-0.34c0.14,1.97,0.14,3.93-0.13,5.88
		C64.15,28.36,64.73,27.16,64.15,26.04z"/>
	<path class="st3" d="M18.31,40.13c0.07,0.09,0.14,0.18,0.21,0.27C18.32,40.41,18.32,40.27,18.31,40.13z"/>
	<path class="st10" d="M60.88,13.22c1.93,0.65,3.95,0.94,5.92,1.42c-0.61,2.79-1.27,5.56-2.19,8.26c-1.77-2.24-3.28-4.65-4.89-7
		c-0.68-0.99-1.33-2-2.09-3.14C58.9,12.77,59.85,13.28,60.88,13.22z"/>
	<path class="st1" d="M78.6,31.11c0.05-0.02,0.11-0.04,0.16-0.07c-0.02,0.05-0.05,0.11-0.07,0.16
		C78.66,31.17,78.63,31.14,78.6,31.11z"/>
	<path class="st7" d="M31.86,24.05c1.05-0.38,2.07-0.83,3.03-1.4c2.96-1.31,5.92-2.62,8.88-3.94c0.27-0.12,0.52-0.3,0.78-0.45
		c2.05-0.87,4.1-1.73,6.15-2.6c0.41,1.27,0.82,2.54,1.23,3.81c0.02,0.05,0.02,0.11,0.02,0.17c-1.86,2.35-3.72,4.69-5.56,7.05
		c-2.41,3.08-4.81,6.18-7.22,9.27c-0.18,0.23-0.41,0.42,0.09,0.51c-0.13,0.25-0.34,0.3-0.59,0.24c-0.21-0.36-0.44-0.72-0.64-1.08
		c-2.07-3.79-4.14-7.57-6.21-11.36C31.83,24.2,31.84,24.12,31.86,24.05z"/>
	<path class="st9" d="M31.83,24.27c2.07,3.79,4.14,7.57,6.21,11.36c0.2,0.37,0.43,0.72,0.64,1.08c-0.03,0.07-0.07,0.13-0.1,0.2
		c-2.23,2-4.46,4-6.69,6c-0.16,0.08-0.31,0.15-0.47,0.23c0.32-5.96,0.22-11.92,0.24-17.88C31.67,24.93,31.57,24.57,31.83,24.27z"/>
	<path class="st6" d="M51.96,19.64c0.01-0.06,0-0.11-0.02-0.17c1.75-2.24,3.5-4.48,5.25-6.72c0.06-0.02,0.12-0.03,0.18-0.04
		c-0.16,3.28-0.27,6.57-0.52,9.85c-0.12,1.53-0.08,3.05-0.27,4.58c-0.23,1.78-0.2,3.59-0.29,5.39c-1.22,0.3-2.44,0.59-3.66,0.89
		c-0.12-0.51,0.21-0.96,0.21-1.46c0-3.75,0.01-7.5,0-11.25C52.84,20.15,52.7,19.63,51.96,19.64z"/>
	<path class="st10" d="M57.19,12.76c-1.75,2.24-3.5,4.48-5.25,6.72c-0.41-1.27-0.82-2.54-1.23-3.81
		C52.83,14.61,54.99,13.64,57.19,12.76z"/>
	<path class="st10" d="M64.22,24.02c-0.06,0.18-0.07,0.4-0.3,0.47C63.89,24.26,63.96,24.08,64.22,24.02z"/>
	<path class="st14" d="M51.96,19.64c0.75-0.02,0.88,0.51,0.88,1.07c0.01,3.75,0.01,7.5,0,11.25c0,0.5-0.33,0.95-0.21,1.46
		c-4.45,1.06-8.87,2.21-13.36,3.05c-0.5-0.08-0.28-0.28-0.09-0.51c2.41-3.09,4.8-6.19,7.22-9.27C48.24,24.34,50.1,21.99,51.96,19.64
		z"/>
</g>
<g>
	<path class="st15" d="M125.53,57.28c0,0.26-0.17,0.6-0.51,1.03c-3,3.56-6.97,5.35-11.94,5.35c-5.08,0-9.2-1.73-12.35-5.2
		c-3.08-3.35-4.61-7.58-4.61-12.7c0-4.95,1.51-9.15,4.52-12.6c3.14-3.61,7.14-5.42,11.99-5.42c5.27,0,9.41,1.62,12.4,4.86
		c0.33,0.36,0.49,0.68,0.49,0.95c0,0.31-0.57,1.46-1.7,3.44c-1.13,1.99-1.84,3.1-2.14,3.34c-0.13,0.13-0.29,0.2-0.49,0.2
		c-0.08,0-0.49-0.33-1.22-0.98c-0.88-0.78-1.74-1.39-2.59-1.83c-1.29-0.65-2.62-0.98-4-0.98c-2.39,0-4.31,0.9-5.74,2.69
		c-1.32,1.66-1.98,3.71-1.98,6.15c0,2.47,0.66,4.55,1.98,6.23c1.43,1.82,3.34,2.73,5.74,2.73c1.42,0,2.76-0.31,4.03-0.93
		c0.83-0.41,1.68-0.98,2.54-1.71c0.72-0.62,1.11-0.93,1.2-0.93c0.16,0,0.33,0.09,0.49,0.27c0.26,0.29,0.97,1.31,2.12,3.05
		C124.93,56.11,125.53,57.11,125.53,57.28z"/>
	<path class="st15" d="M152.53,50.59c0,1.25,0.07,3.12,0.22,5.59s0.22,4.33,0.22,5.57c0,0.65-0.29,1-0.85,1.05
		c-2.02,0.15-4.33,0.22-6.93,0.22c-0.31,0-0.52-0.47-0.62-1.4c-0.11-0.94-0.23-1.41-0.38-1.43c-0.13,0.07-0.3,0.2-0.51,0.42
		c-1.82,1.84-3.78,2.76-5.86,2.76c-3.17,0-5.8-1.25-7.89-3.76c-1.97-2.34-2.95-5.14-2.95-8.4c0-3.76,1.02-6.79,3.05-9.08
		c2.12-2.38,5.01-3.56,8.69-3.56c2.56,0,4.57,0.9,6.05,2.69c0.06,0.08,0.12,0.12,0.17,0.12c0.15,0,0.31-0.39,0.5-1.18
		c0.19-0.79,0.41-1.18,0.67-1.18c0.6,0,1.75,0.17,3.44,0.51c1.61,0.33,2.77,0.6,3.47,0.83c0.24,0.1,0.37,0.23,0.37,0.39
		c0,0.07-0.02,0.24-0.07,0.51C152.79,44.19,152.53,47.31,152.53,50.59z M144.67,50.74c0-1.38-0.44-2.53-1.31-3.43
		c-0.87-0.9-2.01-1.35-3.41-1.35c-1.4,0-2.53,0.45-3.39,1.34c-0.86,0.9-1.29,2.04-1.29,3.44c0,1.32,0.46,2.45,1.37,3.39
		c0.91,0.94,2.02,1.42,3.32,1.42c1.38,0,2.51-0.45,3.39-1.36S144.67,52.14,144.67,50.74z"/>
	<path class="st15" d="M173.55,46.74c-0.02,0-0.51-0.13-1.48-0.39c-0.97-0.26-1.75-0.39-2.36-0.39c-1.45,0-2.6,0.44-3.47,1.31
		c-0.86,0.87-1.29,2.03-1.29,3.48c0,1.5,0.47,2.67,1.42,3.53c0.94,0.85,2.17,1.28,3.69,1.28c0.72,0,1.52-0.18,2.42-0.55
		c0.89-0.37,1.32-0.55,1.27-0.55c0.28,0,0.63,1.03,1.07,3.1c0.37,1.89,0.56,3.14,0.56,3.76c0,0.62-1.01,1.15-3.03,1.59
		c-1.56,0.34-2.82,0.51-3.78,0.51c-3.58,0-6.54-1.2-8.86-3.61c-2.33-2.41-3.49-5.41-3.49-9.01c0-3.56,1.17-6.56,3.5-9
		c2.34-2.43,5.29-3.65,8.85-3.65c2.42,0,4.56,0.52,6.4,1.56c0.42,0.23,0.63,0.45,0.63,0.66s-0.24,1.17-0.73,2.88
		c-0.46,1.64-0.75,2.64-0.89,2.98C173.84,46.57,173.7,46.74,173.55,46.74z"/>
	<path class="st15" d="M202.55,45.1l-0.05,16.85c0,0.57-0.23,0.89-0.68,0.95c-0.52,0.06-1.71,0.1-3.56,0.1
		c-1.79,0-3.04-0.07-3.74-0.2c-0.54-0.1-0.81-0.45-0.81-1.05c0-1.4,0.02-3.51,0.07-6.32s0.07-4.92,0.07-6.32
		c0-1.9-0.97-2.86-2.91-2.86c-0.65,0-1.42,0.26-2.29,0.78c-0.96,0.57-1.44,1.16-1.44,1.78v6.03c0,0.78,0.02,1.96,0.05,3.53
		c0.03,1.57,0.05,2.75,0.05,3.53c0,0.6-0.25,0.94-0.76,1c-0.5,0.06-1.92,0.1-4.25,0.1c-1.33,0-2.29-0.07-2.88-0.2
		s-0.88-0.42-0.88-0.85c0-1.29,0.01-3.22,0.02-5.8c0.02-2.58,0.02-4.51,0.02-5.8c0-5.32-0.06-9.72-0.17-13.21
		c-0.05-1.22-0.09-2.44-0.12-3.66c-0.08-1.42-0.23-2.63-0.44-3.64c-0.05-0.21-0.07-0.37-0.07-0.46c0-0.24,0.12-0.41,0.37-0.49
		c0.5-0.15,1.25-0.24,2.22-0.27c1.3-0.05,2.06-0.09,2.27-0.12l4.42-0.51c0.26,0,0.39,0.17,0.39,0.51c0,0.52-0.03,1.23-0.1,2.12
		c-0.07,1.04-0.1,1.75-0.1,2.12c-0.1,3.68-0.15,6.58-0.15,8.72c0,0.33,0.08,0.49,0.24,0.49c0.03,0,0.45-0.29,1.25-0.85
		c0.94-0.67,1.85-1.2,2.71-1.59c1.29-0.57,2.53-0.85,3.74-0.85c2.08,0,3.82,0.54,5.22,1.64C201.8,41.46,202.55,43.07,202.55,45.1z"
		/>
	<path class="st15" d="M231.07,50.59c0,1.25,0.07,3.12,0.22,5.59s0.22,4.33,0.22,5.57c0,0.65-0.29,1-0.85,1.05
		c-2.02,0.15-4.33,0.22-6.93,0.22c-0.31,0-0.52-0.47-0.62-1.4c-0.11-0.94-0.23-1.41-0.38-1.43c-0.13,0.07-0.3,0.2-0.51,0.42
		c-1.82,1.84-3.78,2.76-5.86,2.76c-3.17,0-5.8-1.25-7.89-3.76c-1.97-2.34-2.95-5.14-2.95-8.4c0-3.76,1.02-6.79,3.05-9.08
		c2.12-2.38,5.01-3.56,8.69-3.56c2.55,0,4.57,0.9,6.05,2.69c0.06,0.08,0.12,0.12,0.17,0.12c0.15,0,0.31-0.39,0.5-1.18
		c0.19-0.79,0.41-1.18,0.67-1.18c0.6,0,1.75,0.17,3.44,0.51c1.61,0.33,2.77,0.6,3.47,0.83c0.24,0.1,0.37,0.23,0.37,0.39
		c0,0.07-0.02,0.24-0.07,0.51C231.33,44.19,231.07,47.31,231.07,50.59z M223.21,50.74c0-1.38-0.44-2.53-1.31-3.43
		c-0.87-0.9-2.01-1.35-3.41-1.35c-1.4,0-2.53,0.45-3.39,1.34c-0.86,0.9-1.29,2.04-1.29,3.44c0,1.32,0.46,2.45,1.37,3.39
		c0.91,0.94,2.02,1.42,3.32,1.42c1.38,0,2.51-0.45,3.39-1.36S223.21,52.14,223.21,50.74z"/>
	<path class="st15" d="M252.12,47.59c0,0.63-0.35,0.95-1.05,0.95c-0.31,0-0.76-0.02-1.35-0.06c-0.59-0.04-1.04-0.06-1.33-0.06
		c-1.35,0-2.27,0.21-2.76,0.63s-0.73,1.28-0.73,2.56c0,0.7,0.01,1.76,0.04,3.19c0.02,1.42,0.04,2.49,0.04,3.19
		c0,0.47,0.03,1.18,0.1,2.11c0.06,0.94,0.1,1.63,0.1,2.09c0,0.39-0.27,0.61-0.81,0.66c-0.78,0.06-1.98,0.1-3.59,0.1
		c-1.55,0-2.78-0.05-3.71-0.15c-0.54-0.06-0.81-0.33-0.81-0.81c0-1.3,0.01-3.25,0.02-5.85c0.02-2.6,0.02-4.54,0.02-5.85
		c0-3.83-0.35-6.97-1.05-9.45c-0.03-0.15-0.05-0.27-0.05-0.37c0-0.24,0.12-0.41,0.37-0.49c0.89-0.1,2.21-0.28,3.93-0.54
		c2.57-0.5,3.9-0.76,3.98-0.76c0.29,0,0.48,0.51,0.56,1.54c0.08,1.03,0.23,1.54,0.44,1.54c-0.23,0,0.44-0.43,2-1.28
		s3.07-1.28,4.52-1.28c0.91,0,1.37,0.2,1.37,0.59c0,0.47-0.05,1.14-0.15,2c-0.1,0.93-0.16,1.59-0.17,2c0,0.47,0.01,1.1,0.02,1.88
		C252.1,46.65,252.12,47.28,252.12,47.59z"/>
	<path class="st15" d="M271.16,47.59c0,0.63-0.35,0.95-1.05,0.95c-0.31,0-0.76-0.02-1.35-0.06c-0.59-0.04-1.04-0.06-1.33-0.06
		c-1.35,0-2.27,0.21-2.76,0.63s-0.73,1.28-0.73,2.56c0,0.7,0.01,1.76,0.04,3.19c0.02,1.42,0.04,2.49,0.04,3.19
		c0,0.47,0.03,1.18,0.1,2.11c0.06,0.94,0.1,1.63,0.1,2.09c0,0.39-0.27,0.61-0.81,0.66c-0.78,0.06-1.98,0.1-3.59,0.1
		c-1.55,0-2.78-0.05-3.71-0.15c-0.54-0.06-0.81-0.33-0.81-0.81c0-1.3,0.01-3.25,0.02-5.85c0.02-2.6,0.02-4.54,0.02-5.85
		c0-3.83-0.35-6.97-1.05-9.45c-0.03-0.15-0.05-0.27-0.05-0.37c0-0.24,0.12-0.41,0.37-0.49c0.89-0.1,2.21-0.28,3.93-0.54
		c2.57-0.5,3.9-0.76,3.98-0.76c0.29,0,0.48,0.51,0.56,1.54c0.08,1.03,0.23,1.54,0.44,1.54c-0.23,0,0.44-0.43,2-1.28
		s3.07-1.28,4.52-1.28c0.91,0,1.37,0.2,1.37,0.59c0,0.47-0.05,1.14-0.15,2c-0.1,0.93-0.16,1.59-0.17,2c0,0.47,0.01,1.1,0.02,1.88
		C271.14,46.65,271.16,47.28,271.16,47.59z"/>
	<path class="st15" d="M296.38,49.55c0,1.64-0.53,2.58-1.59,2.81c-0.18,0.03-1.86,0.21-5.05,0.54c-1.92,0.21-4.79,0.46-8.59,0.76
		c0.23,1.06,0.92,1.86,2.08,2.42c0.94,0.46,2.02,0.68,3.22,0.68c1.45,0,2.91-0.39,4.37-1.17c0.62-0.39,1.24-0.78,1.86-1.17
		c0.34,0.16,0.92,0.99,1.72,2.49c0.8,1.5,1.21,2.45,1.21,2.86c0,0.11-0.12,0.3-0.37,0.56c-1.99,2.13-5.07,3.2-9.25,3.2
		c-3.87,0-7-1.13-9.38-3.39c-2.44-2.29-3.66-5.36-3.66-9.2c0-3.74,1.09-6.81,3.27-9.2c2.25-2.47,5.22-3.71,8.94-3.71
		c3.13,0,5.78,1.14,7.96,3.42C295.29,43.69,296.38,46.4,296.38,49.55z M287.83,48.06c0-1.01-0.36-1.9-1.07-2.66
		c-0.72-0.76-1.57-1.15-2.56-1.15c-1.03,0-1.87,0.43-2.54,1.29c-0.62,0.8-0.93,1.73-0.93,2.81c0,0.44,0.23,0.66,0.68,0.66
		c1.2,0,3.08-0.19,5.62-0.56C287.56,48.37,287.83,48.23,287.83,48.06z"/>
	<path class="st15" d="M315.25,47.59c0,0.63-0.35,0.95-1.05,0.95c-0.31,0-0.76-0.02-1.35-0.06c-0.59-0.04-1.04-0.06-1.33-0.06
		c-1.35,0-2.27,0.21-2.76,0.63s-0.73,1.28-0.73,2.56c0,0.7,0.01,1.76,0.04,3.19c0.02,1.42,0.04,2.49,0.04,3.19
		c0,0.47,0.03,1.18,0.1,2.11c0.06,0.94,0.1,1.63,0.1,2.09c0,0.39-0.27,0.61-0.81,0.66c-0.78,0.06-1.98,0.1-3.59,0.1
		c-1.55,0-2.78-0.05-3.71-0.15c-0.54-0.06-0.81-0.33-0.81-0.81c0-1.3,0.01-3.25,0.02-5.85c0.02-2.6,0.02-4.54,0.02-5.85
		c0-3.83-0.35-6.97-1.05-9.45c-0.03-0.15-0.05-0.27-0.05-0.37c0-0.24,0.12-0.41,0.37-0.49c0.89-0.1,2.21-0.28,3.93-0.54
		c2.57-0.5,3.9-0.76,3.98-0.76c0.29,0,0.48,0.51,0.56,1.54c0.08,1.03,0.23,1.54,0.44,1.54c-0.23,0,0.44-0.43,2-1.28
		s3.07-1.28,4.52-1.28c0.91,0,1.37,0.2,1.37,0.59c0,0.47-0.05,1.14-0.15,2c-0.1,0.93-0.16,1.59-0.17,2c0,0.47,0.01,1.1,0.02,1.88
		C315.23,46.65,315.25,47.28,315.25,47.59z"/>
	<path class="st15" d="M341.59,50.79c0,3.71-1.14,6.72-3.41,9.03c-2.27,2.31-5.25,3.47-8.95,3.47c-3.58,0-6.53-1.14-8.84-3.42
		c-2.31-2.28-3.47-5.21-3.47-8.79c0-3.78,1.11-6.84,3.32-9.19c2.21-2.35,5.21-3.53,8.98-3.53c3.68,0,6.66,1.15,8.94,3.45
		C340.45,44.12,341.59,47.11,341.59,50.79z M333.58,50.79c0-1.29-0.4-2.42-1.2-3.41c-0.8-0.98-1.83-1.48-3.1-1.48
		c-1.29,0-2.34,0.5-3.17,1.51c-0.78,0.94-1.17,2.07-1.17,3.37c0,1.32,0.39,2.45,1.17,3.39c0.83,1.01,1.89,1.51,3.17,1.51
		c1.27,0,2.32-0.5,3.15-1.51C333.2,53.24,333.58,52.11,333.58,50.79z"/>
</g>
</svg>
