<?xml version="1.0" encoding="utf-8"?>
<!-- Generator: Adobe Illustrator 26.0.1, SVG Export Plug-In . SVG Version: 6.00 Build 0)  -->
<svg version="1.1" id="Capa_1" xmlns="http://www.w3.org/2000/svg" xmlns:xlink="http://www.w3.org/1999/xlink" x="0px" y="0px"
	 viewBox="0 0 300 70" style="enable-background:new 0 0 300 70;" xml:space="preserve">
<style type="text/css">
	.st0{fill:#0687B8;}
	.st1{fill:#0767A6;}
	.st2{fill:#E6B50C;}
	.st3{fill:#CF9917;}
	.st4{fill:#0AB0CD;}
	.st5{fill:#EB75AB;}
	.st6{fill:#D93B8B;}
	.st7{fill:#AA1D64;}
	.st8{fill:#21AFE6;}
	.st9{fill:#F5D403;}
	.st10{fill:#862150;}
	.st11{fill:#146032;}
	.st12{fill:#1C9444;}
	.st13{fill:#7CCDF3;}
	.st14{fill:#CD1675;}
	.st15{font-family:'BookmanOldStyle-Bold';}
	.st16{font-size:35px;}
</style>
<g>
	<path class="st0" d="M88.75,36.7c0.1,0.38-0.22,0.37-0.42,0.42c-5.72,1.54-11.43,3.07-17.15,4.6c-0.15,0.04-0.31,0.02-0.47,0.03
		c0.47-1.35,0.96-2.7,1.41-4.06c1-2.99,2.3-5.86,3.13-8.91c0.02-0.06,0.05-0.11,0.07-0.17c-0.06,0.02-0.11,0.05-0.17,0.07
		c-1.32,0.44-2.41,1.34-3.65,1.94c-0.73,0.35-1.09,0.32-1.06-0.63c0.04-1.16,0.01-2.32,0.01-3.48c0-0.45,0.01-0.88-0.47-1.13
		c-3.07-1.61-6.14-3.22-9.21-4.84c-0.01-0.15-0.02-0.3-0.03-0.45c0.95-2.83,1.63-5.74,2.26-8.65c0.02-0.04,0.03-0.08,0.04-0.12
		c0.72-2.75,1.44-5.5,2.18-8.24c0.07-0.26-0.13-0.81,0.5-0.7c-0.05,0.42,0.13,0.78,0.27,1.15c2.14,5.59,4.22,11.2,6.43,16.76
		c1.06,2.66,1.88,5.43,3.22,7.97c0.11,0.12,0.19,0.26,0.32,0.35c3.21,2.08,6.41,4.19,9.65,6.22C86.64,35.49,87.53,36.39,88.75,36.7z
		"/>
	<path class="st1" d="M60.78,20.54c3.07,1.61,6.14,3.23,9.21,4.84c0.48,0.25,0.47,0.68,0.47,1.13c0,1.16,0.03,2.32-0.01,3.48
		c-0.03,0.95,0.33,0.98,1.06,0.63c1.24-0.6,2.33-1.5,3.65-1.94c0.03,0.03,0.06,0.07,0.1,0.1c-0.83,3.05-2.14,5.92-3.13,8.91
		c-0.45,1.36-0.94,2.71-1.41,4.06c-2.59-0.85-5-2.14-7.49-3.22c-3.04-1.31-3.03-1.35-2.94-4.69c0.06-2.28,0.15-4.56,0.23-6.85
		c0.27-2.05,0.27-4.1,0.13-6.16C60.69,20.74,60.73,20.64,60.78,20.54z"/>
	<path class="st2" d="M12.8,37.65c-0.01-0.08-0.01-0.17-0.02-0.25c3.01-3.42,6.02-6.84,9-10.29c0.34-0.39,0.84-0.84,0.66-1.46
		c-0.36-1.27-0.1-2.55-0.2-3.82c-0.08-0.98,0.32-1.11,1.2-0.95c1.11,0.19,2.24,0.45,3.38,0.36c0.05,0.01,0.09,0.03,0.13,0.06
		c-0.02,0.08-0.03,0.15-0.03,0.23c-0.27,0.31-0.16,0.69-0.17,1.04c-0.02,6.24,0.08,12.48-0.25,18.71l0,0
		c-2.12-0.57-4.23-1.16-6.35-1.69C17.71,38.96,15.33,38,12.8,37.65z"/>
	<path class="st3" d="M26.84,21.23c-1.15,0.09-2.27-0.16-3.38-0.36c-0.88-0.16-1.28-0.03-1.2,0.95c0.1,1.27-0.16,2.55,0.2,3.82
		c0.18,0.63-0.32,1.07-0.66,1.46c-2.98,3.45-6,6.86-9,10.29c0.47-2.92,1.32-5.75,1.97-8.63c0.56-2.49,1.21-4.96,1.77-7.45
		c0.17-0.76,0.47-1.41,0.97-2.01c3.09-3.74,6.16-7.49,9.24-11.24C26.77,12.46,26.8,16.84,26.84,21.23z"/>
	<path class="st4" d="M75.64,28.27c-1.34-2.54-2.17-5.31-3.22-7.97c-2.21-5.56-4.29-11.18-6.43-16.76
		c-0.14-0.38-0.32-0.73-0.27-1.15c3.81,2.29,7.63,4.58,11.44,6.87c0.24,0.15,0.46,0.31,0.46,0.64c-0.09,0.67-0.19,1.34-0.27,2.01
		c-0.27,2.53-0.54,5.05-0.8,7.58c-0.29,2.76-0.8,5.5-0.86,8.29C75.67,27.94,75.65,28.11,75.64,28.27z"/>
	<path class="st5" d="M37.19,5.71c4.85-1.06,9.7-2.12,14.56-3.18c0.16-0.04,0.31,0,0.41,0.15c-0.18,0.17-0.07,0.36-0.04,0.55
		c0.39,2.06,0.78,4.13,1.16,6.19c-0.06,0.01-0.13,0.02-0.19,0.04c-2.27,0.92-4.49,1.93-6.68,3.04c-2.11,0.91-4.23,1.82-6.34,2.72
		c0-1.85,0-3.7,0-5.54c0-0.51,0.01-0.93-0.7-0.98c-0.85-0.06-2.06,0.01-2.42-0.49C36.58,7.71,37.07,6.57,37.19,5.71z"/>
	<path class="st6" d="M37.19,5.71c-0.11,0.86-0.6,2-0.24,2.5c0.36,0.5,1.57,0.43,2.42,0.49c0.71,0.05,0.71,0.47,0.7,0.98
		c-0.01,1.85,0,3.7,0,5.54c-0.27,0.16-0.53,0.34-0.81,0.47c-3.05,1.38-6.1,2.75-9.16,4.12c-0.05-0.06-0.15-0.12-0.14-0.18
		c0.3-3.47,0.04-6.95,0.14-10.42c0.02-0.71-0.18-1.07-0.93-0.98c-0.76,0.1-1.48-0.15-2.21-0.28c2.03-0.65,4.14-0.95,6.21-1.41
		C34.51,6.26,35.85,5.99,37.19,5.71z"/>
	<path class="st7" d="M53.28,9.43c-0.39-2.06-0.77-4.13-1.16-6.19c-0.04-0.19-0.14-0.38,0.04-0.55c1.59,1.28,3.18,2.57,4.77,3.85
		c-0.26,0.19-0.79,0.03-0.54,0.78C56.65,8.14,57.11,9,56.9,9.95c-1.06,0.06-2.05-0.47-3.34-0.48c0.78,1.19,1.45,2.25,2.15,3.29
		c1.66,2.46,3.22,4.99,5.04,7.33c0.01,0.15,0.02,0.3,0.03,0.45c-0.04,0.1-0.09,0.2-0.13,0.3c-0.04,0.12-0.07,0.24-0.11,0.36
		c-0.07,0.01-0.14,0.03-0.2,0.06c-0.26,0.06-0.33,0.25-0.31,0.49l0.02,0c-1.13,0.6-1.79,1.7-2.63,2.61c-1.77,1.92-3.5,3.87-5.25,5.8
		c0.09-1.88,0.06-3.78,0.3-5.64c0.2-1.6,0.16-3.2,0.28-4.8C53,16.3,53.11,12.86,53.28,9.43z"/>
	<path class="st8" d="M75.64,28.27c0.01-0.17,0.03-0.34,0.04-0.51c1.32-2.15,2.27-4.49,3.43-6.72c0.71-1.38,1.37-2.79,2.05-4.18
		c0.92,1.32,1.27,2.9,1.84,4.37c1.9,4.91,3.74,9.85,5.59,14.78c0.08,0.22,0.11,0.46,0.16,0.69c-1.22-0.31-2.11-1.22-3.13-1.86
		c-3.24-2.03-6.44-4.14-9.65-6.22C75.83,28.54,75.75,28.39,75.64,28.27z"/>
	<path class="st9" d="M12.8,37.65c2.53,0.35,4.91,1.31,7.38,1.92c2.13,0.53,4.24,1.13,6.35,1.69c0,0.14,0,0.27,0,0.41
		c-0.35,3.65-1.06,7.25-1.56,10.88c-0.1,0.75-0.26,1.49-0.39,2.23c-2.11-2.73-3.92-5.68-5.9-8.5c-1.84-2.63-3.52-5.37-5.49-7.91
		c0,0,0.03,0.03,0.03,0.03c-0.07-0.1-0.14-0.19-0.21-0.29C12.94,37.97,12.87,37.81,12.8,37.65z"/>
	<path class="st10" d="M52.16,30.17c1.75-1.94,3.48-3.89,5.25-5.8c0.84-0.91,1.5-2.01,2.63-2.61c-2.04,4.77-4.35,9.4-6.67,14.03
		c-6.34-0.39-12.68-0.79-19.02-1.18c-0.14-0.01-0.3,0.07-0.44,0.11c0,0,0,0.03,0,0.03c0.03-0.07,0.07-0.14,0.1-0.21
		c0.26,0.06,0.48,0.01,0.61-0.25c4.63-0.88,9.19-2.09,13.78-3.19C49.65,30.79,50.91,30.48,52.16,30.17z"/>
	<path class="st11" d="M34.6,46.47c2.86-1.3,5.88-2.13,8.81-3.23c1.17-0.44,2.37-0.81,3.56-1.21c-1.82,2.37-4.07,4.35-5.95,6.67
		c-1.91,1.46-3.81,2.94-5.75,4.37c-0.61,0.45-0.41,0.66,0.04,1.03c1.37,1.13,2.71,2.31,4.06,3.46c-0.11,1.11-0.82,1.98-1.21,2.97
		c-2.58-1.85-4.94-3.96-7.37-6c-0.03-0.03,0-0.13,0-0.2c1.13,0.05,2.15-0.44,3.24-0.6c0.54-0.08,0.6-0.5,0.6-1
		C34.6,50.64,34.6,48.55,34.6,46.47z"/>
	<path class="st12" d="M41.02,48.69c1.88-2.32,4.13-4.29,5.95-6.67c0.52-0.11,0.45,0.36,0.54,0.6c1.87,5.06,3.72,10.12,5.57,15.18
		c0.04,0.1,0.01,0.23,0.01,0.35c-1.69-1.29-3.25-2.76-5.08-3.86C45.79,52.28,43.34,50.56,41.02,48.69z"/>
	<path class="st12" d="M37.95,67.87c-3.65-0.84-7.19-2.1-10.8-3.11c-0.91-0.25-1.82-0.55-2.73-0.82c-0.3-0.09-0.64-0.12-0.71-0.52
		c0.28-0.43,0.16-0.93,0.21-1.4c0.24-2.33,0.47-4.67,0.7-7c2.4,2.34,4.8,4.68,7.2,7.02C33.69,64.18,35.85,65.99,37.95,67.87z"/>
	<path class="st3" d="M24.62,55.04c-0.23,2.33-0.46,4.67-0.7,7c-0.05,0.47,0.08,0.96-0.21,1.4c-2.14-4.99-4.28-9.98-6.41-14.97
		c-1.25-2.94-2.5-5.88-3.73-8.83c-0.17-0.4-0.45-0.77-0.38-1.24c1.97,2.54,3.65,5.28,5.49,7.91c1.98,2.82,3.79,5.77,5.9,8.5
		C24.59,54.87,24.61,54.96,24.62,55.04z"/>
	<path class="st12" d="M52.9,58.38c-4.07,2.75-8.22,5.36-12.4,7.93c-0.59-0.38-0.89-0.94-1.12-1.6c-0.42-1.22-1.02-2.37-1.23-3.66
		c2.62-0.5,5.25-1,7.87-1.5C48.31,59.16,50.58,58.58,52.9,58.38z"/>
	<path class="st1" d="M53.37,35.79c2.33-4.63,4.63-9.26,6.67-14.03c0,0-0.02,0-0.02,0c0.24-0.07,0.25-0.3,0.31-0.49
		c0.06-0.03,0.13-0.05,0.2-0.06c-0.09,0.72-0.18,1.45-0.27,2.17c-0.74,3.79-1.47,7.58-2.21,11.37c-1.6,1.1-2.87,2.6-4.3,3.9
		c-0.89,0.81-1.9,1.52-2.55,2.59c-0.1-0.01-0.2-0.02-0.29-0.03C51.73,39.4,52.55,37.59,53.37,35.79z"/>
	<path class="st13" d="M81.16,16.86c-0.68,1.4-1.34,2.8-2.05,4.18c-1.15,2.23-2.11,4.57-3.43,6.72c0.06-2.79,0.57-5.53,0.86-8.29
		c0.27-2.53,0.53-5.05,0.8-7.58c0.07-0.67,0.18-1.34,0.27-2.01C78.92,12.15,80.25,14.4,81.16,16.86z"/>
	<path class="st14" d="M26.96,7.97c0.73,0.13,1.45,0.38,2.21,0.28c0.74-0.1,0.95,0.27,0.93,0.98c-0.1,3.47,0.16,6.95-0.14,10.42
		c0,0.06,0.09,0.12,0.14,0.18c-0.99,0.6-2.04,1.07-3.13,1.47c-0.04-0.03-0.09-0.05-0.13-0.06c-0.04-4.39-0.07-8.78-0.11-13.16
		C26.81,8.03,26.88,8,26.96,7.97z"/>
	<path class="st12" d="M38.15,60.53c0.39-1,1.1-1.86,1.21-2.97c0.62,0.03,1.15-0.27,1.67-0.54c0.61-0.31,1.68-0.17,1.73-1.02
		c0.05-0.82-1.73-1.87-2.66-1.85c-0.88,0.03-1.77,0.01-2.88,0.01c1.75-0.9,3.32-1.7,4.88-2.52c0.34-0.18,0.56-0.11,0.83,0.14
		c1.15,1.1,2.3,2.19,3.47,3.28c0.31,0.29,0.49,0.48-0.03,0.77C43.61,57.36,40.99,59.15,38.15,60.53z"/>
	<path class="st11" d="M38.15,61.04c0.22,1.29,0.81,2.45,1.23,3.66c0.23,0.66,0.53,1.22,1.12,1.6c-0.83,0.55-1.61,1.2-2.55,1.57
		c-2.1-1.88-4.26-3.69-6.13-5.82C33.93,61.71,36.04,61.38,38.15,61.04z"/>
	<path class="st9" d="M33.32,40.3c1.88,1.2,3.77,2.41,5.92,3.79c-3.28,0.21-6.22,0.6-9.18,0.56c0.03-0.39,0.33-0.61,0.53-0.9
		c0.75-1.1,1.81-1.96,2.34-3.22C33.06,40.46,33.19,40.38,33.32,40.3z"/>
	<path class="st13" d="M57.43,39.84c0.21,0.6,0.71,0.9,1.22,1.21c1.53,0.94,3.04,1.9,4.86,3.05c-3.31,0.26-6.24,0.6-9.2,0.59
		c0.59-1.65,2.09-2.65,2.87-4.16C57.41,40.36,57.38,40.08,57.43,39.84z"/>
	<path class="st0" d="M57.43,39.84c-0.05,0.24-0.01,0.52-0.26,0.69c-2.02-0.06-3.96,0.63-5.96,0.71c0.64-1.07,1.66-1.79,2.55-2.59
		c1.44-1.3,2.7-2.8,4.3-3.9C58,36.46,57.73,38.15,57.43,39.84z"/>
	<path class="st3" d="M33.32,40.3c-0.13,0.08-0.26,0.16-0.39,0.23c-1.14-0.07-2.23,0.25-3.35,0.36c-0.85,0.08-1.69,0.57-2.57,0.14
		c2.3-2.09,4.6-4.19,6.89-6.28c0,0,0-0.03,0-0.03C33.71,36.58,33.52,38.44,33.32,40.3z"/>
	<path class="st11" d="M52.9,58.38c-2.32,0.21-4.59,0.79-6.88,1.16c0.66-1.75,1.32-3.49,1.99-5.24c1.83,1.1,3.39,2.57,5.08,3.86
		C53.12,58.32,53.03,58.36,52.9,58.38z"/>
	<path class="st12" d="M34.6,46.47c0.01,2.09,0,4.17,0.03,6.26c0.01,0.5-0.06,0.92-0.6,1c-1.09,0.16-2.12,0.65-3.24,0.6
		C31.92,51.64,33.23,49.04,34.6,46.47z"/>
	<path class="st2" d="M27.01,41.03c0.88,0.43,1.72-0.05,2.57-0.14c1.12-0.11,2.21-0.43,3.35-0.36c-0.53,1.26-1.59,2.12-2.34,3.22
		c-0.2,0.29-0.5,0.51-0.53,0.9c-1.07-0.42-1.58-1.49-2.42-2.18c-0.35-0.28-0.52-0.84-1.1-0.79c0-0.14,0-0.28,0-0.41c0,0,0,0,0,0
		C26.69,41.19,26.85,41.11,27.01,41.03z"/>
	<path class="st14" d="M56.9,9.95c0.21-0.95-0.24-1.81-0.52-2.64c-0.25-0.75,0.28-0.59,0.54-0.78c2.04,1.6,4.08,3.19,6.13,4.79
		c-0.01,0.04-0.02,0.08-0.04,0.12C60.97,10.94,58.89,10.63,56.9,9.95z"/>
	<path class="st8" d="M51.2,41.24c2.01-0.07,3.94-0.77,5.96-0.71c-0.78,1.51-2.28,2.51-2.87,4.16c-1.42-0.87-2.55-2.03-3.39-3.48
		C51.01,41.22,51.11,41.23,51.2,41.24z"/>
	<path class="st13" d="M60.26,23.37c0.09-0.72,0.18-1.45,0.27-2.17c0.04-0.12,0.07-0.24,0.11-0.36c0.14,2.06,0.14,4.11-0.13,6.16
		C60.26,25.8,60.87,24.54,60.26,23.37z"/>
	<path class="st3" d="M13.01,38.12c0.07,0.1,0.14,0.19,0.21,0.29C13.02,38.41,13.02,38.27,13.01,38.12z"/>
	<path class="st10" d="M56.9,9.95c1.99,0.68,4.07,0.98,6.11,1.49c-0.63,2.92-1.31,5.82-2.26,8.65c-1.82-2.34-3.38-4.87-5.04-7.33
		c-0.7-1.04-1.37-2.09-2.15-3.29C54.85,9.48,55.83,10.02,56.9,9.95z"/>
	<path class="st1" d="M75.16,28.68c0.06-0.02,0.11-0.05,0.17-0.07c-0.02,0.06-0.05,0.11-0.07,0.17
		C75.22,28.75,75.19,28.71,75.16,28.68z"/>
	<path class="st7" d="M26.97,21.29c1.09-0.39,2.14-0.87,3.13-1.47c3.05-1.37,6.11-2.74,9.16-4.12c0.28-0.13,0.54-0.31,0.81-0.47
		c2.11-0.91,4.23-1.82,6.34-2.72c0.42,1.33,0.84,2.66,1.27,3.99c0.02,0.06,0.02,0.12,0.02,0.18c-1.91,2.46-3.83,4.91-5.74,7.38
		c-2.49,3.23-4.96,6.47-7.44,9.71c-0.19,0.24-0.42,0.44,0.1,0.53c-0.13,0.27-0.35,0.31-0.61,0.25c-0.22-0.38-0.45-0.75-0.66-1.13
		c-2.14-3.96-4.27-7.93-6.41-11.89C26.95,21.44,26.96,21.36,26.97,21.29z"/>
	<path class="st9" d="M26.94,21.52c2.13,3.96,4.27,7.93,6.41,11.89c0.21,0.38,0.44,0.76,0.66,1.13c-0.03,0.07-0.07,0.14-0.1,0.21
		c-2.3,2.09-4.6,4.19-6.89,6.28c-0.16,0.08-0.32,0.16-0.48,0.24c0.33-6.23,0.23-12.48,0.25-18.71
		C26.78,22.21,26.68,21.83,26.94,21.52z"/>
	<path class="st6" d="M47.69,16.67c0.01-0.06,0-0.12-0.02-0.18c1.8-2.34,3.61-4.69,5.41-7.03c0.06-0.02,0.13-0.03,0.19-0.04
		c-0.17,3.44-0.28,6.88-0.53,10.31c-0.12,1.6-0.08,3.2-0.28,4.8c-0.24,1.86-0.21,3.76-0.3,5.64c-1.26,0.31-2.51,0.62-3.77,0.93
		c-0.12-0.54,0.22-1.01,0.22-1.53c0-3.92,0.01-7.85,0-11.77C48.6,17.21,48.47,16.66,47.69,16.67z"/>
	<path class="st10" d="M53.09,9.47c-1.8,2.34-3.61,4.69-5.41,7.03c-0.42-1.33-0.84-2.66-1.27-3.99
		C48.59,11.4,50.82,10.39,53.09,9.47z"/>
	<path class="st10" d="M60.33,21.26c-0.06,0.19-0.07,0.42-0.31,0.49C60,21.51,60.07,21.32,60.33,21.26z"/>
	<path class="st14" d="M47.69,16.67c0.77-0.02,0.91,0.53,0.91,1.12c0.01,3.92,0.01,7.85,0,11.77c0,0.52-0.34,0.99-0.22,1.53
		c-4.58,1.11-9.14,2.31-13.78,3.19c-0.52-0.09-0.28-0.29-0.1-0.53c2.48-3.23,4.95-6.48,7.44-9.71
		C43.86,21.59,45.78,19.13,47.69,16.67z"/>
</g>
<text transform="matrix(1 0 0 1 56.4135 67.8728)" class="st15 st16">Cacharrero</text>
</svg>
