<?xml version="1.0" encoding="utf-8"?>
<!-- Generator: Adobe Illustrator 26.0.1, SVG Export Plug-In . SVG Version: 6.00 Build 0)  -->
<svg version="1.1" id="Capa_1" xmlns="http://www.w3.org/2000/svg" xmlns:xlink="http://www.w3.org/1999/xlink" x="0px" y="0px"
	 viewBox="0 0 1920 1080" style="enable-background:new 0 0 1920 1080;" xml:space="preserve">
<style type="text/css">
	.st0{fill:#06619B;}
	.st1{fill:#0186B6;}
	.st2{fill:#E56CA6;}
	.st3{fill:#E5B403;}
	.st4{fill:#CD9812;}
	.st5{fill:#02AECB;}
	.st6{fill:#D01F78;}
	.st7{fill:#02B0E9;}
	.st8{fill:#A31C5F;}
	.st9{fill:#F4D302;}
	.st10{fill:#84204F;}
	.st11{fill:#0F5F32;}
	.st12{fill:#159141;}
	.st13{fill:#65C9F1;}
	.st14{fill:#D80E79;}
</style>
<g>
	<g>
		<path class="st0" d="M674.46,585.22c-16.41-4.52-31.33-12.68-46.94-19.16c-8.78-3.64-17.45-7.54-26.12-11.43
			c-10.42-4.68-24.52-6.88-30.2-14.93c-6.46-9.16-1.49-23.63-1.11-35.75c1.17-37.87,2.83-75.73,2.37-113.87
			c-8.42,42.2-16.83,84.4-25.25,126.6c-16.86,11.9-30.57,27.33-45.97,40.86c-7.54,6.62-16.41,12.57-20.33,22.62
			c-1.69,0.26-3.37,0.52-5.06,0.78c8.19-18.1,16.39-36.19,24.58-54.29c24.13-44.52,44.48-90.89,67.37-136.01
			c1.06-2.08,1.51-4.46,2.25-6.71c2.67-2.67,4.21-5.85,4.39-9.64c0.5-0.13,1-0.26,1.5-0.37c1.66,1.64,3.06,3.74,5.03,4.84
			c16.58,9.21,32.98,18.82,50.04,27.09c9,4.36,13.01,9.37,12.53,19.75c-0.9,19.3-0.36,38.67-0.16,58c0.04,3.66-2.1,8.61,2.46,10.68
			c4.02,1.83,7.21-1.97,10.64-3.77c21.94-11.54,41.98-26.55,65.37-35.44C706.04,498.46,690.25,541.84,674.46,585.22z"/>
		<path class="st1" d="M721.83,455.08c-23.39,8.89-43.43,23.9-65.37,35.44c-3.43,1.8-6.61,5.6-10.64,3.77
			c-4.55-2.07-2.42-7.02-2.46-10.68c-0.2-19.34-0.73-38.71,0.16-58c0.48-10.38-3.53-15.39-12.53-19.75
			c-17.06-8.27-33.46-17.87-50.04-27.09c-1.97-1.09-3.37-3.2-5.03-4.84c7.1-28.88,14.19-57.75,21.29-86.63
			c0.28-0.35,0.4-0.74,0.35-1.18c7.18-26.76,14.35-53.52,21.55-80.27c0.78-2.91,0.39-6.33,3.42-8.33c0.24-0.16,0.73-0.13,0.99,0.01
			c0.32,0.17,0.53,0.56,0.79,0.85c0.48,2.68,0.53,5.52,1.5,8c25.14,64.44,50.12,128.95,75.8,193.18
			c6.2,15.52,9.59,32.35,20.07,46.05c0.21,3,0.41,6.01,0.61,9.01L721.83,455.08z"/>
		<path class="st2" d="M254.6,248.58c29.73-8.34,60.21-13.28,90.35-19.71c45.23-9.65,90.55-18.87,135.82-28.31
			c1.9-0.4,3.79-1.44,5.19,0.84c5.85,21.76,10.21,43.83,13.88,66.05c-0.68,0.07-1.34,0.21-2,0.41c-0.83,0.66-1.66,1.32-2.49,1.97
			l0.07-0.11c-9.3,0.83-17.06,5.82-25.3,9.42c-47.33,20.67-94.61,41.47-141.9,62.23c0.12-24.37,0.16-48.74,0.42-73.11
			c0.07-6.71-2.21-10.36-9.52-10.26c-14.97,0.2-29.68-3.21-44.75-2.94C267.7,255.19,259.25,256.43,254.6,248.58z"/>
		<path class="st3" d="M94.59,548.16c-1.8-1.45-2.34-3.31-1.77-5.52c10.24-11.44,20.46-22.91,30.73-34.32
			c21.35-23.72,42.76-47.38,64.06-71.15c2.61-2.91,4.96-6.11,3.94-10.59c-2.82-12.47-0.53-25.14-1.3-37.69
			c-0.46-7.47,1.18-10.72,10.16-8.73c10.68,2.37,21.86,2.49,32.83,3.58c0.25,0.59,0.28,1.2,0.08,1.81
			c-0.57,65.04,0.92,130.11-2.51,195.11l-0.05,0.05c-3.45-0.77-6.93-1.41-10.34-2.32c-38.47-10.36-76.92-20.8-115.4-31.12
			C101.56,546.34,97.63,542.92,94.59,548.16z"/>
		<path class="st4" d="M233.24,383.74c-10.96-1.09-22.15-1.21-32.83-3.58c-8.98-1.99-10.62,1.26-10.16,8.73
			c0.77,12.55-1.52,25.22,1.3,37.69c1.01,4.48-1.33,7.68-3.94,10.59c-21.3,23.77-42.71,47.43-64.06,71.15
			c-10.27,11.41-20.49,22.88-30.73,34.32c3.89-25.38,11.55-49.9,17.31-74.85c6.28-27.21,13.64-54.19,19.83-81.42
			c2.09-9.18,5.86-16.8,11.92-23.95c30.42-35.93,60.55-72.12,90.78-108.22C232.86,297.38,233.05,340.56,233.24,383.74z"/>
		<path class="st5" d="M721.69,445.62c-10.48-13.7-13.87-30.54-20.07-46.06c-25.68-64.23-50.65-128.74-75.8-193.18
			c-0.97-2.49-1.02-5.33-1.5-8c38.51,22.69,77.01,45.38,115.53,68.04c2.13,1.25,3.94,2.64,4.34,5.25c-0.96,3.4-2.42,6.74-2.79,10.2
			c-5.95,54.52-11.76,109.06-17.6,163.6C723.09,445.48,722.39,445.53,721.69,445.62z"/>
		<path class="st1" d="M674.46,585.22c15.79-43.38,31.58-86.76,47.37-130.15c0,0,0.47-0.44,0.47-0.44c2.88,1.27,5.97,2.21,8.6,3.87
			c29.01,18.34,57.74,37.13,86.99,55.06c12.37,7.58,23.44,17.45,37.48,22.26c-0.16,3.17-2.78,3.5-4.98,4.08
			c-57.85,15.18-115.72,30.33-173.59,45.44C676.09,585.54,675.25,585.28,674.46,585.22z"/>
		<path class="st6" d="M233.24,383.74c-0.19-43.18-0.39-86.36-0.58-129.54c7.31-1.87,14.63-3.75,21.94-5.62
			c4.65,7.85,13.09,6.61,19.77,6.49c15.07-0.27,29.78,3.13,44.75,2.94c7.32-0.1,9.6,3.55,9.52,10.26
			c-0.27,24.37-0.3,48.74-0.42,73.11c-5.49,3.94-11.66,6.52-17.74,9.43c-24.9,11.93-51.2,20.96-74.93,35.35
			c-0.74-0.22-1.49-0.42-2.24-0.61C233.53,384.94,233.5,384.33,233.24,383.74z"/>
		<path class="st7" d="M855.38,535.83c-14.04-4.82-25.11-14.68-37.48-22.26c-29.26-17.93-57.99-36.72-86.99-55.06
			c-2.63-1.66-5.72-2.6-8.6-3.87c-0.2-3.01-0.4-6.01-0.61-9.02c0.69-0.09,1.39-0.14,2.1-0.15c5.75-0.1,5.59-5.5,7.14-8.69
			c15.6-32.03,33.99-62.66,48.26-95.35c3.51,0.64,3.6,3.91,4.51,6.27c23.63,61.16,47.18,122.36,70.7,183.57
			C854.96,532.7,855.06,534.3,855.38,535.83z"/>
		<path class="st8" d="M499.84,267.46c-3.66-22.22-8.02-44.29-13.87-66.05c11.71,3.98,19.38,13.51,28.72,20.75
			c-0.1,4.67,0.56,9.16,1.52,13.81c2.35,11.38,8.2,21.96,7.84,33.93c-6.5-0.65-13-1.3-22.25-2.22
			c25.06,36.78,48.84,71.7,72.63,106.62c-0.18,3.79-1.72,6.97-4.39,9.64c-12.02,9.58-21.22,21.85-31.59,32.99
			c-16.84,18.09-33.47,36.37-50.19,54.57c-0.18-20.02,2.01-39.97,3.17-59.9c0.91-15.64,1.03-31.33,2.13-46.97
			C495.82,332.26,497.77,299.85,499.84,267.46z"/>
		<path class="st9" d="M94.59,548.16c3.04-5.24,6.97-1.82,10.43-0.89c38.48,10.32,76.93,20.75,115.4,31.12
			c3.41,0.92,6.89,1.56,10.34,2.32c-0.02,1.32-0.05,2.65-0.07,3.97c-5.1,34.88-10.16,69.77-15.34,104.64
			c-1.21,8.14-2.81,16.21-4.23,24.31c-1.33-1.44-2.85-2.74-3.96-4.33c-30.01-43.11-59.83-86.36-90.09-129.29
			c-5.55-7.87-9.52-17.17-18.12-22.7c0,0,0.25,0.05,0.25,0.04c0.48-2.34-0.08-4.15-2.56-4.99c0,0,0.35,0.33,0.35,0.33
			c-0.64-1-1.27-2-1.91-3C94.52,549.31,94.36,548.8,94.59,548.16z"/>
		<path class="st10" d="M488.25,471.51c16.72-18.2,33.36-36.48,50.19-54.57c10.37-11.15,19.57-23.41,31.59-32.99
			c-0.73,2.24-1.19,4.62-2.24,6.71c-22.89,45.13-43.24,91.5-67.37,136.01c-63.3-3.79-126.61-7.59-189.92-11.32
			c-1.87-0.11-3.78,0.57-5.67,0.88c0,0-0.02,0.29-0.02,0.29c0.33-0.71,0.66-1.43,0.99-2.14c3.07,0.03,6.39,0.88,8.4-2.54
			c23.32-4.44,46.66-8.8,69.2-16.5C418.74,489.06,453.51,480.36,488.25,471.51z"/>
		<path class="st11" d="M347.76,770.01c-25.95-18.86-51.97-37.63-74.11-61.07c11.29,0.4,21.58-4.11,32.33-6.39
			c5.68-1.21,6.08-5.05,6.03-9.73c-0.21-20.08-0.25-40.17-0.35-60.25c0.58-2.28,2.66-2.78,4.44-3.39
			c39.12-13.47,78.27-26.89,117.4-40.32c-6.85,15.27-21.06,24.19-31.54,36.32c-8.13,9.4-17.84,17.56-23.42,29.01
			c-5.96-0.48-8.98,4.41-12.93,7.31c-15.88,11.66-31.39,23.81-47.31,35.41c-4.91,3.57-4.97,5.63-0.28,9.45
			c14.04,11.42,27.73,23.26,41.55,34.94c0.58,10.26-9.14,17.08-9.19,27.13c0,0-0.09,0.04-0.09,0.04
			C349.45,768.98,348.6,769.5,347.76,770.01z"/>
		<path class="st12" d="M378.53,654.18c5.58-11.45,15.29-19.61,23.42-29.01c10.49-12.13,24.7-21.05,31.54-36.32
			c4.73-3.02,6.04,0.01,7.46,3.83c18.57,49.91,37.24,99.78,55.85,149.66c0.92,2.46,2.7,5.25-1.33,6.83c0,0-0.63-0.64-0.63-0.64
			c0.52-2.15-0.16-4.05-1.86-5.25c-15.77-11.12-29.79-24.58-46.45-34.49c-18.01-16.56-38.46-30.05-57.4-45.43
			C385.51,660.42,382.06,657.25,378.53,654.18z"/>
		<path class="st12" d="M342.93,841.98c-45.41-12.94-90.82-25.87-136.22-38.83c-1.99-0.57-3.39-1.9-3.99-3.95
			c2.2-3.56,1.38-7.6,1.78-11.43c2.46-23.69,4.88-47.37,7.32-71.06c24.59,22.94,49.18,45.87,73.77,68.81
			c3.9,9,12.04,14.1,18.86,20.43C317.33,817.9,330.11,829.96,342.93,841.98z"/>
		<path class="st4" d="M211.82,716.7c-2.44,23.69-4.87,47.38-7.32,71.06c-0.4,3.84,0.43,7.87-1.78,11.43
			c-18.76-42.93-37.56-85.84-56.26-128.79c-14.77-33.95-29.45-67.95-44.06-101.97c-1.52-3.55-3.96-6.91-3.45-11.12
			c8.59,5.53,12.57,14.83,18.11,22.7c30.26,42.94,60.08,86.18,90.09,129.29c1.11,1.59,2.63,2.89,3.96,4.33
			C211.36,714.66,211.59,715.68,211.82,716.7z"/>
		<path class="st13" d="M779.2,341.43c-14.27,32.69-32.66,63.32-48.26,95.35c-1.56,3.19-1.39,8.59-7.14,8.69
			c5.84-54.53,11.65-109.07,17.6-163.6c0.38-3.46,1.84-6.8,2.79-10.2C756.78,294.46,770.83,316.54,779.2,341.43z"/>
		<path class="st12" d="M354.69,773.67c22.09-4.1,44.19-8.17,66.27-12.35c2.23-0.42,4.32-1.58,6.48-2.39
			c22.87-0.92,44.8-7.83,67.42-10.39c0,0,0.63,0.64,0.63,0.64c-29.06,18.26-58.1,36.55-87.19,54.76
			c-11.42,7.15-22.95,14.1-34.44,21.14c-1.44-3.62-3.07-7.18-4.29-10.87C365.05,800.53,355.92,788.54,354.69,773.67z"/>
		<path class="st11" d="M354.69,773.67c1.22,14.87,10.35,26.86,14.87,40.54c1.22,3.69,2.85,7.25,4.29,10.87
			c-10.11,6-18.21,15.64-30.93,16.9c-12.82-12.02-25.59-24.08-38.47-36.03c-6.82-6.33-14.96-11.44-18.86-20.43
			C308.63,781.57,331.66,777.62,354.69,773.67z"/>
		<path class="st12" d="M350.38,768.42c0.05-10.05,9.76-16.87,9.19-27.13c6.59,0.03,12.32-3.02,17.85-5.83
			c5.83-2.97,15.92-1.3,16.82-9.43c0.81-7.33-17.75-19.25-26.42-18.83c-8.95,0.43-17.89,0.9-27.47-0.55
			c15.66-7.9,31.34-15.77,46.97-23.74c2.8-1.43,4.98-1.41,7.42,0.88c11.82,11.1,23.72,22.12,35.7,33.05
			c3.08,2.8,3.63,4.61-0.57,6.91C403.21,738.34,377.86,755.26,350.38,768.42z"/>
		<path class="st13" d="M542.06,573.43c20.12,8.35,36.85,22.19,55.49,33.87c-30.25,3.22-60.01,7.6-90.18,6.7
			c10.38-13.51,20.76-27.03,31.13-40.54C539.68,573.45,540.87,573.44,542.06,573.43z"/>
		<path class="st9" d="M299.38,572.77c18.6,11.11,37.19,22.22,55.79,33.33c-29.81,4.12-59.13,7.91-88.76,7.74
			c2.1-3.24,4.25-6.44,6.3-9.71c6.72-10.74,17.44-18.57,22.4-30.58C296.52,573.28,297.95,573.03,299.38,572.77z"/>
		<path class="st4" d="M299.38,572.77c-1.43,0.26-2.85,0.52-4.28,0.77c-20.26-0.3-39.65,6.67-59.82,7.13
			c21.42-23.27,45.77-43.41,69.53-64.17c0,0,0.03-0.29,0.02-0.29C303.02,535.07,301.2,553.92,299.38,572.77z"/>
		<path class="st1" d="M542.06,573.43c-1.19,0.01-2.37,0.02-3.56,0.03c-4.29,0.09-8.63-0.23-12.85,0.33
			c-14.93,1.96-29.83,4.23-44.74,6.38c3.93-10.05,12.8-16,20.33-22.62c15.41-13.53,29.12-28.96,45.97-40.86
			C546.77,535.72,541.57,554.32,542.06,573.43z"/>
		<path class="st6" d="M524.04,269.9c0.35-11.97-5.49-22.55-7.84-33.93c-0.96-4.65-1.62-9.14-1.52-13.81
			c27.63,21.32,55.26,42.64,82.88,63.96c0.04,0.44-0.07,0.84-0.35,1.18C572.83,281.49,548.43,275.7,524.04,269.9z"/>
		<path class="st11" d="M494.85,748.53c-22.61,2.56-44.55,9.47-67.42,10.39c6.36-16.71,12.73-33.42,19.1-50.13
			c16.67,9.91,30.68,23.37,46.45,34.49C494.7,744.48,495.37,746.38,494.85,748.53z"/>
		<path class="st12" d="M311.66,632.57c0.1,20.08,0.14,40.17,0.35,60.25c0.05,4.68-0.35,8.52-6.03,9.73
			c-10.75,2.29-21.04,6.79-32.33,6.39C285.01,682.84,297.78,657.43,311.66,632.57z"/>
		<path class="st3" d="M235.28,580.68c20.17-0.47,39.56-7.43,59.82-7.13c-4.97,12.01-15.69,19.84-22.4,30.58
			c-2.05,3.27-4.19,6.48-6.3,9.71c-10.82-4.44-16.29-14.89-24.86-21.84c-3.37-2.73-4.86-8.4-10.85-7.3
			c0.02-1.33,0.05-2.65,0.07-3.98c0,0,0.05-0.05,0.05-0.05C232.3,580.67,233.79,580.67,235.28,580.68z"/>
		<path class="st7" d="M480.9,580.17c14.91-2.15,29.8-4.41,44.74-6.38c4.22-0.56,8.56-0.24,12.85-0.33
			c-10.38,13.51-20.75,27.03-31.13,40.54c-11.4-10.18-23.45-19.74-31.52-33.06C477.53,580.69,479.21,580.43,480.9,580.17z"/>
		<path class="st4" d="M96.65,552.37c2.48,0.84,3.04,2.65,2.56,4.99C96.63,556.57,96.63,554.48,96.65,552.37z"/>
		<path class="st4" d="M95.08,549.7c0.64,1,1.27,2,1.91,3C95.31,552.36,95.06,551.12,95.08,549.7z"/>
		<path class="st12" d="M347.76,770.01c0.84-0.51,1.69-1.03,2.53-1.54C350.11,770.05,349.16,770.41,347.76,770.01z"/>
		<path class="st10" d="M524.04,269.9c24.39,5.79,48.78,11.59,73.17,17.39c-7.09,28.88-14.19,57.76-21.29,86.64
			c-0.5,0.12-1,0.25-1.5,0.38c-23.79-34.92-47.58-69.84-72.63-106.63C511.04,268.6,517.54,269.25,524.04,269.9z"/>
		<path class="st8" d="M314.21,511.83c-2.02,3.42-5.33,2.57-8.4,2.54c-23.41-42.74-46.82-85.47-70.23-128.21
			c23.73-14.39,50.02-23.42,74.93-35.35c6.07-2.91,12.25-5.5,17.74-9.43c47.29-20.75,94.57-41.55,141.9-62.22
			c8.24-3.6,16-8.59,25.3-9.42c-0.56,1.03-1,2.17-1.71,3.09c-36.73,47.34-73.49,94.66-110.25,141.98
			c-24.35,30.89-48.75,61.74-73.02,92.69C305.28,514.08,312.55,510.71,314.21,511.83z"/>
		<path class="st14" d="M383.47,414.8c36.75-47.32,73.51-94.64,110.25-141.98c0.71-0.92,1.15-2.05,1.71-3.09
			c0,0-0.07,0.11-0.07,0.11c0.83-0.66,1.66-1.32,2.49-1.97c0.65-0.2,1.32-0.34,2-0.41c-2.08,32.4-4.02,64.8-6.29,97.19
			c-1.1,15.64-1.22,31.33-2.13,46.97c-1.16,19.93-3.35,39.88-3.17,59.9c-34.74,8.85-69.52,17.55-104.85,23.83
			C387.45,468.49,386.85,441.65,383.47,414.8z"/>
		<path class="st8" d="M497.85,267.87c-0.83,0.66-1.66,1.32-2.49,1.97C496.19,269.19,497.02,268.53,497.85,267.87z"/>
		<path class="st9" d="M235.57,386.16c23.41,42.74,46.82,85.47,70.23,128.21c-0.33,0.71-0.66,1.43-0.99,2.14
			c-23.76,20.76-48.11,40.89-69.53,64.17c-1.49,0-2.98-0.01-4.47-0.01c3.43-65,1.95-130.07,2.51-195.11
			C234.08,385.74,234.83,385.94,235.57,386.16z"/>
		<path class="st6" d="M383.47,414.8c3.38,26.85,3.97,53.69-0.07,80.53c-22.53,7.7-45.88,12.05-69.2,16.5
			c-1.65-1.12-8.93,2.25-3.76-4.34C334.72,476.54,359.12,445.69,383.47,414.8z"/>
	</g>
	<g>
		<path d="M606.33,787.3l40.21,2.42c-1.89,17.57-8.38,31.04-19.47,40.42c-11.09,9.38-24.72,14.07-40.89,14.07
			c-19.46,0-35.17-6.44-47.14-19.32c-11.97-12.88-17.95-30.65-17.95-53.33c0-22.47,5.67-40.59,17.01-54.38
			c11.34-13.79,27.15-20.68,47.45-20.68c18.97,0,33.54,5.25,43.72,15.75c10.18,10.5,15.94,24.43,17.27,41.78l-41.05,2.2
			c0-9.59-1.84-16.52-5.51-20.79c-3.67-4.27-8-6.4-12.96-6.4c-13.86,0-20.79,13.93-20.79,41.78c0,15.61,1.8,26.21,5.41,31.81
			c3.6,5.6,8.66,8.4,15.17,8.4C598.42,811.03,604.93,803.12,606.33,787.3z"/>
		<path d="M768.74,842h-39.89c-0.98-4.55-1.47-9.52-1.47-14.91c-7.56,11.41-19,17.11-34.33,17.11c-12.6,0-22.03-3.22-28.29-9.66
			c-6.26-6.44-9.4-13.82-9.4-22.15c0-11.27,5.13-20.38,15.38-27.35c10.25-6.96,28.43-11.14,54.54-12.54v-2.42
			c0-4.69-1.07-7.8-3.2-9.34c-2.14-1.54-5.27-2.31-9.4-2.31c-9.66,0-15.05,3.88-16.17,11.65l-38.21-3.57
			c5.46-22.33,24.04-33.49,55.74-33.49c8.61,0,16.52,0.86,23.73,2.57c7.21,1.72,12.91,4.39,17.11,8.03
			c4.2,3.64,7.02,7.49,8.45,11.55c1.43,4.06,2.15,11.86,2.15,23.41v42.62C765.48,829.33,766.57,836.26,768.74,842z M725.28,792.03
			c-17.85,1.89-26.77,7.59-26.77,17.11c0,6.44,3.53,9.66,10.6,9.66c4.48,0,8.29-1.33,11.44-3.99c3.15-2.66,4.72-8.54,4.72-17.64
			V792.03z"/>
		<path d="M851.57,798.96l35.69,3.04c-1.68,12.46-6.91,22.61-15.69,30.45c-8.78,7.84-20.46,11.76-35.01,11.76
			c-16.31,0-29.55-5.13-39.73-15.38c-10.18-10.25-15.27-23.39-15.27-39.42c0-16.38,5.06-29.87,15.17-40.47
			c10.11-10.6,23.25-15.9,39.42-15.9c14.35,0,26.04,4.01,35.06,12.02c9.03,8.01,14.21,18.14,15.54,30.39l-36.64,3.04
			c-1.54-11.27-5.81-16.9-12.81-16.9c-4.48,0-7.75,2.05-9.82,6.14c-2.07,4.09-3.1,11.22-3.1,21.36c0,8.75,1.03,15.22,3.1,19.42
			c2.06,4.2,5.65,6.3,10.76,6.3C845.72,814.81,850.17,809.53,851.57,798.96z"/>
		<path d="M1007.15,842h-41.89v-64.25c0-5.88-0.65-9.92-1.93-12.13c-1.29-2.21-3.78-3.31-7.47-3.31c-2.86,0-5.35,0.86-7.47,2.57
			c-2.12,1.72-3.36,3.48-3.71,5.3c-0.35,1.82-0.52,5.63-0.52,11.44V842h-41.89V698.7h41.89v49.13c7.56-9.87,17.43-14.8,29.6-14.8
			c6.16,0,11.56,1.07,16.22,3.2c4.65,2.14,8.24,4.88,10.76,8.24s4.22,6.61,5.09,9.76c0.88,3.15,1.31,9.24,1.31,18.27V842z"/>
		<path d="M1136.9,842h-39.89c-0.98-4.55-1.47-9.52-1.47-14.91c-7.56,11.41-19,17.11-34.33,17.11c-12.6,0-22.03-3.22-28.29-9.66
			c-6.26-6.44-9.4-13.82-9.4-22.15c0-11.27,5.13-20.38,15.38-27.35c10.25-6.96,28.43-11.14,54.54-12.54v-2.42
			c0-4.69-1.07-7.8-3.2-9.34c-2.14-1.54-5.27-2.31-9.4-2.31c-9.66,0-15.05,3.88-16.17,11.65l-38.21-3.57
			c5.46-22.33,24.04-33.49,55.75-33.49c8.61,0,16.52,0.86,23.72,2.57c7.21,1.72,12.91,4.39,17.11,8.03
			c4.2,3.64,7.02,7.49,8.45,11.55c1.43,4.06,2.15,11.86,2.15,23.41v42.62C1133.65,829.33,1134.73,836.26,1136.9,842z
			 M1093.44,792.03c-17.85,1.89-26.77,7.59-26.77,17.11c0,6.44,3.53,9.66,10.6,9.66c4.48,0,8.29-1.33,11.44-3.99
			c3.15-2.66,4.72-8.54,4.72-17.64V792.03z"/>
		<path d="M1195.48,842h-40.1V735.23h34.85v22.05c3.99-16.03,13.26-24.04,27.82-24.04c1.47,0,3.5,0.14,6.09,0.42v37.27
			c-2.94-0.7-5.56-1.05-7.87-1.05c-13.86,0-20.79,7.73-20.79,23.2V842z"/>
		<path d="M1277.47,842h-40.1V735.23h34.85v22.05c3.99-16.03,13.26-24.04,27.82-24.04c1.47,0,3.5,0.14,6.09,0.42v37.27
			c-2.94-0.7-5.56-1.05-7.87-1.05c-13.86,0-20.79,7.73-20.79,23.2V842z"/>
		<path d="M1389.91,803.68l39.05,2.63c-2.31,10.5-8.21,19.44-17.69,26.82c-9.48,7.38-22.31,11.08-38.48,11.08
			c-17.99,0-32.33-5.2-43.04-15.59c-10.71-10.39-16.06-23.29-16.06-38.69c0-15.96,5.28-29.43,15.85-40.42
			c10.57-10.99,24.67-16.48,42.31-16.48c17.08,0,30.88,5.18,41.41,15.54c10.53,10.36,15.8,24.46,15.8,42.31
			c0,1.47-0.04,3.5-0.1,6.09h-71.49c0.14,6.72,1.33,11.71,3.57,14.96c2.24,3.25,6.51,4.88,12.81,4.88
			C1382.94,816.8,1388.3,812.43,1389.91,803.68z M1387.07,775.97c-0.07-7.21-1.52-12.05-4.34-14.54c-2.83-2.48-6.33-3.73-10.51-3.73
			c-9.9,0-14.86,6.09-14.86,18.27H1387.07z"/>
		<path d="M1485.54,842h-40.1V735.23h34.85v22.05c3.99-16.03,13.26-24.04,27.82-24.04c1.47,0,3.5,0.14,6.09,0.42v37.27
			c-2.94-0.7-5.56-1.05-7.87-1.05c-13.86,0-20.79,7.73-20.79,23.2V842z"/>
		<path d="M1579.61,844.21c-17.71,0-31.77-5.51-42.2-16.54c-10.43-11.02-15.64-23.95-15.64-38.79c0-15.96,5.44-29.25,16.33-39.89
			c10.88-10.64,25.04-15.96,42.46-15.96c17.57,0,31.69,5.25,42.36,15.75c10.67,10.5,16.01,23.66,16.01,39.47
			c0,15.96-5.41,29.27-16.22,39.95C1611.89,838.87,1597.52,844.21,1579.61,844.21z M1580.24,818.8c6.51,0,10.48-3.38,11.92-10.13
			c1.43-6.75,2.15-13.81,2.15-21.15c0-10.01-1.02-17.22-3.04-21.63c-2.03-4.41-5.67-6.61-10.92-6.61c-4.83,0-8.36,2.28-10.6,6.82
			c-2.24,4.55-3.36,12.04-3.36,22.46c0,12.25,1.15,20.35,3.46,24.3C1572.15,816.82,1575.62,818.8,1580.24,818.8z"/>
	</g>
</g>
</svg>
