<?xml version="1.0" encoding="utf-8"?>
<!-- Generator: Adobe Illustrator 26.0.1, SVG Export Plug-In . SVG Version: 6.00 Build 0)  -->
<svg version="1.1" id="Capa_1" xmlns="http://www.w3.org/2000/svg" xmlns:xlink="http://www.w3.org/1999/xlink" x="0px" y="0px"
	 viewBox="0 0 612 792" style="enable-background:new 0 0 612 792;" xml:space="preserve">
<style type="text/css">
	.st0{fill:#E5B50C;}
	.st1{fill:#0287B8;}
	.st2{fill:#A91D63;}
	.st3{fill:#1084C6;}
	.st4{fill:#03B0CD;}
	.st5{fill:#1DAFE6;}
	.st6{fill:#F5D500;}
	.st7{fill:#0464A2;}
	.st8{fill:#A31F60;}
	.st9{fill:#FECC04;}
	.st10{fill:#19903E;}
	.st11{fill:#D29414;}
	.st12{fill:#D4267F;}
	.st13{fill:#009846;}
	.st14{fill:#1A579F;}
	.st15{fill:#CE9811;}
	.st16{fill:#791F47;}
	.st17{fill:#105F31;}
	.st18{fill:#EB79AD;}
	.st19{fill:#8A1F4F;}
	.st20{fill:#05619D;}
	.st21{fill:#7ACDF3;}
	.st22{fill:#F196BF;}
	.st23{fill:#3FBCED;}
	.st24{fill:#AF9214;}
	.st25{fill:#4EAE3C;}
	.st26{fill:#149240;}
	.st27{fill:#417030;}
	.st28{fill:#1B7E38;}
	.st29{fill:#E75398;}
	.st30{fill:#176933;}
	.st31{fill:#FEEB1D;}
	.st32{fill:#0487B8;}
	.st33{fill:#CE9812;}
	.st34{fill:#115F31;}
	.st35{fill:#B51A67;}
	.st36{fill:#009946;}
	.st37{fill:#C61870;}
	.st38{fill:#BE9D13;}
	.st39{fill:#D2AC13;}
	.st40{fill:#0375B5;}
	.st41{fill:#CE1576;}
	.st42{fill:#9A1E5B;}
	.st43{fill:#D93B8B;}
	.st44{fill:#E0599B;}
	.st45{fill:#DD127C;}
	.st46{fill:#861F4F;}
	.st47{fill:#194356;}
</style>
<g>
	<g>
		<path class="st0" d="M115.95,401.65c-6.9-3.69-11.06-10.3-16.75-15.29c-6.47-0.07-12.43-2.42-18.54-4.05
			c-15.64-4.15-31.19-8.63-46.85-12.68c-1.96-0.51-3.77-1.3-5.42-2.45c-0.54-1.66-0.43-3.25,0.57-4.74
			c7.98-7.03,14-15.8,21.43-23.32c6.9-6.92,12.88-14.65,19.57-21.75c4.16-3.92,7.52-8.54,11.36-12.74
			c3.53-3.87,5.42-8.54,5.58-13.86c0.07-2.25-0.37-4.81,2.24-6.24c4.19-0.08,8.61-0.86,11.31,3.61c0.81,3.71,0.72,7.47,0.64,11.22
			c-0.51,25.07,1.2,50.17-1.06,75.22c-0.21,2.37-0.04,4.74,1,6.95c1.73,2.33,3.99,1.05,6.07,0.83c7.92-0.85,15.68-3.01,23.72-2.96
			c2.53,1.63,1.13,3.59,0.01,4.96C126.02,390.24,121.92,396.74,115.95,401.65z"/>
		<path class="st1" d="M283.34,237.81c3.62-13.6,7.21-27.2,10.92-40.78c0.36-1.3-0.62-3.94,2.51-3.4
			c4.89,7.99,7.41,16.98,10.83,25.56c13.15,32.98,26.42,65.91,39.23,99.03c0.19,0.92,0.11,1.81-0.38,2.63
			c-2.1,1.21-3.85-0.07-5.54-0.92c-7.22-3.64-14.69-6.81-21.59-11.05c-7.67-4.16-15.62-7.76-23.44-11.63
			c-6.02-3.55-12.27-6.69-18.55-9.78c-3.15-1.55-5.85-3.53-6.05-7.45c2.29-13.17,6.29-25.93,9.78-38.8
			C281.43,239.83,282.38,238.81,283.34,237.81z"/>
		<path class="st2" d="M144.76,352.6c-3.01-0.17-6.02-0.33-9.02-0.5c-1.82-0.3-2.59-1.74-3.35-3.11
			c-10.36-18.66-20.36-37.51-31-56.02c-0.88-1.53-1.61-3.18-1.52-5.04c-0.02-0.6,0.1-1.17,0.33-1.72
			c8.04-5.62,17.72-7.94,26.23-12.63c9.83-4.19,19.38-9.02,29.42-12.76c0.93-0.17,1.84-0.1,2.73,0.24c3.53,2.02,5.25,5.4,6.59,8.93
			c3.81,9.99,7.85,19.9,10.67,30.23c0.52,4.34-2.83,6.79-5.12,9.63c-8.98,11.13-17.77,22.39-26.6,33.63
			c-1.38,1.76-3.7,3.26-2.91,6.08C142.1,350.9,144.83,350.2,144.76,352.6z"/>
		<path class="st3" d="M319.62,307.87c8.8,4.36,17.59,8.73,26.39,13.09c1.78-0.98,3.08,0.24,4.34,1.06
			c19.85,12.88,40.26,24.88,60.07,37.82c1.18,0.77,2.2,1.69,3.16,2.7c-0.16,1.48-1.34,1.81-2.5,2.11
			c-29.09,7.56-58.18,15.13-87.28,22.66c-0.56,0.14-1.18,0.02-1.78,0.02c-1.77-2.65,0.02-4.93,0.86-7.25
			c6.72-18.36,13.72-36.63,20.61-55.31c-5.92,3.39-11.48,6.51-17.06,9.61c-2.28,1.27-4.67,2.62-7.07,0.1
			C317.05,325.58,316.48,316.71,319.62,307.87z"/>
		<path class="st4" d="M345.95,318.72c-5.11-12.34-10.37-24.63-15.31-37.04c-10.91-27.43-21.65-54.93-32.49-82.39
			c-0.73-1.84-1.63-3.6-1.37-5.66c19.72,11.52,39.43,23.03,59.14,34.57c0.48,0.28,0.77,0.86,1.15,1.3c2.3,7.3,0.04,14.49-0.75,21.67
			c-2.4,21.98-4.63,43.97-7.86,65.86C347.93,318.06,347.32,318.94,345.95,318.72z"/>
		<path class="st5" d="M345.95,318.72c0.47-0.46,0.93-0.91,1.4-1.37c7.3-16.18,15.68-31.83,23.93-47.54
			c0.99-1.89,1.39-4.81,4.72-4.48c12.78,32.31,25.83,64.51,37.58,97.21c-6.68-1.92-11.76-6.64-17.51-10.11
			c-16.87-10.19-33.4-20.94-50.06-31.47C345.99,320.21,345.97,319.46,345.95,318.72z"/>
		<path class="st6" d="M28.39,367.2c12.1,1.34,23.37,5.99,35.13,8.7c11.38,2.62,22.57,6.05,33.84,9.18
			c0.68,0.19,1.23,0.85,1.85,1.29c-3.2,11.29-3.89,23-5.96,34.49c-1.84,10.2-3.41,20.45-5.1,30.67c-2.99,0.15-4.05-2.23-5.35-4.12
			c-15.15-22.05-30.63-43.87-46.14-65.67c-2.28-3.2-3.37-7.1-6.23-9.92C29.74,370.27,29.06,368.73,28.39,367.2z"/>
		<path class="st7" d="M272.57,280.56c0.18,3.06,2.6,4.11,4.88,5.3c6.43,3.38,12.86,6.77,19.28,10.16c1.84,2.55,1.87,5.48,1.88,8.44
			c0.01,11.54-0.03,23.07,0.02,34.61c0.01,3.12-0.12,6.31,2.3,8.84c2.32,7.82,1.2,15.78,0.85,23.7c-0.13,2.91-2.28,4.36-5.01,5.01
			c-8.44-3.53-16.84-7.17-25.35-10.55c-3.16-1.26-2.52-3.61-2.44-5.89c0.74-20.89,1.52-41.78,2.27-62.68
			c0.1-2.76,0.06-5.52,0.09-8.28c-0.7-0.89-1.6-1.65-1.85-2.83c-0.31-2.11,0.27-3.99,1.5-5.7
			C271.49,280.27,272.02,280.24,272.57,280.56z"/>
		<path class="st8" d="M271.7,280.81c-0.38,1.94-0.76,3.88-1.14,5.83c-0.31,0.49-0.7,0.91-1.15,1.28
			c-12.26,12.92-23.95,26.36-36.24,39.24c-1.55,1.63-3.12,6.41-6.4,1.32c-0.54-9.27,0.57-18.48,1.06-27.69
			c1.01-19.25,2.34-38.49,3.17-57.75c0.21-4.94,1.55-9.74,1.29-14.69c-1.82-8.25-3.42-16.54-5.04-24.83
			c-0.48-2.47-1.28-5.05,0.89-7.23c2.13,1.06,4.42,1.89,5.88,3.92c-0.71,6.61,2.42,12.43,3.97,18.57c0.76,3.02,1.82,5.97,0.6,9.07
			c-2.36,2.13,0.07,3.42,1.01,4.84c9.3,14.17,19.22,27.93,28.77,41.94C269.67,276.57,271.2,278.42,271.7,280.81z"/>
		<path class="st9" d="M100.11,287.58c11.87,21.51,23.75,43.01,35.62,64.52c-0.02,0.29-0.15,0.52-0.39,0.69
			c-4.96,8.3-13.67,12.92-20.11,19.81c-2.91,3.11-6.58,5.63-9.68,8.67c-1.37,1.35-2.68,3-5.03,2.56c-4.71-3.71-2.28-8.75-2.06-13.12
			c0.15-2.86,0.75-5.79,0.75-8.73c0.02-24.77,0.02-49.55,0.02-74.32C99.47,287.15,99.76,287.1,100.11,287.58z"/>
		<path class="st10" d="M206.76,449.88c0.07-2.17-1.75-2.92-3.12-3.96c-10.71-8.16-21.43-16.3-32.15-24.44
			c1.73-5.97,6.93-9.42,10.74-13.77c5.46-6.24,11.77-11.77,17.15-18.14c2.28-1.75,3.7-1.58,4.82,1.41
			c9.43,25.16,18.99,50.28,28.49,75.42c0.42,1.12,0.7,2.35-0.98,2.83c-0.25-0.13-0.5-0.26-0.75-0.38
			C223.29,462.01,214.67,456.38,206.76,449.88z"/>
		<path class="st11" d="M100.11,287.58c-0.28,0.1-0.57,0.13-0.87,0.1c-3.38-1.84-7.23-1.51-10.83-2.32
			c-5.26,2.88-10.56-0.15-15.84,0.07c-1.57,0.07-3.08-0.84-4.72-0.75c-5.61-0.1-11.12-1.08-16.65-1.86
			c-0.99-0.51-1.88-1.09-1.47-2.42c16.1-19.89,32.49-39.54,49.34-58.83c2.17,1.97,1.98,4.62,2.05,7.15
			c0.44,16.72-0.89,33.47,1.13,50.16c0.33,2.73,0.13,5.55-1.88,7.83C100.29,287,100.2,287.29,100.11,287.58z"/>
		<path class="st12" d="M100.38,286.72c-1.16-19.33-0.83-38.69-1.11-58.04c-0.03-2.37-0.13-4.74-0.2-7.11
			c0.37-0.17,0.73-0.34,1.1-0.52c8.73-1.21,17.42-1.67,25.99,1.08c2.31,2.28,2.59,5.22,2.62,8.19c0.13,12.54,0.07,25.09,0.04,37.64
			c-0.01,2.41-0.53,4.66-1.89,6.69C118.45,279.45,109.29,282.82,100.38,286.72z"/>
		<path class="st13" d="M88.35,452.71c12.42,11.55,24.84,23.09,37.26,34.64c9.76,7.81,18.46,16.78,27.93,24.91
			c0.89,0.77,1.62,1.78,1.06,3.11c-10.26-1.59-19.94-5.28-29.87-8.05c-11.89-3.32-23.76-6.71-35.6-10.23
			c-1.92-0.57-4.63-0.19-5.37-2.98c-1.64-12.49,1.44-24.75,1.9-37.13C85.72,455.17,86.38,453.47,88.35,452.71z"/>
		<path class="st14" d="M296.77,376.6c3.15-2.3,3.8-5.42,3.65-9.14c-0.26-6.42-0.08-12.85-0.09-19.28
			c-0.48-1.71,0.81-2.57,1.92-3.19c6.11-3.4,11.75-7.69,18.58-9.78c8.52-3.36,15.85-8.94,25.25-13.34
			c-8.25,22.44-16.16,43.95-24.08,65.46C313.25,384.53,304.95,380.7,296.77,376.6z"/>
		<path class="st15" d="M88.35,452.71c-2.1,11.41-2.18,23.03-3.55,34.52c-0.28,2.31,0.33,4.74-1.04,6.89
			c-10.85-24.6-21.76-49.18-32.52-73.81c-7.04-16.12-13.88-32.32-20.82-48.49C36,376,38.8,382.32,42.68,387.76
			c14.27,19.96,28.19,40.17,42.28,60.26c0.9,1.28,2.11,2.34,3.18,3.5C88.21,451.92,88.28,452.31,88.35,452.71z"/>
		<path class="st16" d="M144.76,352.6c-1.17-1.46-3.65-0.07-4.59-2.04c6.06-3.77,13.16-4.23,19.85-5.83
			c12.18-2.91,24.41-5.67,36.63-8.42c10.06-1.8,19.66-6.02,30.14-5.7c1.08,0.55,2.13,1.21,2.47,2.43
			c2.17,7.94,5.14,15.71,5.47,24.06c-0.19,0.27-0.38,0.54-0.57,0.81C204.36,356.14,174.56,354.37,144.76,352.6z"/>
		<path class="st17" d="M199.37,389.56c-0.51,3.87-3.57,6.07-5.97,8.65c-7.25,7.81-14.61,15.51-21.92,23.26
			c-10.49,7.66-20.97,15.31-31.46,22.97c-2.58-0.55-2.75-2.75-2.75-4.58c0-9.68-1.45-19.44,1.56-28.96
			c4.55-3.36,10.12-4.26,15.3-6.05C169.18,399.65,184.29,394.64,199.37,389.56z"/>
		<path class="st18" d="M167.85,206.92c11.06-3.09,22.32-5.27,33.67-7.05c3.63-1.06,3.37,1.53,3.25,3.59
			c-0.25,4.3-0.29,8.59-0.23,12.89c0.09,6.73,0.83,7.52,7.67,8.68c2.16,0.37,4.34,0.46,6.52,0.55c3.25,0.13,5.74,1.38,7.06,4.45
			c0.61,1.69-0.43,2.64-1.74,3.24c-10.47,4.74-20.64,10.19-31.75,13.45c-0.78,0.23-1.57,0.1-2.34-0.18
			c-2.71-3.59-0.73-7.58-0.77-11.32c-0.06-5.04-1.89-7.65-7.08-8.14c-2.96-0.28-5.93-0.5-8.9-0.68c-4.22-0.25-7.18-2.05-8.05-6.42
			C165.02,215.42,163.88,210.66,167.85,206.92z"/>
		<path class="st19" d="M271.7,280.81c-8.24-9.57-14.72-20.37-22-30.61c-4.11-5.78-8.03-11.69-11.89-17.63
			c-0.8-1.22-3.74-2.85-0.03-4.26c5.72-1.85,10.77,1.5,16.18,2.02c9.65,2.13,19.64,3.02,28.67,7.47c0.24-0.04,0.48-0.03,0.71,0.02
			c-3.59,14.25-7.18,28.5-10.77,42.75C272.28,280.64,271.99,280.73,271.7,280.81z"/>
		<path class="st20" d="M269.35,286.53c0.4,0.03,0.8,0.06,1.2,0.1c0.87,0.68,0.85,1.61,0.79,2.57c-4.17,12.48-5.39,25.59-8.27,38.34
			c-1.82,8.05-3.33,16.17-4.99,24.25c-0.99,1.93-2.24,3.64-3.77,5.22c-7.38,7.66-15.91,14.1-23.48,21.57
			c-1.92,1.9-4.02,4.44-7.48,3.89c-0.09-0.01-0.2-0.27-0.2-0.42c-0.01-0.19,0.07-0.38,0.12-0.57c3.63-7.86,7.26-15.71,10.89-23.57
			c0,0-0.02-0.48-0.02-0.48c2.3-8.21,6.82-15.47,10.31-23.16c6.12-13.49,13.73-26.29,19.66-39.89
			C265.37,291.52,267.02,288.77,269.35,286.53z"/>
		<path class="st21" d="M376,265.32c-4.2,5.04-6.54,11.11-9.52,16.82c-5.21,9.98-10.25,20.04-15.4,30.04
			c-0.97,1.89-1.48,4.15-3.73,5.16c1.31-12.81,2.53-25.63,3.95-38.43c1.38-12.41,2.97-24.79,4.44-37.18
			c0.48-4.07,0.88-8.15,1.31-12.23C363.37,241.44,369.68,253.38,376,265.32z"/>
		<path class="st22" d="M225.62,230.76c-4.61-5.61-11.55-3.05-17.31-4.55c-4.04-1.05-5.88-2.44-5.54-6.59
			c0.48-5.82-0.71-11.72,0.71-17.51c0.4-1.65-0.73-1.99-1.96-2.25c8.12-1.88,16.24-3.79,24.37-5.63c1.59-0.36,2.1,0.71,2.24,2.04
			c0.56,10.63,3.98,20.77,5.65,31.21c-0.31,0.76-0.72,1.45-1.4,1.95C230.22,230.36,228.31,232.54,225.62,230.76z"/>
		<path class="st23" d="M255.47,375.55c-0.44,3.7,1.03,6.05,4.43,7.98c8.08,4.58,15.9,9.61,25.48,15.47
			c-16.74,1.01-31.69,1.91-46.65,2.8c-1.57,0.09-2.57-0.89-3.57-1.88c-4.22-4.19-8.45-8.36-12.65-12.58
			c-0.93-0.94-2.3-1.9-0.68-3.39c6.34-0.94,12.63-2.22,19.01-2.99C246.18,380.33,251.49,379.7,255.47,375.55z"/>
		<path class="st24" d="M49.74,280.4c0.44,0.46,0.88,0.93,1.32,1.39c1.92,2.08,1.91,4.67,1.92,7.23
			c0.06,14.34,0.02,28.68,0.03,43.02c0,2.81-0.41,5.48-1.91,7.91c-5.84,6.72-11.61,13.51-17.6,20.11c-1.06,1.17-1.75,4.03-4.54,2.4
			c6.33-26.17,12.65-52.34,19.08-78.48C48.33,282.79,48.13,281.09,49.74,280.4z"/>
		<path class="st25" d="M163.95,465.6c4.65-1.83,9.22-3.89,13.98-5.4c3.69-1.17,2.85-2.24,1.1-4.77c-3.99-5.79-8.76-8.58-16.08-6.89
			c-3.02,0.7-6.35,0.12-11.38,0.12c9.65-4.79,17.93-8.85,26.16-13.01c1.75-0.88,2.58,0.25,3.58,1.16
			c5.74,5.24,11.43,10.52,17.2,15.73c1.73,1.56,2.77,2.68-0.13,4.27c-13.78,7.58-27.49,15.3-41.22,22.98
			C157.2,474.02,160.26,469.66,163.95,465.6z"/>
		<path class="st26" d="M231.7,469.22c-16.21,10.64-32.72,20.83-49.48,30.63c-3.88-1.06-5.31-4.23-6.77-7.45
			c-1.84-4.07-2.88-8.4-4.24-12.62c7.19-1.42,14.38-2.9,21.59-4.23c1.98-0.37,3.92-0.52,5.01-2.5c8.97-1.44,17.86-3.34,26.84-4.71
			c2.33-0.36,4.69-1.05,6.83,0.62L231.7,469.22z"/>
		<path class="st27" d="M163.95,465.6c-2.26,4.73-4.52,9.46-6.78,14.19c-13.16-9.47-26.3-18.96-37.6-30.64
			c6.43-2.83,12.93-5.27,20.19-3.77C147.82,452.12,155.89,458.86,163.95,465.6z"/>
		<path class="st28" d="M171.21,479.78c1.87,0.24,2.43,1.33,2.75,3.13c1.15,6.37,3.58,12.2,8.26,16.94
			c-6.42,3.96-12.83,7.93-19.25,11.89c-1.6-0.4-3.05-1.19-3.8-2.6c-4.27-8.11-8.82-16.15-8.33-25.76
			C157.52,481.56,164.31,480.36,171.21,479.78z"/>
		<path class="st29" d="M167.85,206.92c-1.58,4.29-1.1,8.76-1.2,13.18c-0.97,4.03-4.08,4.93-7.7,5.17c-2.4,0.16-4.8-0.08-7.19,0.15
			c-6.88-0.03-13.77,0.39-20.58-0.98c-1.93-0.39-3.9-0.6-5.45-1.97c-8.58,0.64-16.99-1.65-25.55-1.41
			c20.06-5.15,40.46-8.76,60.74-12.87C163.22,207.71,165.54,207.34,167.85,206.92z"/>
		<path class="st30" d="M150.84,483.37c2.15,5.63,3.15,11.59,5.63,17.17c1.79,4.02,3.65,7.84,6.5,11.19
			c-2.46,1.95-4.78,4.21-8.37,3.63c-8.39-7.67-16.81-15.31-25.16-23.03c-1.54-1.42-3.59-2.56-3.83-4.99
			C134.02,486.02,142.43,484.69,150.84,483.37z"/>
		<path class="st31" d="M115.95,401.65c2.99-6.17,8.3-10.63,12.2-16.13c1.23-1.73,2.37-3.52,3.56-5.28c-0.46-0.88-0.08-1,0.71-0.75
			c6.75,5.91,15.03,9.52,22.39,14.52c2.07,1.41,4.63,2.17,6.6,4.93C145.93,399.89,131.01,401.71,115.95,401.65z"/>
		<path class="st32" d="M255.47,375.55c-0.86,4.28-3.4,5.78-7.9,6.1c-6.52,0.46-12.96,2.06-19.45,3.06c-2.12,0.33-4.37,1-6.28-0.75
			c0.48-0.83,0.95-1.65,1.43-2.48c3.76-0.68,6.16-3.37,8.76-5.75c8.69-7.97,17.37-15.95,26.05-23.93
			C257.21,359.71,256.34,367.63,255.47,375.55z"/>
		<path class="st33" d="M132.41,379.49c-0.35,0.12-0.59,0.37-0.71,0.75c-9.14,1.49-18.28,2.98-27.41,4.49
			c-1.4,0.23-2.78,0.49-3.77-0.89c11.61-10.35,23.21-20.7,34.82-31.05C134.37,361.69,133.39,370.59,132.41,379.49z"/>
		<path class="st34" d="M231.48,468.95c-8.92,1.53-17.83,3.17-26.79,4.5c-2.21,0.33-4.77,2.31-6.88-0.41
			c2.98-7.72,5.96-15.44,8.94-23.16c5.03,0.13,7.88,4.16,11.04,6.9C222.38,460.78,229.07,462.6,231.48,468.95z"/>
		<path class="st35" d="M253.47,231.73c-5.23-1.14-10.46-2.29-15.69-3.43c0.23-7.35-2.76-13.98-4.99-20.74
			c-0.97-2.93-0.96-5.18,1.22-7.36c6.6,3.95,12.39,8.92,18.16,13.91c0.87,3.82,1.19,7.73,2.33,11.51
			C255.11,227.7,255.15,229.92,253.47,231.73z"/>
		<path class="st36" d="M139.76,445.38c-6.78,0.99-13.25,3.6-20.19,3.77c5.81-13.05,12.26-25.79,19.27-38.25
			c0.08,9.28,0.14,18.57,0.27,27.85c0.03,1.92-0.58,3.98,0.91,5.69C140.04,444.78,139.95,445.09,139.76,445.38z"/>
		<path class="st37" d="M253.47,231.73c0.17-3.57-0.41-7.01-1.83-10.3c-1.1-2.55-0.75-4.96,0.52-7.33
			c10.55,7.4,20.69,15.32,30.47,23.68C272.91,235.77,263.19,233.75,253.47,231.73z"/>
		<path class="st38" d="M51.1,339.94c-0.01-19.38-0.03-38.77-0.04-58.15c5.71-0.82,11.19,1.57,16.87,1.2
			c1.79,1.46,2.81,3.35,2.84,5.61c0.12,9.99,0.8,19.98-0.4,29.95C64.17,325.88,58.3,333.49,51.1,339.94z"/>
		<path class="st39" d="M70.36,318.55c-2.12-1.94-1.06-4.46-1.2-6.72c-0.61-9.61,1.19-19.31-1.23-28.84
			c6.83,0.79,13.66,1.58,20.48,2.37C90.57,300.73,79.59,309.18,70.36,318.55z"/>
		<path class="st40" d="M320.83,335.21c-4.41,4.11-10.08,6.2-15.16,9.25c-1.86,1.12-3.57,2.47-5.34,3.72
			c-4.17,0.3-3.59-2.64-3.59-5.15c-0.01-15.67-0.01-31.35-0.01-47.02c7.58,4.04,15.73,7.02,22.89,11.85
			C320.3,316.97,318.19,326.19,320.83,335.21z"/>
		<path class="st41" d="M196.83,337.56c-18.71,5.07-37.64,9.22-56.66,13c-4.13-1.2-1.11-2.72-0.12-3.98
			c11.04-14.08,22.1-28.13,33.19-42.17c0.86-1.09,1.85-2.07,1.98-3.53c3.86-8.58,10.93-14.85,16.55-22.16c1-1.3,2.76-1.52,4.39-0.56
			c3.22,2.74,3.51,6.53,3.56,10.28c0.14,12.6,0.1,25.2,0.02,37.79C199.72,330.24,198.79,334.03,196.83,337.56z"/>
		<path class="st42" d="M194.26,278.17c-6.34,7.57-12.69,15.14-19.03,22.71c-3.24-8.51-6.69-16.96-9.66-25.57
			c-1.74-5.05-3.83-9.79-7.38-13.84c-0.19-1.44,0.8-2.23,1.87-2.7c8.72-3.86,17.39-7.81,26.12-11.64c1.49-0.66,3.15-0.33,4.63-0.9
			c11.68-4.99,23.55-9.56,34.81-15.47c2.44-0.79,4.88-1.57,7.32-2.36c0.53,2.02-0.82,3.37-1.88,4.74
			c-10.9,14.13-22.02,28.09-33.18,42.03C196.88,276.42,195.86,277.63,194.26,278.17z"/>
		<path class="st43" d="M125.73,222.47c8.83,0.31,17.6,1.85,26.48,1.19c2.52,1.32,3.88,3.5,3.96,6.2c0.31,10.6,0.85,21.21-0.27,31.8
			c-9.36,4.97-19.13,9.05-28.96,12.99c0-14.12-0.05-28.23,0.04-42.35C126.99,228.94,126.76,225.67,125.73,222.47z"/>
		<path class="st44" d="M155.9,261.66c-2.67-6.21-0.64-12.72-1.25-19.06c-0.61-6.34,1.61-13.03-2.44-18.94
			c5.02-0.39,10.64,1.6,14.44-3.55c0.57,3.59,2.92,4.87,6.35,4.72c4.18-0.18,8.26,0.68,12.38,1.04c4.37,0.38,5.33,2.63,5.37,6.13
			c0.05,4.75,0.04,9.49,0.06,14.24c-9.2,5.01-18.99,8.77-28.54,13.04c-1.41,0.63-2.72,1.46-4.08,2.2
			C157.42,261.53,156.66,261.6,155.9,261.66z"/>
		<path class="st45" d="M194.26,278.17c12.89-16.59,25.79-33.18,38.68-49.77c0.28-0.31,0.56-0.61,0.84-0.92
			c-0.81,15.88-1.2,31.78-2.59,47.61c-0.79,9.01-0.43,18.04-1.6,27.05c-1.21,9.33-1.09,18.82-1.55,28.24
			c-0.1,0.82-0.79,0.87-1.39,1.03c-9.94,2.05-19.87,4.1-29.81,6.15c-1.77-3.93,1.45-7.23,1.31-11.13
			c-0.43-12.76-0.14-25.54-0.18-38.32C197.95,284.39,197.96,280.59,194.26,278.17z"/>
		<path class="st46" d="M226.64,331.41c0.46-0.34,0.93-0.69,1.39-1.03c8.45-9.1,16.87-18.23,25.37-27.28
			c5.24-5.58,9.95-11.68,15.94-16.57c-11.23,23.88-22.53,47.72-35.2,70.9C231.24,348.87,230.63,339.67,226.64,331.41z"/>
	</g>
	<g>
		<path class="st47" d="M57.53,567.9c-4.64,5.98-6.96,13.94-6.96,23.86c0,11.64,2.87,20.39,8.61,26.25
			c-4.35-1.83-7.81-5.15-10.38-9.95c-2.56-4.76-3.85-10.13-3.85-16.11c0-4.11,0.67-7.89,2.01-11.35c1.26-3.42,2.77-6.08,4.52-8
			C53.11,570.77,55.13,569.21,57.53,567.9z M108.31,610.39h1.22l-1.95,10.31c-3.78,1.46-7.43,2.54-10.93,3.23
			c-3.5,0.69-6.88,1.04-10.13,1.04c-9.85,0-17.56-2.87-23.13-8.61c-5.58-5.7-8.36-13.98-8.36-24.84c0-10.82,2.99-19.1,8.97-24.84
			c5.94-5.7,13.79-8.54,23.56-8.54c7.08,0,14.24,1.28,21.48,3.84c-0.33,5.13-0.49,8.16-0.49,9.09c0,0.85,0.02,1.69,0.06,2.5v1.46
			c0,2.12-0.1,4.13-0.31,6.04h-1.04c-2.52-12.29-9.56-18.43-21.12-18.43c-7.81,0-14.04,2.54-18.68,7.63
			c-4.64,5.05-6.96,12.33-6.96,21.85c0,8.34,2.14,15.12,6.41,20.32c4.23,5.21,10.62,7.81,19.17,7.81c4.72,0,9.03-0.94,12.94-2.81
			C102.9,615.67,105.99,613.32,108.31,610.39z"/>
		<path class="st47" d="M124.61,601.35c-2.56,3.21-3.85,6.73-3.85,10.56c0,4.52,1.59,8.22,4.76,11.11
			c-2.48-0.57-4.68-1.81-6.59-3.72c-1.99-1.87-2.99-4.31-2.99-7.32C115.94,606.72,118.83,603.18,124.61,601.35z M143.59,599.28
			v-6.47c0-2.93-0.59-5.23-1.77-6.9c-1.22-1.63-3.58-2.44-7.08-2.44c-5.45,0-10.05,2.05-13.79,6.17l-1.53-1.46
			c1.5-2.56,3.89-4.68,7.14-6.35c3.25-1.59,6.63-2.38,10.13-2.38c7.61,0,11.41,4.15,11.41,12.45v31.74
			c-1.87,0.08-3.44,0.33-4.7,0.73l0.18-3.23c-2.04,2.16-4.46,3.23-7.26,3.23c-3.21,0-5.9-1.26-8.06-3.78
			c-2.2-2.52-3.3-5.37-3.3-8.54c0-3.66,1.34-6.79,4.03-9.4c2.6-2.6,6.08-3.91,10.44-3.91C140.82,598.73,142.2,598.91,143.59,599.28z
			 M143.59,618.56v-15.93c-1.34-0.16-2.48-0.24-3.42-0.24c-3.21,0-5.72,0.98-7.51,2.93c-1.79,1.99-2.69,4.27-2.69,6.84
			c0,2.32,0.75,4.29,2.26,5.92c1.55,1.71,3.42,2.56,5.62,2.56C139.8,620.64,141.72,619.95,143.59,618.56z M163.85,624.36
			l-11.72-0.73v-31.68c0-3.21-0.3-5.57-0.92-7.08c-0.69-1.55-1.89-2.87-3.6-3.97c3.54,0.69,5.94,1.95,7.2,3.78
			c1.26,1.87,1.89,5.23,1.89,10.07v18.86c0,3.21,0.45,5.51,1.34,6.9c0.86,1.38,2.79,2.3,5.8,2.75V624.36z"/>
		<path class="st47" d="M180.7,583.77c-4.19,3.82-6.29,9.79-6.29,17.88c0,7.73,1.79,13.57,5.37,17.52c-3.38-1.42-5.94-3.83-7.69-7.2
			c-1.79-3.46-2.69-6.9-2.69-10.31c0-2.69,0.51-5.29,1.53-7.81c0.98-2.52,2.16-4.48,3.54-5.86
			C175.9,586.56,177.97,585.16,180.7,583.77z M216.83,609.59h2.38c-1.18,4.48-3.48,8.12-6.9,10.92c-3.5,2.89-7.81,4.33-12.94,4.33
			c-4.64,0-8.34-0.94-11.11-2.81c-2.85-1.91-5.17-4.46-6.96-7.63c-1.87-3.21-2.81-7.22-2.81-12.02c0-6.67,1.83-12.17,5.49-16.48
			c3.58-4.31,9.32-6.47,17.21-6.47c5.53,0,11.03,1,16.48,2.99c0,0.41-0.04,0.98-0.12,1.71c-0.04,0.45-0.06,0.81-0.06,1.1
			c0,1.38,0.1,3.23,0.3,5.55c0.12,1.38,0.18,2.34,0.18,2.87c0,0.69-0.1,1.75-0.3,3.17h-1.28c-0.98-4.48-2.97-7.91-5.98-10.31
			c-2.97-2.36-6.53-3.54-10.68-3.54c-4.72,0-8.61,1.59-11.66,4.76c-3.09,3.13-4.64,7.57-4.64,13.31c0,5.62,1.38,10.29,4.15,14.04
			c2.73,3.7,6.75,5.55,12.08,5.55C207.04,620.64,212.76,616.96,216.83,609.59z"/>
		<path class="st47" d="M236.24,549.84v73.79c-2.6,0.08-6.51,0.33-11.72,0.73v-1.1c2.97-0.85,4.9-2.34,5.8-4.46
			c0.9-2.03,1.34-5.84,1.34-11.41v-43.7c0-4.48-0.47-7.69-1.4-9.64c-0.98-1.83-2.87-3.11-5.68-3.85v-1.04
			C229.95,549.53,233.84,549.76,236.24,549.84z M240.21,623.63v-73.79c1.55,0,3.34-0.1,5.37-0.31c-0.53,8.99-0.79,14.77-0.79,17.33
			v15.56c3.74-1.99,7.96-2.99,12.63-2.99c3.26,0,6.27,0.9,9.03,2.69c2.73,1.75,4.09,5.21,4.09,10.38v31.13h-5.07
			c0.37-6.31,0.55-11.45,0.55-15.44v-12.21c0-3.34-0.22-5.8-0.67-7.39c-0.41-1.46-1.42-2.73-3.05-3.78
			c-1.59-0.98-3.56-1.46-5.92-1.46c-4.07,0-7.93,0.88-11.6,2.63v23.38c0,4.6,0.39,7.75,1.16,9.46c0.81,1.83,2.63,3.32,5.43,4.46v1.1
			C245.23,623.87,241.51,623.63,240.21,623.63z M274.63,623.63v-31.07c0-3.62-0.39-6.21-1.16-7.75c-0.81-1.59-2.3-2.91-4.46-3.97
			c3.7,0.28,6.33,1.34,7.87,3.17c1.46,1.75,2.2,4.8,2.2,9.15v18.8c0,6.59,2.54,10.36,7.63,11.29v1.1
			C282.16,623.95,278.13,623.71,274.63,623.63z"/>
		<path class="st47" d="M301.91,601.35c-2.56,3.21-3.84,6.73-3.84,10.56c0,4.52,1.59,8.22,4.76,11.11
			c-2.48-0.57-4.68-1.81-6.59-3.72c-1.99-1.87-2.99-4.31-2.99-7.32C293.25,606.72,296.13,603.18,301.91,601.35z M320.89,599.28
			v-6.47c0-2.93-0.59-5.23-1.77-6.9c-1.22-1.63-3.58-2.44-7.08-2.44c-5.45,0-10.05,2.05-13.79,6.17l-1.53-1.46
			c1.5-2.56,3.89-4.68,7.14-6.35c3.26-1.59,6.63-2.38,10.13-2.38c7.61,0,11.41,4.15,11.41,12.45v31.74
			c-1.87,0.08-3.44,0.33-4.7,0.73l0.18-3.23c-2.04,2.16-4.46,3.23-7.26,3.23c-3.21,0-5.9-1.26-8.06-3.78
			c-2.2-2.52-3.29-5.37-3.29-8.54c0-3.66,1.34-6.79,4.03-9.4c2.6-2.6,6.08-3.91,10.44-3.91
			C318.13,598.73,319.51,598.91,320.89,599.28z M320.89,618.56v-15.93c-1.34-0.16-2.48-0.24-3.42-0.24c-3.21,0-5.72,0.98-7.51,2.93
			c-1.79,1.99-2.69,4.27-2.69,6.84c0,2.32,0.75,4.29,2.26,5.92c1.55,1.71,3.42,2.56,5.62,2.56
			C317.11,620.64,319.02,619.95,320.89,618.56z M341.16,624.36l-11.72-0.73v-31.68c0-3.21-0.3-5.57-0.92-7.08
			c-0.69-1.55-1.89-2.87-3.6-3.97c3.54,0.69,5.94,1.95,7.2,3.78c1.26,1.87,1.89,5.23,1.89,10.07v18.86c0,3.21,0.45,5.51,1.34,6.9
			c0.86,1.38,2.79,2.3,5.8,2.75V624.36z"/>
		<path class="st47" d="M357.94,580.11v43.52c-5.98,0.08-10.03,0.33-12.15,0.73v-1.1c3.3-1.18,5.41-2.62,6.35-4.33
			c0.98-1.79,1.46-4.98,1.46-9.58V593.6c0-4.35-0.57-7.47-1.71-9.34c-1.18-1.91-3.21-3.17-6.1-3.79v-1.04
			C347.06,579.68,351.11,579.91,357.94,580.11z M362.34,623.63v-43.52c1.34-0.04,2.97-0.26,4.88-0.67
			c-0.24,1.59-0.41,4.31-0.49,8.18c4.27-5.45,7.32-8.18,9.16-8.18c1.06,0,3.01,0.59,5.86,1.77c2.48,1.06,4.17,1.59,5.07,1.59
			c1.18,0,2.5-0.83,3.97-2.5c0.12-0.12,0.2-0.21,0.24-0.27c0.04-0.06,0.22-0.25,0.55-0.58l1.4,0.67c-1.95,4.39-4.48,6.59-7.57,6.59
			c-1.06,0-3.11-0.67-6.17-2.01c-1.26-0.57-2.22-0.85-2.87-0.85c-1.95,0-4.03,1.26-6.23,3.78c1.06-0.33,1.95-0.49,2.69-0.49
			c1.14,0,3.23,0.69,6.29,2.08c2.2,0.94,3.78,1.4,4.76,1.4c0.65,0,1.32-0.2,2.01-0.61c-1.99,2.56-3.93,3.85-5.8,3.85
			c-0.86,0-2.26-0.47-4.21-1.4c-2.81-1.38-4.76-2.07-5.86-2.07s-2.2,0.59-3.3,1.77v18.55c0,4.15,0.67,7.18,2.01,9.09
			c1.34,1.91,3.5,3.07,6.47,3.48v1.1C370.45,623.87,366.16,623.63,362.34,623.63z"/>
		<path class="st47" d="M407.44,580.11v43.52c-5.98,0.08-10.03,0.33-12.15,0.73v-1.1c3.3-1.18,5.41-2.62,6.35-4.33
			c0.98-1.79,1.46-4.98,1.46-9.58V593.6c0-4.35-0.57-7.47-1.71-9.34c-1.18-1.91-3.21-3.17-6.1-3.79v-1.04
			C396.56,579.68,400.61,579.91,407.44,580.11z M411.84,623.63v-43.52c1.34-0.04,2.97-0.26,4.88-0.67
			c-0.24,1.59-0.41,4.31-0.49,8.18c4.27-5.45,7.32-8.18,9.16-8.18c1.06,0,3.01,0.59,5.86,1.77c2.48,1.06,4.17,1.59,5.07,1.59
			c1.18,0,2.5-0.83,3.97-2.5c0.12-0.12,0.2-0.21,0.24-0.27c0.04-0.06,0.22-0.25,0.55-0.58l1.4,0.67c-1.95,4.39-4.48,6.59-7.57,6.59
			c-1.06,0-3.11-0.67-6.17-2.01c-1.26-0.57-2.22-0.85-2.87-0.85c-1.95,0-4.03,1.26-6.23,3.78c1.06-0.33,1.95-0.49,2.69-0.49
			c1.14,0,3.23,0.69,6.29,2.08c2.2,0.94,3.78,1.4,4.76,1.4c0.65,0,1.32-0.2,2.01-0.61c-1.99,2.56-3.93,3.85-5.8,3.85
			c-0.86,0-2.26-0.47-4.21-1.4c-2.81-1.38-4.76-2.07-5.86-2.07s-2.2,0.59-3.3,1.77v18.55c0,4.15,0.67,7.18,2.01,9.09
			c1.34,1.91,3.5,3.07,6.47,3.48v1.1C419.95,623.87,415.66,623.63,411.84,623.63z"/>
		<path class="st47" d="M452.36,618.75l-0.24,0.37c-6.14-3.54-9.22-9.09-9.22-16.66c0-2.93,0.55-5.76,1.65-8.48
			c1.1-2.73,3.4-5.47,6.9-8.24l0.31,0.3c-2.56,4.44-3.84,9.77-3.84,15.99C447.91,608.49,449.39,614.07,452.36,618.75z
			 M485.57,599.15h-28.32c-0.08,2.03-0.12,3.28-0.12,3.72c0,5.29,1.44,9.54,4.33,12.76c2.89,3.17,6.65,4.76,11.29,4.76
			c3.82,0,7.28-1.04,10.38-3.11c3.09-2.08,5.53-4.86,7.32-8.36h2.63c-3.74,10.7-10.87,16.05-21.36,16.05
			c-6.31,0-11.17-2.2-14.59-6.59c-3.42-4.35-5.13-9.87-5.13-16.54c0-6.43,1.59-11.78,4.76-16.05c3.13-4.23,7.22-6.35,12.27-6.35
			c4.07,0,7.65,1.53,10.74,4.58C482.82,587.03,484.75,592.07,485.57,599.15z M457.74,594.64h21.73c-0.2-2.93-1.16-5.53-2.87-7.81
			c-1.79-2.28-4.35-3.42-7.69-3.42c-2.97,0-5.47,1.04-7.51,3.11C459.36,588.6,458.14,591.3,457.74,594.64z M495.03,599.15h-5.43
			c-0.2-7.41-2.14-12.84-5.8-16.3C490.35,585.58,494.09,591.02,495.03,599.15z"/>
		<path class="st47" d="M512.42,580.11v43.52c-5.98,0.08-10.03,0.33-12.15,0.73v-1.1c3.3-1.18,5.41-2.62,6.35-4.33
			c0.98-1.79,1.46-4.98,1.46-9.58V593.6c0-4.35-0.57-7.47-1.71-9.34c-1.18-1.91-3.21-3.17-6.1-3.79v-1.04
			C501.54,579.68,505.59,579.91,512.42,580.11z M516.82,623.63v-43.52c1.34-0.04,2.97-0.26,4.88-0.67
			c-0.24,1.59-0.41,4.31-0.49,8.18c4.27-5.45,7.32-8.18,9.16-8.18c1.06,0,3.01,0.59,5.86,1.77c2.48,1.06,4.17,1.59,5.07,1.59
			c1.18,0,2.5-0.83,3.97-2.5c0.12-0.12,0.2-0.21,0.24-0.27c0.04-0.06,0.22-0.25,0.55-0.58l1.4,0.67c-1.95,4.39-4.48,6.59-7.57,6.59
			c-1.06,0-3.11-0.67-6.17-2.01c-1.26-0.57-2.22-0.85-2.87-0.85c-1.95,0-4.03,1.26-6.23,3.78c1.06-0.33,1.95-0.49,2.69-0.49
			c1.14,0,3.23,0.69,6.29,2.08c2.2,0.94,3.78,1.4,4.76,1.4c0.65,0,1.32-0.2,2.01-0.61c-1.99,2.56-3.93,3.85-5.8,3.85
			c-0.86,0-2.26-0.47-4.21-1.4c-2.81-1.38-4.76-2.07-5.86-2.07s-2.2,0.59-3.3,1.77v18.55c0,4.15,0.67,7.18,2.01,9.09
			c1.34,1.91,3.5,3.07,6.47,3.48v1.1C524.93,623.87,520.64,623.63,516.82,623.63z"/>
		<path class="st47" d="M558.57,583.16c-3.78,4.19-5.68,10.38-5.68,18.55c0,8.18,1.89,14.45,5.68,18.8
			c-7.04-3.99-10.56-10.33-10.56-19.04C548.01,592.89,551.53,586.78,558.57,583.16z M557.04,602.33c0-7.89,1.61-13.77,4.82-17.64
			c3.25-3.91,7.73-5.86,13.43-5.86c5.29,0,9.66,1.73,13.12,5.19c3.46,3.46,5.19,9.18,5.19,17.15c0,8.75-1.85,14.85-5.55,18.31
			c-3.74,3.5-8.06,5.25-12.94,5.25c-5.01,0-9.26-1.83-12.76-5.49C558.81,615.61,557.04,609.98,557.04,602.33z M562.17,601.35
			c0,7.45,1.14,12.49,3.42,15.14c2.28,2.64,5.51,3.97,9.7,3.97c3.95,0,7.14-1.38,9.58-4.15c2.4-2.77,3.6-7.81,3.6-15.14
			c0-12.33-4.39-18.49-13.18-18.49C566.54,582.67,562.17,588.9,562.17,601.35z M592.13,619.85c3.74-4.19,5.62-10.01,5.62-17.46
			c0-4.03-0.45-7.81-1.34-11.35c-0.94-3.62-2.36-6.27-4.27-7.93c7.12,3.95,10.68,10.01,10.68,18.19
			C602.82,609.14,599.25,615.33,592.13,619.85z"/>
	</g>
</g>
</svg>
